<svg width="60" height="60" viewBox="0 0 60 60" fill="none" xmlns="http://www.w3.org/2000/svg">
<mask id="path-1-inside-1_4423_4099" fill="white">
<path d="M18.6667 43.8333C17.8338 43.8333 17.0184 43.4945 16.4278 42.9055L6.92783 33.4055C6.33883 32.8149 6 31.9995 6 31.1667C6 30.3338 6.33883 29.5184 6.92783 28.9278L21.1778 14.6778C21.7684 14.0888 22.5838 13.75 23.4167 13.75H32.9167C33.1209 13.75 33.3141 13.7738 33.5041 13.8213C34.9449 14.0413 36.0833 15.3777 36.0833 16.9167V26.4167C36.0833 27.2495 35.7445 28.0649 35.1555 28.6555L20.9055 42.9055C20.3149 43.4945 19.4995 43.8333 18.6667 43.8333ZM23.4167 15.3333C23.0002 15.3333 22.5933 15.5028 22.2973 15.7973L8.04725 30.0473C7.75275 30.3433 7.58333 30.7502 7.58333 31.1667C7.58333 31.5831 7.75275 31.99 8.04725 32.2861L17.5473 41.7861C18.1378 42.3767 19.1939 42.3767 19.7845 41.7861L34.0345 27.5361C34.3306 27.24 34.5 26.8331 34.5 26.4167V16.9167C34.5 16.1519 33.9379 15.4869 33.1906 15.3713C33.0544 15.3397 32.9927 15.3333 32.9167 15.3333H23.4167Z"/>
</mask>
<path d="M18.6667 43.8333C17.8338 43.8333 17.0184 43.4945 16.4278 42.9055L6.92783 33.4055C6.33883 32.8149 6 31.9995 6 31.1667C6 30.3338 6.33883 29.5184 6.92783 28.9278L21.1778 14.6778C21.7684 14.0888 22.5838 13.75 23.4167 13.75H32.9167C33.1209 13.75 33.3141 13.7738 33.5041 13.8213C34.9449 14.0413 36.0833 15.3777 36.0833 16.9167V26.4167C36.0833 27.2495 35.7445 28.0649 35.1555 28.6555L20.9055 42.9055C20.3149 43.4945 19.4995 43.8333 18.6667 43.8333ZM23.4167 15.3333C23.0002 15.3333 22.5933 15.5028 22.2973 15.7973L8.04725 30.0473C7.75275 30.3433 7.58333 30.7502 7.58333 31.1667C7.58333 31.5831 7.75275 31.99 8.04725 32.2861L17.5473 41.7861C18.1378 42.3767 19.1939 42.3767 19.7845 41.7861L34.0345 27.5361C34.3306 27.24 34.5 26.8331 34.5 26.4167V16.9167C34.5 16.1519 33.9379 15.4869 33.1906 15.3713C33.0544 15.3397 32.9927 15.3333 32.9167 15.3333H23.4167Z" fill="#E30613"/>
<path d="M16.4278 42.9055L6.87403 52.4593L6.88045 52.4657L6.88687 52.4721L16.4278 42.9055ZM6.92783 33.4055L-2.63878 42.9465L-2.63238 42.9529L-2.62597 42.9593L6.92783 33.4055ZM6.92783 28.9278L-2.62597 19.374L-2.63238 19.3804L-2.63878 19.3869L6.92783 28.9278ZM21.1778 14.6778L11.6369 5.11122L11.6304 5.11762L11.624 5.12403L21.1778 14.6778ZM33.5041 13.8213L30.2272 26.929L30.8398 27.0821L31.464 27.1774L33.5041 13.8213ZM35.1555 28.6555L44.7093 38.2093L44.7157 38.2029L44.7221 38.1965L35.1555 28.6555ZM20.9055 42.9055L30.4465 52.4721L30.4529 52.4657L30.4593 52.4593L20.9055 42.9055ZM22.2973 15.7973L12.7691 6.21787L12.7563 6.23064L12.7435 6.24345L22.2973 15.7973ZM8.04725 30.0473L-1.50655 20.4935L-1.51936 20.5063L-1.53213 20.5191L8.04725 30.0473ZM8.04725 32.2861L-1.53213 41.8142L-1.51936 41.8271L-1.50655 41.8399L8.04725 32.2861ZM17.5473 41.7861L7.99345 51.3399L7.99345 51.3399L17.5473 41.7861ZM19.7845 41.7861L29.3383 51.3399V51.3399L19.7845 41.7861ZM34.0345 27.5361L24.4807 17.9823L24.4807 17.9823L34.0345 27.5361ZM33.1906 15.3713L30.1301 28.5313L30.6242 28.6462L31.1255 28.7237L33.1906 15.3713ZM18.6667 30.3222C21.4325 30.3222 24.0419 31.4171 25.9688 33.3389L6.88687 52.4721C9.99494 55.5719 14.2352 57.3444 18.6667 57.3444V30.3222ZM25.9816 33.3517L16.4816 23.8517L-2.62597 42.9593L6.87403 52.4593L25.9816 33.3517ZM16.4944 23.8645C18.4162 25.7914 19.5111 28.4009 19.5111 31.1667H-7.51111C-7.51111 35.5981 -5.73852 39.8384 -2.63878 42.9465L16.4944 23.8645ZM19.5111 31.1667C19.5111 33.9324 18.4162 36.5419 16.4944 38.4688L-2.63878 19.3869C-5.73852 22.4949 -7.51111 26.7352 -7.51111 31.1667H19.5111ZM16.4816 38.4816L30.7316 24.2316L11.624 5.12403L-2.62597 19.374L16.4816 38.4816ZM30.7188 24.2444C28.7919 26.1662 26.1824 27.2611 23.4167 27.2611V0.238888C18.9852 0.238888 14.7449 2.01148 11.6369 5.11122L30.7188 24.2444ZM23.4167 27.2611H32.9167V0.238888H23.4167V27.2611ZM32.9167 27.2611C32.0414 27.2611 31.133 27.1554 30.2272 26.929L36.781 0.713546C35.4951 0.392074 34.2004 0.238888 32.9167 0.238888V27.2611ZM31.464 27.1774C26.0364 26.3484 22.5722 21.7742 22.5722 16.9167H49.5944C49.5944 8.9811 43.8535 1.73427 35.5442 0.465051L31.464 27.1774ZM22.5722 16.9167V26.4167H49.5944V16.9167H22.5722ZM22.5722 26.4167C22.5722 23.6509 23.6671 21.0414 25.5889 19.1145L44.7221 38.1965C47.8218 35.0884 49.5944 30.8481 49.5944 26.4167H22.5722ZM25.6017 19.1017L11.3517 33.3517L30.4593 52.4593L44.7093 38.2093L25.6017 19.1017ZM11.3645 33.3389C13.2914 31.4171 15.9009 30.3222 18.6667 30.3222V57.3444C23.0981 57.3444 27.3384 55.5718 30.4465 52.4721L11.3645 33.3389ZM23.4167 1.82222C19.3913 1.82222 15.5698 3.43219 12.7691 6.21787L31.8254 25.3766C29.6169 27.5733 26.6092 28.8444 23.4167 28.8444V1.82222ZM12.7435 6.24345L-1.50655 20.4935L17.601 39.601L31.851 25.351L12.7435 6.24345ZM-1.53213 20.5191C-4.31782 23.3198 -5.92778 27.1414 -5.92778 31.1667H21.0944C21.0944 34.3591 19.8233 37.3669 17.6266 39.5754L-1.53213 20.5191ZM-5.92778 31.1667C-5.92778 35.192 -4.31782 39.0136 -1.53213 41.8142L17.6266 22.7579C19.8233 24.9664 21.0944 27.9742 21.0944 31.1667H-5.92778ZM-1.50655 41.8399L7.99345 51.3399L27.101 32.2323L17.601 22.7323L-1.50655 41.8399ZM7.99345 51.3399C13.8605 57.2069 23.4713 57.2069 29.3383 51.3399L10.2307 32.2323C12.7955 29.6675 15.9835 28.7179 18.6659 28.7179C21.3482 28.7179 24.5363 29.6675 27.101 32.2323L7.99345 51.3399ZM29.3383 51.3399L43.5883 37.0899L24.4807 17.9823L10.2307 32.2323L29.3383 51.3399ZM43.5883 37.0899C46.3974 34.2807 48.0111 30.4457 48.0111 26.4167H20.9889C20.9889 23.2204 22.2637 20.1993 24.4807 17.9823L43.5883 37.0899ZM48.0111 26.4167V16.9167H20.9889V26.4167H48.0111ZM48.0111 16.9167C48.0111 9.6325 42.7318 3.17524 35.2557 2.01897L31.1255 28.7237C25.144 27.7986 20.9889 22.6713 20.9889 16.9167H48.0111ZM36.251 2.2114C35.4353 2.0217 34.3093 1.82222 32.9167 1.82222V28.8444C32.5004 28.8444 31.9285 28.8233 31.2619 28.7352C30.6965 28.6606 30.275 28.5649 30.1301 28.5313L36.251 2.2114ZM32.9167 1.82222H23.4167V28.8444H32.9167V1.82222Z" fill="#E30613" mask="url(#path-1-inside-1_4423_4099)"/>
<mask id="path-3-inside-2_4423_4099" fill="white">
<path d="M40.7223 47H26.694C25.8311 47 24.9903 46.6659 24.3855 46.08C23.7696 45.4847 23.4165 44.6645 23.4165 43.8333V38.4816C23.4165 38.271 23.5004 38.07 23.6477 37.9211L34.0343 27.5344C34.3304 27.2399 34.4998 26.833 34.4998 26.4166V16.9166C34.4998 16.1519 33.9378 15.4869 33.1904 15.3713C32.8088 15.3111 32.527 14.9865 32.5207 14.6018C32.5143 14.217 32.7867 13.8814 33.1667 13.8101C34.1958 13.6201 35.2662 13.94 36.0167 14.6699L43.0277 21.3959C43.6468 21.9944 43.9998 22.8145 43.9998 23.6458V43.8333C43.9998 44.6645 43.6468 45.4847 43.0308 46.08C42.426 46.6659 41.5853 47 40.7223 47ZM24.9998 38.8094V43.8333C24.9998 44.2386 25.1772 44.6439 25.4875 44.9432C25.7978 45.244 26.238 45.4166 26.694 45.4166H40.7223C41.1783 45.4166 41.6169 45.244 41.9288 44.9432C42.2392 44.6439 42.4165 44.2386 42.4165 43.8333V23.6458C42.4165 23.2404 42.2392 22.8351 41.9288 22.5359L36.0832 16.9277V26.4166C36.0832 27.2494 35.7443 28.0649 35.1553 28.6554L24.9998 38.8094Z"/>
</mask>
<path d="M40.7223 47H26.694C25.8311 47 24.9903 46.6659 24.3855 46.08C23.7696 45.4847 23.4165 44.6645 23.4165 43.8333V38.4816C23.4165 38.271 23.5004 38.07 23.6477 37.9211L34.0343 27.5344C34.3304 27.2399 34.4998 26.833 34.4998 26.4166V16.9166C34.4998 16.1519 33.9378 15.4869 33.1904 15.3713C32.8088 15.3111 32.527 14.9865 32.5207 14.6018C32.5143 14.217 32.7867 13.8814 33.1667 13.8101C34.1958 13.6201 35.2662 13.94 36.0167 14.6699L43.0277 21.3959C43.6468 21.9944 43.9998 22.8145 43.9998 23.6458V43.8333C43.9998 44.6645 43.6468 45.4847 43.0308 46.08C42.426 46.6659 41.5853 47 40.7223 47ZM24.9998 38.8094V43.8333C24.9998 44.2386 25.1772 44.6439 25.4875 44.9432C25.7978 45.244 26.238 45.4166 26.694 45.4166H40.7223C41.1783 45.4166 41.6169 45.244 41.9288 44.9432C42.2392 44.6439 42.4165 44.2386 42.4165 43.8333V23.6458C42.4165 23.2404 42.2392 22.8351 41.9288 22.5359L36.0832 16.9277V26.4166C36.0832 27.2494 35.7443 28.0649 35.1553 28.6554L24.9998 38.8094Z" fill="#E30613"/>
<path d="M24.3855 46.08L33.7857 36.375L33.7756 36.3653L24.3855 46.08ZM23.6477 37.9211L14.0939 28.3673L14.0683 28.3929L14.0429 28.4185L23.6477 37.9211ZM34.0343 27.5344L24.5062 17.9551L24.4933 17.9678L24.4805 17.9807L34.0343 27.5344ZM33.1904 15.3713L31.086 28.7175L31.1057 28.7206L31.1253 28.7236L33.1904 15.3713ZM33.1667 13.8101L30.7138 0.52353L30.6952 0.526949L30.6767 0.53042L33.1667 13.8101ZM36.0167 14.6699L26.5966 24.3556L26.6297 24.3878L26.6631 24.4198L36.0167 14.6699ZM43.0277 21.3959L52.4186 11.6819L52.4 11.6639L52.3812 11.646L43.0277 21.3959ZM43.0308 46.08L33.6407 36.3653L33.6307 36.375L43.0308 46.08ZM24.9998 38.8094L15.4468 29.2548L11.4887 33.2123V38.8094H24.9998ZM25.4875 44.9432L34.8917 35.2421L34.8789 35.2297L34.866 35.2173L25.4875 44.9432ZM41.9288 44.9432L32.5503 35.2173L32.5494 35.2182L41.9288 44.9432ZM41.9288 22.5359L51.3074 12.81L51.295 12.798L51.2825 12.7861L41.9288 22.5359ZM36.0832 16.9277L45.4369 7.17789L22.5721 -14.7579V16.9277H36.0832ZM35.1553 28.6554L44.7084 38.21L44.7152 38.2032L44.722 38.1964L35.1553 28.6554ZM40.7223 33.4888H26.694V60.5111H40.7223V33.4888ZM26.694 33.4888C29.2267 33.4888 31.7901 34.4422 33.7857 36.375L14.9854 55.7851C18.1906 58.8896 22.4354 60.5111 26.694 60.5111V33.4888ZM33.7756 36.3653C35.7111 38.2361 36.9276 40.8886 36.9276 43.8333H9.90539C9.90539 48.4405 11.8281 52.7333 14.9954 55.7948L33.7756 36.3653ZM36.9276 43.8333V38.4816H9.90539V43.8333H36.9276ZM36.9276 38.4816C36.9276 41.8731 35.5769 45.0743 33.2524 47.4237L14.0429 28.4185C11.424 31.0656 9.90539 34.6689 9.90539 38.4816H36.9276ZM33.2015 47.4749L43.5881 37.0882L24.4805 17.9807L14.0939 28.3673L33.2015 47.4749ZM43.5625 37.1138C46.4007 34.2908 48.011 30.4393 48.011 26.4166H20.9887C20.9887 23.2268 22.2601 20.1891 24.5062 17.9551L43.5625 37.1138ZM48.011 26.4166V16.9166H20.9887V26.4166H48.011ZM48.011 16.9166C48.011 9.63245 42.7316 3.17519 35.2555 2.01892L31.1253 28.7236C25.1439 27.7985 20.9887 22.6713 20.9887 16.9166H48.011ZM35.2948 2.02506C41.3888 2.98594 45.9281 8.18976 46.03 14.3794L19.0114 14.8242C19.1259 21.7833 24.2288 27.6363 31.086 28.7175L35.2948 2.02506ZM46.03 14.3794C46.1317 20.558 41.7705 25.9435 35.6566 27.0898L30.6767 0.53042C23.8028 1.81928 18.897 7.87607 19.0114 14.8242L46.03 14.3794ZM35.6196 27.0967C32.3853 27.6938 29.018 26.7105 26.5966 24.3556L45.4367 4.98417C41.5144 1.16939 36.0064 -0.453576 30.7138 0.52353L35.6196 27.0967ZM26.6631 24.4198L33.6741 31.1458L52.3812 11.646L45.3702 4.91995L26.6631 24.4198ZM33.6367 31.1098C31.7126 29.2496 30.4887 26.6005 30.4887 23.6458H57.5109C57.5109 19.0286 55.5809 14.7391 52.4186 11.6819L33.6367 31.1098ZM30.4887 23.6458V43.8333H57.5109V23.6458H30.4887ZM30.4887 43.8333C30.4887 40.8886 31.7052 38.2361 33.6407 36.3653L52.4209 55.7948C55.5883 52.7333 57.5109 48.4405 57.5109 43.8333H30.4887ZM33.6307 36.375C35.6262 34.4422 38.1896 33.4888 40.7223 33.4888V60.5111C44.9809 60.5111 49.2258 58.8896 52.431 55.7851L33.6307 36.375ZM11.4887 38.8094V43.8333H38.5109V38.8094H11.4887ZM11.4887 43.8333C11.4887 48.1344 13.326 51.9855 16.109 54.6691L34.866 35.2173C37.0284 37.3024 38.5109 40.3428 38.5109 43.8333H11.4887ZM16.0833 54.6443C19.0668 57.5364 22.9455 58.9277 26.694 58.9277V31.9055C29.5305 31.9055 32.5289 32.9517 34.8917 35.2421L16.0833 54.6443ZM26.694 58.9277H40.7223V31.9055H26.694V58.9277ZM40.7223 58.9277C44.491 58.9277 48.3472 57.5241 51.3083 54.6682L32.5494 35.2182C34.8867 32.9639 37.8657 31.9055 40.7223 31.9055V58.9277ZM51.3074 54.6691C54.0903 51.9855 55.9276 48.1344 55.9276 43.8333H28.9054C28.9054 40.3428 30.388 37.3024 32.5503 35.2173L51.3074 54.6691ZM55.9276 43.8333V23.6458H28.9054V43.8333H55.9276ZM55.9276 23.6458C55.9276 19.3446 54.0903 15.4935 51.3074 12.81L32.5503 32.2618C30.388 30.1767 28.9054 27.1363 28.9054 23.6458H55.9276ZM51.2825 12.7861L45.4369 7.17789L26.7295 26.6775L32.5752 32.2857L51.2825 12.7861ZM22.5721 16.9277V26.4166H49.5943V16.9277H22.5721ZM22.5721 26.4166C22.5721 23.6508 23.667 21.0414 25.5887 19.1145L44.722 38.1964C47.8217 35.0883 49.5943 30.8481 49.5943 26.4166H22.5721ZM25.6023 19.1009L15.4468 29.2548L34.5529 48.3639L44.7084 38.21L25.6023 19.1009Z" fill="#E30613" mask="url(#path-3-inside-2_4423_4099)"/>
<path d="M30.5415 21.6665C31.8509 21.6665 32.9165 20.6009 32.9165 19.2915C32.9165 17.9821 31.8509 16.9165 30.5415 16.9165M30.5415 21.6665V20.0835M30.5415 21.6665V20.0835M30.5415 21.6665C29.2321 21.6665 28.1665 20.6009 28.1665 19.2915C28.1665 17.9821 29.2321 16.9165 30.5415 16.9165M30.5415 20.0835C30.9511 20.0835 31.288 19.7715 31.3286 19.3726L31.3335 19.2915C31.3335 18.8819 31.0215 18.545 30.6226 18.5044L30.5415 18.4995M30.5415 20.0835L30.4604 20.0786C30.0882 20.0407 29.7923 19.7448 29.7544 19.3726L29.7495 19.2915C29.7495 18.8545 30.1045 18.4995 30.5415 18.4995M30.5415 18.4995V16.9165M30.5415 18.4995V16.9165" fill="#E30613" stroke="#E30613" stroke-width="13.5111"/>
<mask id="path-6-inside-3_4423_4099" fill="white">
<path d="M40.0417 20.0833C39.6047 20.0833 39.25 19.7287 39.25 19.2917V14.5417C39.25 12.3598 37.4735 10.5833 35.2917 10.5833C33.1098 10.5833 31.3333 12.3598 31.3333 14.5417V17.7083C31.3333 18.1453 30.9787 18.5 30.5417 18.5C30.1047 18.5 29.75 18.1453 29.75 17.7083V14.5417C29.75 11.4858 32.2358 9 35.2917 9C38.3475 9 40.8333 11.4858 40.8333 14.5417V19.2917C40.8333 19.7287 40.4787 20.0833 40.0417 20.0833Z"/>
</mask>
<path d="M40.0417 20.0833C39.6047 20.0833 39.25 19.7287 39.25 19.2917V14.5417C39.25 12.3598 37.4735 10.5833 35.2917 10.5833C33.1098 10.5833 31.3333 12.3598 31.3333 14.5417V17.7083C31.3333 18.1453 30.9787 18.5 30.5417 18.5C30.1047 18.5 29.75 18.1453 29.75 17.7083V14.5417C29.75 11.4858 32.2358 9 35.2917 9C38.3475 9 40.8333 11.4858 40.8333 14.5417V19.2917C40.8333 19.7287 40.4787 20.0833 40.0417 20.0833Z" fill="#E30613"/>
<path d="M40.0417 6.57222C47.0667 6.57222 52.7611 12.2667 52.7611 19.2917H25.7389C25.7389 27.1906 32.1427 33.5944 40.0417 33.5944V6.57222ZM52.7611 19.2917V14.5417H25.7389V19.2917H52.7611ZM52.7611 14.5417C52.7611 4.89785 44.9355 -2.92778 35.2917 -2.92778V24.0944C30.0115 24.0944 25.7389 19.8218 25.7389 14.5417H52.7611ZM35.2917 -2.92778C25.6479 -2.92778 17.8222 4.89785 17.8222 14.5417H44.8444C44.8444 19.8218 40.5718 24.0944 35.2917 24.0944V-2.92778ZM17.8222 14.5417V17.7083H44.8444V14.5417H17.8222ZM17.8222 17.7083C17.8222 10.6834 23.5167 4.98889 30.5417 4.98889V32.0111C38.4406 32.0111 44.8444 25.6073 44.8444 17.7083H17.8222ZM30.5417 4.98889C37.5666 4.98889 43.2611 10.6834 43.2611 17.7083H16.2389C16.2389 25.6073 22.6427 32.0111 30.5417 32.0111V4.98889ZM43.2611 17.7083V14.5417H16.2389V17.7083H43.2611ZM43.2611 14.5417C43.2611 18.9478 39.6978 22.5111 35.2917 22.5111V-4.51111C24.7739 -4.51111 16.2389 4.02385 16.2389 14.5417H43.2611ZM35.2917 22.5111C30.8855 22.5111 27.3222 18.9478 27.3222 14.5417H54.3444C54.3444 4.02385 45.8095 -4.51111 35.2917 -4.51111V22.5111ZM27.3222 14.5417V19.2917H54.3444V14.5417H27.3222ZM27.3222 19.2917C27.3222 12.2667 33.0167 6.57222 40.0417 6.57222V33.5944C47.9406 33.5944 54.3444 27.1906 54.3444 19.2917H27.3222Z" fill="#E30613" mask="url(#path-6-inside-3_4423_4099)"/>
<path d="M10.3438 11.8125C10.2194 11.8125 10.1002 11.8619 10.0123 11.9498C9.92439 12.0377 9.875 12.1569 9.875 12.2812V13.2188C9.875 13.3431 9.92439 13.4623 10.0123 13.5502C10.1002 13.6381 10.2194 13.6875 10.3438 13.6875C10.4681 13.6875 10.5873 13.6381 10.6752 13.5502C10.7631 13.4623 10.8125 13.3431 10.8125 13.2188V12.2812C10.8125 12.1569 10.7631 12.0377 10.6752 11.9498C10.5873 11.8619 10.4681 11.8125 10.3438 11.8125Z" fill="#E30613"/>
<path d="M10.3438 10.875C10.4681 10.875 10.5873 10.8256 10.6752 10.7377C10.7631 10.6498 10.8125 10.5306 10.8125 10.4062V9.46875C10.8125 9.34443 10.7631 9.2252 10.6752 9.13729C10.5873 9.04939 10.4681 9 10.3438 9C10.2194 9 10.1002 9.04939 10.0123 9.13729C9.92439 9.2252 9.875 9.34443 9.875 9.46875V10.4062C9.875 10.5306 9.92439 10.6498 10.0123 10.7377C10.1002 10.8256 10.2194 10.875 10.3438 10.875Z" fill="#E30613"/>
<path d="M8.46875 11.8125H9.40625C9.53057 11.8125 9.6498 11.7631 9.73771 11.6752C9.82561 11.5873 9.875 11.4681 9.875 11.3438C9.875 11.2194 9.82561 11.1002 9.73771 11.0123C9.6498 10.9244 9.53057 10.875 9.40625 10.875H8.46875C8.34443 10.875 8.2252 10.9244 8.13729 11.0123C8.04939 11.1002 8 11.2194 8 11.3438C8 11.4681 8.04939 11.5873 8.13729 11.6752C8.2252 11.7631 8.34443 11.8125 8.46875 11.8125Z" fill="#E30613"/>
<path d="M11.2812 11.8125H12.2188C12.3431 11.8125 12.4623 11.7631 12.5502 11.6752C12.6381 11.5873 12.6875 11.4681 12.6875 11.3438C12.6875 11.2194 12.6381 11.1002 12.5502 11.0123C12.4623 10.9244 12.3431 10.875 12.2188 10.875H11.2812C11.1569 10.875 11.0377 10.9244 10.9498 11.0123C10.8619 11.1002 10.8125 11.2194 10.8125 11.3438C10.8125 11.4681 10.8619 11.5873 10.9498 11.6752C11.0377 11.7631 11.1569 11.8125 11.2812 11.8125Z" fill="#E30613"/>
<path d="M55.3438 37.8125C55.2194 37.8125 55.1002 37.8619 55.0123 37.9498C54.9244 38.0377 54.875 38.1569 54.875 38.2812V39.2188C54.875 39.3431 54.9244 39.4623 55.0123 39.5502C55.1002 39.6381 55.2194 39.6875 55.3438 39.6875C55.4681 39.6875 55.5873 39.6381 55.6752 39.5502C55.7631 39.4623 55.8125 39.3431 55.8125 39.2188V38.2812C55.8125 38.1569 55.7631 38.0377 55.6752 37.9498C55.5873 37.8619 55.4681 37.8125 55.3438 37.8125Z" fill="#E30613"/>
<path d="M55.3438 36.875C55.4681 36.875 55.5873 36.8256 55.6752 36.7377C55.7631 36.6498 55.8125 36.5306 55.8125 36.4062V35.4688C55.8125 35.3444 55.7631 35.2252 55.6752 35.1373C55.5873 35.0494 55.4681 35 55.3438 35C55.2194 35 55.1002 35.0494 55.0123 35.1373C54.9244 35.2252 54.875 35.3444 54.875 35.4688V36.4062C54.875 36.5306 54.9244 36.6498 55.0123 36.7377C55.1002 36.8256 55.2194 36.875 55.3438 36.875Z" fill="#E30613"/>
<path d="M53.4688 37.8125H54.4062C54.5306 37.8125 54.6498 37.7631 54.7377 37.6752C54.8256 37.5873 54.875 37.4681 54.875 37.3438C54.875 37.2194 54.8256 37.1002 54.7377 37.0123C54.6498 36.9244 54.5306 36.875 54.4062 36.875H53.4688C53.3444 36.875 53.2252 36.9244 53.1373 37.0123C53.0494 37.1002 53 37.2194 53 37.3438C53 37.4681 53.0494 37.5873 53.1373 37.6752C53.2252 37.7631 53.3444 37.8125 53.4688 37.8125Z" fill="#E30613"/>
<path d="M56.2812 37.8125H57.2188C57.3431 37.8125 57.4623 37.7631 57.5502 37.6752C57.6381 37.5873 57.6875 37.4681 57.6875 37.3438C57.6875 37.2194 57.6381 37.1002 57.5502 37.0123C57.4623 36.9244 57.3431 36.875 57.2188 36.875H56.2812C56.1569 36.875 56.0377 36.9244 55.9498 37.0123C55.8619 37.1002 55.8125 37.2194 55.8125 37.3438C55.8125 37.4681 55.8619 37.5873 55.9498 37.6752C56.0377 37.7631 56.1569 37.8125 56.2812 37.8125Z" fill="#E30613"/>
</svg>
