<svg width="60" height="60" viewBox="0 0 60 60" fill="none" xmlns="http://www.w3.org/2000/svg">
<circle cx="30" cy="30" r="30" fill="#0C54A0" fill-opacity="0.1"/>
<g clip-path="url(#clip0_7462_2)">
<path d="M38.4791 41.0001H21.5209C20.1303 41.0001 19 39.8698 19 38.4792V23.3542C19 21.9636 20.1303 20.8335 21.5209 20.8335H38.4791C39.8697 20.8335 41 21.9636 41 23.3542V38.4792C41 39.8698 39.8697 41.0001 38.4791 41.0001ZM21.5209 22.2085C20.8893 22.2085 20.375 22.7226 20.375 23.3542V38.4792C20.375 39.1108 20.8893 39.6251 21.5209 39.6251H38.4791C39.1107 39.6251 39.625 39.1108 39.625 38.4792V23.3542C39.625 22.7226 39.1107 22.2085 38.4791 22.2085H21.5209Z" fill="#0C54A0"/>
<path d="M40.3125 27.7085H19.6875C19.308 27.7085 19 27.4005 19 27.021C19 26.6415 19.308 26.3335 19.6875 26.3335H40.3125C40.692 26.3335 41 26.6415 41 27.021C41 27.4005 40.692 27.7085 40.3125 27.7085Z" fill="#0C54A0"/>
<path d="M24.271 24.5C23.8915 24.5 23.5835 24.192 23.5835 23.8125V19.6875C23.5835 19.308 23.8915 19 24.271 19C24.6505 19 24.9585 19.308 24.9585 19.6875V23.8125C24.9585 24.192 24.6505 24.5 24.271 24.5Z" fill="#0C54A0"/>
<path d="M35.729 24.5C35.3495 24.5 35.0415 24.192 35.0415 23.8125V19.6875C35.0415 19.308 35.3495 19 35.729 19C36.1085 19 36.4165 19.308 36.4165 19.6875V23.8125C36.4165 24.192 36.1085 24.5 35.729 24.5Z" fill="#0C54A0"/>
</g>
<defs>
<clipPath id="clip0_7462_2">
<rect width="22" height="22" fill="white" transform="translate(19 19)"/>
</clipPath>
</defs>
</svg>
