<svg width="60" height="60" viewBox="0 0 60 60" fill="none" xmlns="http://www.w3.org/2000/svg">
<circle cx="30" cy="30" r="30" fill="#0C54A0" fill-opacity="0.1"/>
<g clip-path="url(#clip0_7385_8)">
<path d="M44.5336 41.0752C45.1027 40.2708 45.3933 39.3022 45.3569 38.3056C45.3155 37.1626 44.8467 36.087 44.0372 35.2777L42.0295 33.2701C42.443 31.7501 42.5646 30.1845 42.39 28.6114C42.3626 28.3646 42.1402 28.1869 41.8931 28.2139C41.6461 28.2413 41.4682 28.4637 41.4956 28.7108C41.6384 29.9963 41.5673 31.2765 41.2866 32.5269L40.6425 31.8828C40.3123 31.5526 39.8728 31.3707 39.4055 31.3707C38.9369 31.3707 38.4975 31.5526 38.168 31.883C37.4864 32.5653 37.4864 33.6753 38.1682 34.3571L39.859 36.0472C39.3867 36.8143 38.8226 37.5289 38.1778 38.1741C35.3644 40.9876 31.3228 42.1447 27.4711 41.285L28.1161 40.64C28.4463 40.3095 28.6282 39.8705 28.6282 39.4034C28.6282 38.9351 28.4461 38.4957 28.1159 38.1662C27.4341 37.4846 26.3243 37.4846 25.6416 38.1662L23.9487 39.8588C23.1766 39.3847 22.4599 38.8196 21.8152 38.1741C21.1362 37.4951 20.5451 36.7369 20.0571 35.9213C20.0524 35.9117 20.0489 35.9016 20.0433 35.8925C19.8527 35.5695 19.6788 35.2395 19.5255 34.9097C19.3036 34.437 19.1119 33.9429 18.9565 33.4416C18.9494 33.4191 18.9403 33.3978 18.9302 33.3772C18.4915 31.9388 18.3375 30.4479 18.4734 28.9444C18.4959 28.6969 18.3134 28.4783 18.0659 28.4558C17.8191 28.433 17.5997 28.6158 17.5772 28.8633C17.4363 30.4177 17.5835 31.9599 18.0134 33.4517L16.0755 35.3895C15.2702 36.1946 14.8017 37.264 14.756 38.4005C14.7162 39.3912 14.9998 40.3559 15.5599 41.1594L15.5149 41.2044C15.1765 41.5428 14.9902 41.9926 14.9902 42.4709C14.9902 42.9493 15.1765 43.399 15.5149 43.7375L16.3493 44.5719C16.6983 44.9211 17.1569 45.0957 17.6156 45.0957C18.0743 45.0957 18.5327 44.9211 18.8819 44.5719L18.9223 44.5315C19.6861 45.0725 20.5905 45.3587 21.5201 45.3587C21.7964 45.3587 22.0751 45.3333 22.3526 45.282C22.597 45.2368 22.7585 45.0019 22.7133 44.7577C22.668 44.5133 22.4327 44.3522 22.189 44.397C21.2702 44.5669 20.3405 44.3794 19.5712 43.8828L20.5191 42.935C20.7516 42.7025 20.9121 42.4175 20.9899 42.1065C21.6546 42.5679 22.5766 42.5035 23.1684 41.9115L24.3342 40.7459C24.3349 40.7452 24.3356 40.7445 24.3366 40.7436L26.2777 38.8027C26.6093 38.4715 27.1486 38.4715 27.48 38.8029C27.6401 38.9626 27.7282 39.1758 27.7282 39.4034C27.7282 39.6301 27.6398 39.8433 27.4795 40.0037L26.2795 41.2037C26.2777 41.2053 26.2762 41.2069 26.2746 41.2086L24.0846 43.3983C23.9655 43.5174 23.8378 43.6287 23.7047 43.7295C23.5064 43.8793 23.4673 44.1615 23.6173 44.3597C23.7056 44.4767 23.8402 44.5383 23.9763 44.5383C24.071 44.5383 24.1664 44.5086 24.2475 44.4472C24.4134 44.3218 24.5728 44.183 24.7209 44.0347L26.7279 42.0282C27.8077 42.3207 28.9055 42.4637 29.9953 42.4637C31.1665 42.4637 32.3276 42.2977 33.4451 41.9762L35.3911 43.9229C36.1964 44.7279 37.2659 45.1965 38.4026 45.2419C38.4637 45.2445 38.5247 45.2457 38.5856 45.2457C39.5116 45.2457 40.4079 44.9633 41.1616 44.4378L41.2071 44.4833C41.5561 44.8322 42.0148 45.0069 42.4734 45.0069C42.9321 45.0069 43.3905 44.8322 43.7398 44.4833L44.5741 43.6489C44.9126 43.3104 45.0989 42.8607 45.0989 42.3823C45.0989 41.904 44.9126 41.4542 44.5741 41.116L44.5336 41.0752ZM15.6551 38.4369C15.6916 37.5268 16.0669 36.6706 16.7116 36.0258L18.3305 34.4072C18.5437 34.9719 18.7983 35.521 19.0917 36.0488L18.1983 36.942C17.876 37.2638 17.6986 37.6922 17.6986 38.1481C17.6986 38.491 17.7989 38.8184 17.9859 39.0966C17.6801 39.1721 17.3904 39.3291 17.1518 39.5675L16.2087 40.5106C15.8201 39.8961 15.6253 39.1754 15.6551 38.4369ZM19.8827 42.2987L18.5747 43.6065C18.5747 43.6067 18.5744 43.6067 18.5742 43.6069L18.2456 43.9355C17.8983 44.2829 17.333 44.2829 16.9854 43.9355L16.151 43.1012C15.9827 42.9329 15.8899 42.709 15.8899 42.4709C15.8899 42.233 15.9827 42.0092 16.151 41.8409L16.4728 41.5191C16.474 41.5179 16.4752 41.517 16.4761 41.5158L17.7881 40.204C17.9618 40.0304 18.1898 39.9434 18.4181 39.9434C18.6452 39.9434 18.8721 40.0297 19.0455 40.2017L19.8427 40.9983L19.8827 41.0384C20.051 41.2067 20.1436 41.4305 20.1436 41.6684C20.1438 41.9065 20.051 42.1304 19.8827 42.2987ZM22.5321 41.2751C22.38 41.4275 22.1775 41.5114 21.9623 41.5114C21.7472 41.5114 21.5447 41.4275 21.3926 41.2751L20.5235 40.4063C20.5235 40.4063 20.5191 40.4021 20.5191 40.4019L20.1305 40.0133L19.6847 39.5677C19.6837 39.5668 19.6826 39.5658 19.6816 39.5649L18.8346 38.7181C18.6823 38.566 18.5984 38.3635 18.5984 38.1481C18.5984 37.9329 18.6823 37.7307 18.8346 37.5786L19.5731 36.8401C19.9828 37.4619 20.449 38.0485 20.966 38.5911L20.7347 38.8224C20.5589 38.9982 20.5589 39.2829 20.7347 39.4587C20.8226 39.5466 20.9379 39.5904 21.053 39.5904C21.168 39.5904 21.2834 39.5466 21.3712 39.4587L21.6101 39.2199C22.1355 39.6983 22.6999 40.1302 23.2964 40.5111L22.5321 41.2751ZM38.8048 32.5189C38.9644 32.3588 39.1777 32.2707 39.4052 32.2707C39.6326 32.2707 39.8459 32.359 40.0062 32.5191L43.4009 35.914C44.6107 37.1239 44.7872 39.0219 43.8851 40.4267L42.9373 39.4789C42.7001 39.2419 42.4125 39.0856 42.1087 39.0094C42.3068 38.7258 42.4139 38.389 42.4139 38.0358C42.4139 37.5802 42.2365 37.152 41.9142 36.8297L38.8045 33.7208C38.4734 33.3896 38.4734 32.8505 38.8048 32.5189ZM38.5898 39.0291L38.8242 39.2635C38.9121 39.3512 39.0274 39.3952 39.1425 39.3952C39.2576 39.3952 39.3729 39.3512 39.4608 39.2633C39.6363 39.0875 39.6363 38.8027 39.4605 38.6269L39.2182 38.3846C39.6977 37.8582 40.1302 37.2943 40.5108 36.6992L41.2779 37.4661C41.4302 37.6182 41.5139 37.8204 41.5139 38.0358C41.5139 38.251 41.4302 38.4533 41.2779 38.6056L40.4067 39.4768C40.406 39.4775 40.4051 39.4782 40.4044 39.4789L39.57 40.3133C39.5691 40.314 39.5684 40.3149 39.5677 40.3156L38.7202 41.1633C38.4059 41.4774 37.8947 41.4774 37.5802 41.1633L36.8365 40.4194C37.4555 40.0133 38.0428 39.5494 38.5898 39.0291ZM38.4384 44.3429C37.5284 44.3063 36.6722 43.9311 36.0274 43.2865L34.4039 41.6628C34.7053 41.5494 35.0027 41.4242 35.2936 41.288C35.5462 41.1701 35.7989 41.0412 36.0476 40.9037L36.9438 41.7997C37.5286 42.3842 38.4352 42.4547 39.0975 42.012C39.1748 42.3251 39.3359 42.6125 39.5698 42.8464L40.5124 43.7888C39.8977 44.1774 39.1765 44.3722 38.4384 44.3429ZM43.9378 43.0123L43.1032 43.8467C42.7561 44.194 42.1908 44.1943 41.8432 43.8467L40.2063 42.2098C40.0378 42.0415 39.9452 41.8177 39.9452 41.5798C39.9452 41.3424 40.0376 41.119 40.2052 40.951L41.0419 40.1143C41.2155 39.9413 41.4431 39.8548 41.6707 39.8548C41.8987 39.8548 42.127 39.9415 42.3007 40.1152L43.6165 41.431C43.6167 41.431 43.6169 41.4312 43.6169 41.4315L43.9378 41.7521C44.1063 41.9204 44.1989 42.1442 44.1989 42.3823C44.1989 42.6204 44.1061 42.844 43.9378 43.0123Z" fill="#0C54A0"/>
<path d="M19.3579 28.1125C19.6882 28.4428 20.1274 28.6247 20.5945 28.6247C21.063 28.6247 21.5025 28.4428 21.832 28.1123C22.5136 27.43 22.5136 26.32 21.8318 25.6382L20.1335 23.9402C20.5732 23.2254 21.0933 22.5569 21.6843 21.9468C21.697 21.9365 21.7094 21.9257 21.7214 21.9138C21.7361 21.899 21.7493 21.8831 21.7617 21.8667C21.7793 21.8489 21.7971 21.8308 21.8149 21.8128C22.4866 21.1413 23.235 20.5568 24.0396 20.073C24.0625 20.0641 24.085 20.0533 24.1068 20.0404C24.427 19.8513 24.7568 19.6772 25.0882 19.5227C25.5625 19.3005 26.0566 19.109 26.557 18.9539C26.5833 18.9457 26.6081 18.9347 26.632 18.922C28.5595 18.3379 30.5847 18.2655 32.5392 18.7057L31.8869 19.3579C31.5562 19.6884 31.3741 20.1276 31.3741 20.5945C31.3741 21.0623 31.5565 21.5018 31.8869 21.8315C32.569 22.5136 33.6787 22.5136 34.3605 21.8315L36.0567 20.1356C36.8236 20.6079 37.5358 21.1706 38.1773 21.8128C38.9011 22.537 39.5243 23.3491 40.0298 24.2264C40.2274 24.57 40.7899 25.7582 41.0336 26.5075C41.04 26.5408 41.0503 26.5732 41.0641 26.6043C41.0643 26.605 41.0646 26.6055 41.0646 26.606C41.1551 26.9048 41.3341 26.8729 41.4754 26.8729H41.4759C41.591 26.8727 41.7058 26.8289 41.7937 26.7412L43.9272 24.6084C44.7325 23.8031 45.2011 22.7339 45.2465 21.5972C45.2864 20.6067 45.0028 19.6418 44.4426 18.8383L44.4876 18.7933C44.8258 18.4551 45.0122 18.0054 45.0122 17.5268C45.0122 17.0484 44.8258 16.5986 44.4876 16.2604L43.6533 15.4261C42.9548 14.7279 41.8188 14.7279 41.1204 15.4261L41.08 15.4664C40.2757 14.8973 39.3077 14.6064 38.3097 14.6432C37.1665 14.685 36.0909 15.1537 35.2814 15.9632L33.2817 17.9629C31.0675 17.3594 28.75 17.3756 26.5448 18.0093L24.6086 16.0727C23.8033 15.2676 22.7339 14.7991 21.5972 14.7536C20.6076 14.7136 19.6418 14.9974 18.8381 15.5575L18.7931 15.5123C18.0947 14.8141 16.9586 14.8143 16.2602 15.5123L15.4261 16.3467C15.0876 16.6849 14.9013 17.1347 14.9013 17.613C14.9013 18.0916 15.0876 18.5414 15.4261 18.8796L15.4666 18.9201C14.8973 19.7247 14.6069 20.6934 14.643 21.69C14.6845 22.833 15.1532 23.9083 15.9628 24.7179L19.3579 28.1125ZM39.4647 19.5771C39.4708 19.5832 39.4769 19.5897 39.4833 19.5958L41.1677 21.2796C41.32 21.4319 41.404 21.6344 41.404 21.8496C41.404 22.065 41.3203 22.2672 41.1677 22.4193L40.4278 23.1593C40.019 22.5372 39.5533 21.9504 39.0365 21.4066L39.2679 21.1755C39.4436 20.9997 39.4436 20.7147 39.2679 20.5392C39.0921 20.3634 38.8071 20.3634 38.6315 20.5392L38.3936 20.7771C37.8684 20.2978 37.3047 19.8651 36.709 19.4838L37.4702 18.7225C37.7845 18.4082 38.2961 18.4082 38.6104 18.7225L39.4647 19.5771ZM44.3475 21.5611C44.3111 22.4711 43.9359 23.3271 43.2911 23.9718L41.6604 25.6019C41.4293 24.9893 41.0901 24.3021 40.9061 23.9538L41.8038 23.0559C42.1263 22.7339 42.3037 22.3057 42.3037 21.8498C42.3037 21.5069 42.2034 21.1797 42.0164 20.9013C42.3222 20.8258 42.6122 20.6688 42.8508 20.4302L43.7936 19.4873C44.1825 20.1021 44.3772 20.8225 44.3475 21.5611ZM42.3869 15.8018C42.6152 15.8018 42.8433 15.8887 43.0169 16.0624L43.8515 16.8968C44.0198 17.065 44.1124 17.2886 44.1124 17.5268C44.1124 17.7649 44.0198 17.9887 43.8515 18.157L43.5241 18.4844C43.5232 18.4854 43.522 18.4863 43.5213 18.4872L42.2144 19.7939C41.8671 20.1412 41.3018 20.1412 40.9544 19.7939L40.1201 18.9595C39.7725 18.6119 39.7725 18.0466 40.1198 17.6993L41.7569 16.0624C41.9306 15.8885 42.1586 15.8018 42.3869 15.8018ZM35.9179 16.5993C37.128 15.3893 39.0262 15.2128 40.4315 16.1151L39.4835 17.0629C39.2463 17.3001 39.0897 17.5879 39.0138 17.8919C38.3491 17.4297 37.4261 17.4939 36.8339 18.0862L33.7247 21.1952C33.3935 21.5264 32.8547 21.5264 32.523 21.195C32.3625 21.0349 32.2743 20.8216 32.2743 20.5945C32.2743 20.3681 32.3627 20.1548 32.5235 19.994L35.9179 16.5993ZM18.7225 22.5293C18.5702 22.3772 18.4865 22.1749 18.4865 21.9595C18.4865 21.7443 18.5702 21.5421 18.7225 21.3897L21.2805 18.8322C21.5948 18.5179 22.106 18.5179 22.4203 18.8322L23.1553 19.567C22.5335 19.976 21.9464 20.4419 21.4029 20.9589L21.1758 20.7318C21 20.5563 20.7152 20.5563 20.5394 20.7318C20.3639 20.9076 20.3639 21.1926 20.5394 21.3684L20.7733 21.6021C20.294 22.1278 19.8621 22.6926 19.4815 23.2882L18.7225 22.5293ZM21.5613 15.6527C22.4714 15.689 23.3278 16.0643 23.9725 16.709L25.5893 18.326C25.024 18.5393 24.4746 18.7938 23.9472 19.0863L23.0566 18.1957C22.4721 17.6111 21.565 17.5406 20.9027 17.9838C20.8254 17.6704 20.6643 17.3831 20.4302 17.1492L19.4873 16.2065C20.1023 15.8177 20.8233 15.6229 21.5613 15.6527ZM16.0624 16.983L16.8968 16.1486C17.0704 15.975 17.2985 15.8882 17.5268 15.8882C17.755 15.8882 17.9831 15.975 18.157 16.1486L18.483 16.4749C18.4847 16.4763 18.4863 16.4782 18.4879 16.4796L19.7941 17.7855C19.9624 17.954 20.055 18.1776 20.055 18.4157C20.055 18.6539 19.9624 18.8775 19.7941 19.0457L18.9595 19.8801C18.6122 20.2275 18.0468 20.2277 17.6993 19.8801L16.0624 18.2432C15.8939 18.075 15.8013 17.8511 15.8013 17.613C15.8013 17.3751 15.8939 17.1513 16.0624 16.983ZM16.1154 19.5689L17.0629 20.5164C17.3001 20.7536 17.5879 20.91 17.8917 20.9861C17.6936 21.2697 17.5865 21.6063 17.5865 21.9595C17.5865 22.4151 17.7642 22.8436 18.0862 23.1656L21.1954 26.2746C21.5266 26.6057 21.5266 27.1448 21.1952 27.4764C21.0354 27.6365 20.8221 27.7247 20.5945 27.7247C20.3679 27.7247 20.1546 27.6365 19.9943 27.4762L16.5991 24.0813C15.389 22.8714 15.2128 20.9737 16.1154 19.5689Z" fill="#0C54A0"/>
<path d="M23.9375 31.584L21.729 33.5415C21.3805 33.8504 21.3481 34.3853 21.6571 34.7338L22.8739 36.1065C22.8753 36.1079 22.8765 36.1096 22.8777 36.1112C22.8788 36.1124 22.8798 36.1133 22.881 36.1143L24.0481 37.431C24.2146 37.619 24.4471 37.7148 24.6805 37.7148C24.8797 37.7148 25.0796 37.645 25.2402 37.5027L27.4487 35.545C27.7974 35.2363 27.8296 34.7012 27.5206 34.3527L25.1298 31.6558C24.8209 31.3072 24.286 31.2751 23.9375 31.584ZM24.493 32.2942L25.3606 33.2727L23.2485 35.1726L22.3672 34.1783L24.493 32.2942ZM24.6847 36.7926L23.8456 35.8459L25.9576 33.9463L26.8105 34.9082L24.6847 36.7926Z" fill="#0C54A0"/>
<path d="M34.9313 22.6518L31.7632 25.4596C31.5806 25.6216 31.4721 25.8449 31.4574 26.0884C31.4428 26.332 31.5237 26.5666 31.6856 26.7492L33.9853 29.3432C34.147 29.5258 34.3704 29.6343 34.6139 29.6491C34.6327 29.6502 34.6514 29.6507 34.6699 29.6507C34.8933 29.6507 35.1063 29.5701 35.2746 29.4208L38.4427 26.6127C38.6252 26.451 38.7338 26.2277 38.7485 25.9842C38.7633 25.7404 38.6822 25.5058 38.5202 25.3232L36.2208 22.7294C35.8866 22.3525 35.3081 22.3178 34.9313 22.6518ZM37.8502 25.93C37.8499 25.9356 37.8474 25.938 37.8457 25.9392V25.9394L34.6777 28.7472C34.676 28.7486 34.6742 28.7514 34.6681 28.7507C34.6624 28.7505 34.6601 28.7477 34.6587 28.7463L32.3592 26.1522C32.3578 26.1508 32.3555 26.148 32.3557 26.1426C32.3562 26.137 32.3588 26.1346 32.3602 26.1332L35.5282 23.3254C35.5308 23.3231 35.5341 23.3219 35.5371 23.3219C35.5411 23.3219 35.5446 23.3233 35.5472 23.3263L37.8469 25.9204C37.8483 25.9218 37.8506 25.9246 37.8502 25.93Z" fill="#0C54A0"/>
</g>
<defs>
<clipPath id="clip0_7385_8">
<rect width="32" height="32" fill="white" transform="translate(14 14)"/>
</clipPath>
</defs>
</svg>
