<svg version="1.2" xmlns="http://www.w3.org/2000/svg" viewBox="0 0 150 150" width="150" height="150"><style>.a{fill:#e30613}.b{fill:#fff}</style><path fill-rule="evenodd" class="a" d="m75 150c-41.5 0-75-33.5-75-75 0-41.5 33.5-75 75-75 41.5 0 75 33.5 75 75 0 41.5-33.5 75-75 75z"/><path class="b" d="m59.2 75.5q-3.1 0-6.1-0.8-3-0.8-5.1-2.3l2.6-5.3q1.7 1.3 3.9 2 2.2 0.7 4.5 0.7 2.6 0 4-1 1.5-1 1.5-2.8 0-1.7-1.3-2.6-1.3-1-4.2-1h-3.1v-4.5l8.2-9.3 0.7 2.5h-15.4v-5.5h20.6v4.4l-8.1 9.3-3.5-2h2q5.4 0 8.2 2.5 2.8 2.4 2.8 6.2 0 2.5-1.4 4.7-1.3 2.1-3.9 3.5-2.7 1.3-6.9 1.3zm27.9 0q-3.6 0-6.5-1.8-2.8-1.8-4.5-5.2-1.6-3.4-1.6-8.2 0-4.8 1.6-8.2 1.7-3.4 4.5-5.2 2.9-1.8 6.5-1.8 3.6 0 6.5 1.8 2.8 1.8 4.5 5.2 1.6 3.4 1.6 8.2 0 4.8-1.6 8.2-1.7 3.4-4.5 5.2-2.9 1.8-6.5 1.8zm0-5.8q1.7 0 3-0.9 1.3-1 2-3.1 0.7-2.1 0.7-5.4 0-3.3-0.7-5.4-0.7-2.1-2-3.1-1.3-1-3-1-1.7 0-3 1-1.2 1-2 3.1-0.7 2.1-0.7 5.4 0 3.3 0.7 5.4 0.8 2.1 2 3.1 1.3 0.9 3 0.9z"/><path class="b" d="m55.2 102.1q-1.3 0-2.4-0.5-1-0.6-1.6-1.6-0.6-1-0.6-2.3 0-1.3 0.6-2.2 0.6-1 1.6-1.6 1.1-0.5 2.4-0.5 1.3 0 2.2 0.5 1 0.5 1.5 1.4l-1.6 0.9q-0.3-0.6-0.9-0.9-0.5-0.2-1.2-0.2-0.7 0-1.3 0.3-0.6 0.3-0.9 0.9-0.4 0.6-0.4 1.4 0 0.9 0.4 1.5 0.3 0.6 0.9 0.9 0.6 0.3 1.3 0.3 0.7 0 1.2-0.3 0.6-0.3 0.9-0.9l1.6 0.9q-0.5 1-1.5 1.5-0.9 0.5-2.2 0.5zm7.2-0.1v-7.3l0.4 0.5h-3.5v-1.7h8v1.7h-3.4l0.5-0.5v7.3zm11.1 0.1q-1 0-1.9-0.5-0.8-0.4-1.3-1.4-0.5-1-0.5-2.5 0-1.5 0.5-2.4 0.4-1 1.3-1.5 0.8-0.4 1.9-0.4 1.3 0 2.3 0.5 0.9 0.5 1.5 1.5 0.6 1 0.6 2.3 0 1.4-0.6 2.3-0.6 1-1.5 1.6-1 0.5-2.3 0.5zm-4.7 3v-11.6h1.9v2l-0.1 2.2 0.2 2.3v5.1zm4.5-4.7q0.7 0 1.3-0.3 0.6-0.3 0.9-0.9 0.3-0.7 0.3-1.5 0-0.8-0.3-1.4-0.3-0.6-0.9-0.9-0.6-0.3-1.3-0.3-0.7 0-1.3 0.3-0.6 0.3-0.9 0.9-0.3 0.6-0.3 1.4 0 0.8 0.3 1.5 0.3 0.6 0.9 0.9 0.6 0.3 1.3 0.3zm11.6 1.6v-1.7l-0.1-0.4v-3q0-0.9-0.5-1.4-0.5-0.5-1.6-0.5-0.7 0-1.4 0.2-0.7 0.3-1.2 0.7l-0.8-1.5q0.7-0.5 1.6-0.8 1-0.2 2-0.2 1.9 0 2.9 0.9 1 0.8 1 2.7v5zm-2.7 0.1q-0.9 0-1.6-0.3-0.8-0.3-1.2-0.9-0.4-0.6-0.4-1.3 0-0.8 0.4-1.3 0.3-0.6 1.1-1 0.8-0.3 2.1-0.3h2.5v1.3h-2.4q-1 0-1.3 0.4-0.4 0.3-0.4 0.8 0 0.5 0.4 0.8 0.5 0.4 1.2 0.4 0.8 0 1.4-0.4 0.6-0.3 0.8-1l0.3 1.2q-0.2 0.8-1 1.2-0.7 0.4-1.9 0.4zm7.1-0.1v-8.5h2v3.4h4.3v-3.4h2v8.5h-2v-3.4h-4.3v3.4z"/></svg>