<svg version="1.2" xmlns="http://www.w3.org/2000/svg" viewBox="0 0 224 224" width="224" height="224"><style>.a{fill:#0c54a0}.b{fill:#fff}</style><path fill-rule="evenodd" class="a" d="m112 224c-61.9 0-112-50.1-112-112 0-61.9 50.1-112 112-112 61.9 0 112 50.1 112 112 0 61.9-50.1 112-112 112z"/><path class="b" d="m59.2 99v-26.9l2.9 3h-8.8v-5.5h12.7v29.4zm24.5 0.5q-3.6 0-6.5-1.8-2.8-1.8-4.5-5.2-1.6-3.4-1.6-8.2 0-4.8 1.6-8.2 1.7-3.4 4.5-5.2 2.9-1.8 6.5-1.8 3.6 0 6.5 1.8 2.8 1.8 4.5 5.2 1.6 3.4 1.6 8.2 0 4.8-1.6 8.2-1.7 3.4-4.5 5.2-2.9 1.8-6.5 1.8zm0-5.8q1.7 0 3-0.9 1.3-1 2-3.1 0.7-2.1 0.7-5.4 0-3.3-0.7-5.4-0.7-2.1-2-3.1-1.3-1-3-1-1.7 0-3 1-1.3 1-2 3.1-0.7 2.1-0.7 5.4 0 3.3 0.7 5.4 0.7 2.1 2 3.1 1.3 0.9 3 0.9z"/><path class="b" d="m53.1 126l0.1-1.7q0.1 0 0.2 0 0.1 0.1 0.2 0.1 0.5 0 0.7-0.4 0.3-0.3 0.4-0.8 0.2-0.5 0.2-1.1 0.1-0.7 0.1-1.3l0.2-3.3h6.9v8.5h-2v-7.4l0.5 0.6h-4.1l0.4-0.6-0.1 2.2q0 1.2-0.2 2.2-0.1 0.9-0.4 1.6-0.3 0.8-0.8 1.2-0.4 0.4-1.2 0.4-0.2 0-0.5-0.1-0.3 0-0.6-0.1zm15.7 0.1q-1.5 0-2.5-0.5-1.1-0.6-1.7-1.6-0.6-1-0.6-2.3 0-1.3 0.6-2.2 0.6-1 1.6-1.6 1-0.5 2.3-0.5 1.2 0 2.2 0.5 1 0.5 1.5 1.5 0.6 1 0.6 2.4 0 0.1 0 0.3 0 0.1-0.1 0.3h-7.1v-1.4h6.1l-0.8 0.5q0-0.8-0.3-1.3-0.3-0.6-0.9-0.9-0.5-0.3-1.2-0.3-0.8 0-1.3 0.3-0.6 0.3-0.9 0.9-0.3 0.5-0.3 1.3v0.3q0 0.8 0.3 1.4 0.4 0.6 1 0.9 0.7 0.3 1.5 0.3 0.7 0 1.3-0.2 0.6-0.2 1-0.7l1.1 1.2q-0.6 0.7-1.5 1.1-0.8 0.3-1.9 0.3zm7.6-0.1v-7.3l0.5 0.5h-3.5v-1.7h8v1.7h-3.4l0.4-0.5v7.3zm11.6 3.2q-0.6 0-1.2-0.2-0.6-0.2-1-0.6l0.8-1.4q0.3 0.2 0.6 0.4 0.4 0.2 0.8 0.2 0.6 0 0.9-0.3 0.3-0.3 0.6-0.9l0.5-1.2 0.2-0.2 3.2-7.5h1.9l-4 9.2q-0.4 0.9-0.9 1.5-0.4 0.6-1 0.8-0.6 0.2-1.4 0.2zm1.8-2.9l-3.8-8.8h2l3.2 7.3zm10.5-0.2q-1.3 0-2.4-0.5-1-0.6-1.6-1.6-0.6-1-0.6-2.2 0-1.3 0.6-2.3 0.6-1 1.6-1.6 1.1-0.5 2.4-0.5 1.3 0 2.2 0.5 1 0.5 1.5 1.5l-1.5 0.9q-0.4-0.6-1-0.9-0.5-0.3-1.2-0.3-0.7 0-1.3 0.3-0.6 0.3-0.9 0.9-0.4 0.6-0.4 1.5 0 0.8 0.4 1.4 0.3 0.6 0.9 0.9 0.6 0.3 1.3 0.3 0.7 0 1.2-0.3 0.6-0.2 1-0.9l1.5 0.9q-0.5 1-1.5 1.5-0.9 0.5-2.2 0.5zm5.5-0.1v-8.5h8.1v8.5h-1.9v-7.3l0.4 0.5h-5.1l0.5-0.5v7.3zm14.8 0.1q-1.4 0-2.5-0.5-1-0.6-1.6-1.6-0.6-1-0.6-2.2 0-1.3 0.6-2.3 0.5-1 1.5-1.6 1-0.5 2.3-0.5 1.3 0 2.3 0.5 0.9 0.6 1.5 1.6 0.5 1 0.5 2.3 0 0.1 0 0.3 0 0.2 0 0.3h-7.1v-1.3h6.1l-0.8 0.4q0-0.8-0.3-1.3-0.3-0.6-0.9-0.9-0.6-0.3-1.3-0.3-0.7 0-1.3 0.3-0.5 0.3-0.8 0.9-0.3 0.6-0.3 1.3v0.4q0 0.7 0.3 1.3 0.4 0.6 1 0.9 0.6 0.3 1.5 0.3 0.7 0 1.3-0.2 0.6-0.2 1-0.7l1.1 1.2q-0.6 0.7-1.5 1.1-0.8 0.3-2 0.3zm12-1.8l-0.5 0.5v-7.3h2v7.3l-0.4-0.5h4.2l-0.5 0.5v-7.3h2v8.5h-12.6v-8.5h2v7.3l-0.4-0.5zm9.5 1.7v-8.5h2v3.5h4.3v-3.5h2v8.5h-2v-3.3h-4.3v3.3zm19.6 0v-8.5h2v8.5zm-4.4-5.7q1.6 0 2.4 0.7 0.9 0.8 0.9 2.1 0 1.4-0.9 2.2-1 0.8-2.7 0.7h-3.9v-8.5h2v2.8zm-0.5 4.3q0.9 0 1.4-0.4 0.4-0.4 0.4-1.1 0-0.8-0.4-1.1-0.5-0.3-1.4-0.3l-1.7-0.1v2.9zm8.4 1.5l3.7-4.9v1.1l-3.6-4.7h2.3l2.5 3.3h-0.9l2.5-3.3h2.2l-3.6 4.7v-1.1l3.7 4.9h-2.2l-2.6-3.6 0.8 0.1-2.6 3.5zm-105.4 22.2q0 0-0.2 0-0.1 0-0.2 0-0.1 0-0.1 0-2.7-0.1-4.2-1.2-1.5-1.2-1.5-3.3 0-2.1 1.5-3.2 1.5-1.1 4.2-1.2 0.1 0 0.2 0 0.1 0 0.2 0 0.1 0 0.1 0 2.8 0 4.3 1.2 1.5 1.1 1.5 3.2 0 2.2-1.5 3.3-1.5 1.2-4.3 1.2zm-0.1-1.7q1.4 0 2.2-0.3 0.9-0.3 1.4-0.9 0.4-0.7 0.4-1.6 0-0.9-0.4-1.5-0.5-0.6-1.4-0.9-0.8-0.3-2.2-0.3 0 0-0.2 0-0.1 0-0.1 0-1.3 0-2.2 0.3-0.8 0.3-1.2 0.9-0.4 0.6-0.4 1.5 0 0.9 0.4 1.5 0.4 0.6 1.2 1 0.9 0.3 2.2 0.3 0 0 0.1 0 0.2 0 0.2 0zm-1 4.6v-15h1.9v15zm12.9-3q-1.5 0-2.5-0.6-1.1-0.5-1.7-1.5-0.6-1-0.6-2.3 0-1.3 0.6-2.2 0.6-1 1.6-1.6 1-0.5 2.3-0.5 1.2 0 2.2 0.5 1 0.5 1.5 1.5 0.6 1 0.6 2.4 0 0.1 0 0.3 0 0.1-0.1 0.3h-7.1v-1.4h6.1l-0.8 0.5q0-0.8-0.3-1.3-0.3-0.6-0.9-0.9-0.5-0.3-1.2-0.3-0.8 0-1.3 0.3-0.6 0.3-0.9 0.9-0.3 0.5-0.3 1.3v0.3q0 0.8 0.3 1.4 0.4 0.6 1 0.9 0.7 0.3 1.5 0.3 0.7 0 1.3-0.2 0.6-0.2 1-0.7l1.1 1.2q-0.6 0.7-1.5 1.1-0.8 0.3-1.9 0.3zm10 0q-1.3 0-2.4-0.6-1-0.5-1.6-1.5-0.6-1-0.6-2.3 0-1.3 0.6-2.2 0.6-1 1.6-1.6 1.1-0.5 2.4-0.5 1.3 0 2.2 0.5 1 0.5 1.5 1.4l-1.5 0.9q-0.4-0.6-1-0.9-0.5-0.2-1.2-0.2-0.7 0-1.3 0.3-0.6 0.3-0.9 0.9-0.4 0.6-0.4 1.4 0 0.9 0.4 1.5 0.3 0.6 0.9 0.9 0.6 0.3 1.3 0.3 0.7 0 1.2-0.3 0.6-0.3 1-0.9l1.5 0.9q-0.5 1-1.5 1.5-0.9 0.5-2.2 0.5zm7.2-0.1v-7.3l0.4 0.4h-3.4v-1.6h8v1.6h-3.5l0.5-0.4v7.3zm6.4 0v-8.5h2v5.6l4.7-5.6h1.9v8.5h-2v-5.6l-4.7 5.6zm11.2 0v-8.5h4.2q1.5 0 2.4 0.5 0.9 0.6 0.9 1.7 0 1-0.8 1.6-0.9 0.6-2.3 0.6l0.3-0.5q1.5 0 2.3 0.5 0.8 0.6 0.8 1.7 0 1.1-0.9 1.8-0.8 0.6-2.6 0.6zm1.9-1.5h2.3q0.8 0 1.3-0.2 0.4-0.3 0.4-0.8 0-0.6-0.4-0.9-0.4-0.3-1.2-0.3h-2.4zm0-3.5h2.1q0.8 0 1.2-0.2 0.4-0.3 0.4-0.8 0-0.6-0.4-0.8-0.4-0.3-1.2-0.3h-2.1zm13.2 5v-1.7l-0.1-0.4v-3q0-0.9-0.5-1.4-0.5-0.5-1.6-0.5-0.7 0-1.4 0.2-0.7 0.3-1.2 0.7l-0.8-1.5q0.7-0.5 1.6-0.8 1-0.2 2-0.2 1.9 0 2.9 0.8 1 0.9 1 2.8v5zm-2.7 0.1q-0.9 0-1.7-0.3-0.7-0.4-1.1-0.9-0.4-0.6-0.4-1.4 0-0.7 0.4-1.3 0.3-0.5 1.1-0.9 0.8-0.3 2.1-0.3h2.5v1.3h-2.4q-1 0-1.3 0.4-0.4 0.3-0.4 0.8 0 0.5 0.4 0.8 0.5 0.3 1.2 0.3 0.8 0 1.4-0.3 0.5-0.3 0.8-1l0.3 1.2q-0.2 0.8-1 1.2-0.7 0.4-1.9 0.4zm5.8-0.1l0.1-1.7q0.1 0 0.2 0 0.1 0 0.2 0 0.5 0 0.8-0.3 0.3-0.3 0.4-0.8 0.1-0.5 0.2-1.1 0-0.7 0.1-1.4l0.1-3.3h6.9v8.6h-2v-7.4l0.5 0.5h-4.1l0.5-0.5-0.2 2.2q0 1.2-0.1 2.2-0.2 0.9-0.5 1.6-0.2 0.8-0.7 1.2-0.5 0.4-1.3 0.4-0.2 0-0.5-0.1-0.3 0-0.6-0.1zm15.7 0.1q-1.4 0-2.5-0.6-1.1-0.5-1.6-1.5-0.6-1-0.6-2.3 0-1.3 0.5-2.2 0.6-1 1.6-1.6 1-0.5 2.3-0.5 1.2 0 2.2 0.5 1 0.5 1.6 1.5 0.5 1 0.5 2.4 0 0.1 0 0.3 0 0.1 0 0.3h-7.1v-1.4h6l-0.8 0.4q0.1-0.7-0.3-1.2-0.3-0.6-0.8-0.9-0.6-0.3-1.3-0.3-0.7 0-1.3 0.3-0.5 0.3-0.9 0.9-0.3 0.5-0.3 1.3v0.3q0 0.8 0.4 1.4 0.3 0.6 1 0.9 0.6 0.3 1.4 0.3 0.8 0 1.3-0.2 0.6-0.2 1.1-0.7l1 1.2q-0.5 0.7-1.4 1.1-0.9 0.3-2 0.3zm6.2-0.1v-8.6h2v5.7l4.7-5.7h1.8v8.6h-2v-5.6l-4.7 5.6zm4.2-9.6q-1.3 0-2-0.6-0.7-0.6-0.7-1.7h1.3q0.1 0.6 0.4 0.9 0.3 0.3 1 0.3 0.6 0 0.9-0.3 0.4-0.3 0.4-0.9h1.4q0 1.1-0.7 1.7-0.7 0.6-2 0.6z"/></svg>