<svg version="1.2" xmlns="http://www.w3.org/2000/svg" viewBox="0 0 252 252" width="252" height="252"><style>.a{fill:#0c54a0}.b{fill:#fff}</style><path fill-rule="evenodd" class="a" d="m126 252c-69.7 0-126-56.3-126-126 0-69.7 56.3-126 126-126 69.7 0 126 56.3 126 126 0 69.7-56.3 126-126 126z"/><path class="b" d="m70.4 107v-4.4l11.3-10.7q1.4-1.2 2-2.2 0.6-1 0.8-1.8 0.3-0.8 0.3-1.4 0-1.8-1.2-2.7-1.2-1-3.5-1-1.9 0-3.5 0.7-1.5 0.7-2.6 2.2l-5-3.1q1.7-2.6 4.7-4 3.1-1.5 7-1.5 3.3 0 5.7 1.1 2.5 1 3.9 3 1.3 1.9 1.3 4.6 0 1.4-0.3 2.8-0.4 1.4-1.5 3-1 1.5-3.1 3.5l-9.4 8.8-1.3-2.4h16.6v5.5zm37.6 0.5q-3.6 0-6.4-1.8-2.9-1.8-4.5-5.2-1.7-3.4-1.7-8.2 0-4.8 1.7-8.2 1.6-3.4 4.5-5.2 2.8-1.8 6.4-1.8 3.7 0 6.5 1.8 2.9 1.8 4.5 5.2 1.6 3.4 1.6 8.2 0 4.8-1.6 8.2-1.6 3.4-4.5 5.2-2.8 1.8-6.5 1.8zm0-5.8q1.8 0 3-0.9 1.3-1 2-3.1 0.8-2.1 0.8-5.4 0-3.3-0.8-5.4-0.7-2.1-2-3.1-1.2-1-3-1-1.7 0-3 1-1.2 1-2 3.1-0.7 2.1-0.7 5.4 0 3.3 0.7 5.4 0.8 2.1 2 3.1 1.3 0.9 3 0.9zm28.5 5.8q-3.6 0-6.4-1.8-2.9-1.8-4.5-5.2-1.7-3.4-1.7-8.2 0-4.8 1.7-8.2 1.6-3.4 4.5-5.2 2.8-1.8 6.4-1.8 3.7 0 6.5 1.8 2.9 1.8 4.5 5.2 1.6 3.4 1.6 8.2 0 4.8-1.6 8.2-1.6 3.4-4.5 5.2-2.8 1.8-6.5 1.8zm0-5.7q1.8 0 3-1 1.3-1 2-3.1 0.8-2.1 0.8-5.4 0-3.3-0.8-5.4-0.7-2.1-2-3.1-1.2-0.9-3-0.9-1.6 0-2.9 0.9-1.3 1-2.1 3.1-0.7 2.1-0.7 5.4 0 3.3 0.7 5.4 0.8 2.1 2.1 3.1 1.3 1 2.9 1z"/><path class="b" d="m70.3 134v-8.5h6.6v1.7h-5l0.4-0.5v7.3zm11.5 0.1q-1.3 0-2.3-0.5-1.1-0.6-1.7-1.6-0.6-1-0.6-2.3 0-1.3 0.6-2.2 0.6-1 1.7-1.6 1-0.5 2.3-0.5 1.3 0 2.3 0.5 1.1 0.6 1.7 1.6 0.6 0.9 0.6 2.2 0 1.3-0.6 2.3-0.6 1-1.7 1.6-1 0.5-2.3 0.5zm0-1.7q0.7 0 1.3-0.3 0.6-0.3 0.9-0.9 0.3-0.7 0.3-1.5 0-0.8-0.3-1.4-0.3-0.6-0.9-0.9-0.6-0.3-1.3-0.3-0.7 0-1.3 0.3-0.6 0.3-0.9 0.9-0.3 0.6-0.3 1.4 0 0.8 0.3 1.5 0.3 0.6 0.9 0.9 0.6 0.3 1.3 0.3zm11.3 1.7q-1.1 0-1.9-0.5-0.9-0.4-1.4-1.4-0.5-1-0.5-2.5 0-1.5 0.5-2.4 0.5-1 1.3-1.5 0.9-0.4 2-0.4 1.2 0 2.2 0.5 1 0.5 1.5 1.5 0.6 1 0.6 2.3 0 1.4-0.6 2.3-0.5 1-1.5 1.6-1 0.5-2.2 0.5zm-4.8 3v-11.6h1.9v2 2.2l0.1 2.3v5.1zm4.5-4.7q0.8 0 1.3-0.3 0.6-0.3 0.9-0.9 0.4-0.7 0.4-1.5 0-0.8-0.4-1.4-0.3-0.6-0.9-0.9-0.5-0.3-1.3-0.3-0.7 0-1.3 0.3-0.5 0.3-0.9 0.9-0.3 0.6-0.3 1.4 0 0.8 0.3 1.5 0.4 0.6 0.9 0.9 0.6 0.3 1.3 0.3zm10.4 1.7q-1.3 0-2.3-0.5-1.1-0.6-1.7-1.6-0.5-1-0.5-2.3 0-1.3 0.5-2.2 0.6-1 1.7-1.6 1-0.5 2.3-0.5 1.3 0 2.4 0.5 1 0.6 1.6 1.6 0.6 0.9 0.6 2.2 0 1.3-0.6 2.3-0.6 1-1.6 1.6-1.1 0.5-2.4 0.5zm0-1.7q0.7 0 1.3-0.3 0.6-0.3 0.9-0.9 0.3-0.7 0.3-1.5 0-0.8-0.3-1.4-0.3-0.6-0.9-0.9-0.6-0.3-1.3-0.3-0.7 0-1.3 0.3-0.6 0.3-0.9 0.9-0.3 0.6-0.3 1.4 0 0.8 0.3 1.5 0.3 0.6 0.9 0.9 0.6 0.3 1.3 0.3zm12.3 0.7v-5.9h-3.3v1.3q-0.1 0.8-0.1 1.5-0.1 0.6-0.2 1.2-0.2 0.6-0.5 0.9-0.2 0.4-0.7 0.5l-2-0.3q0.5 0 0.8-0.3 0.3-0.3 0.5-0.9 0.2-0.5 0.2-1.2 0.1-0.7 0.1-1.5l0.2-2.9h7v7.6zm-7.1 2.8v-3.6h10.4v3.6h-1.9v-1.9h-6.6v1.9zm15.9-1.8q-1.3 0-2.3-0.5-1-0.6-1.6-1.6-0.6-1-0.6-2.3 0-1.3 0.6-2.2 0.6-1 1.6-1.6 1-0.5 2.3-0.5 1.3 0 2.4 0.5 1 0.6 1.6 1.6 0.6 0.9 0.6 2.2 0 1.3-0.6 2.3-0.6 1-1.6 1.6-1.1 0.5-2.4 0.5zm0-1.7q0.7 0 1.3-0.3 0.6-0.3 0.9-0.9 0.4-0.7 0.4-1.5 0-0.8-0.4-1.4-0.3-0.6-0.9-0.9-0.6-0.3-1.3-0.3-0.7 0-1.3 0.3-0.5 0.3-0.9 0.9-0.3 0.6-0.3 1.4 0 0.8 0.3 1.5 0.4 0.6 0.9 0.9 0.6 0.3 1.3 0.3zm6.5 1.6v-8.5h4.2q1.6 0 2.5 0.5 0.9 0.6 0.9 1.7 0 1-0.9 1.6-0.8 0.6-2.2 0.6l0.3-0.5q1.5 0 2.3 0.6 0.7 0.5 0.7 1.6 0 1.1-0.8 1.8-0.9 0.6-2.6 0.6zm1.9-1.5h2.3q0.8 0 1.2-0.2 0.4-0.3 0.4-0.8 0-0.6-0.3-0.9-0.4-0.2-1.2-0.2h-2.4zm0-3.6h2.1q0.8 0 1.2-0.2 0.4-0.3 0.4-0.8 0-0.6-0.4-0.8-0.4-0.3-1.2-0.3h-2.1zm7.5 1.4v-1.7h4.4v1.7zm-69.2 28.8q-0.6 0-1.2-0.2-0.7-0.2-1.1-0.6l0.8-1.4q0.3 0.2 0.7 0.4 0.4 0.1 0.8 0.1 0.5 0 0.9-0.2 0.3-0.3 0.6-0.9l0.5-1.2 0.2-0.2 3.2-7.5h1.9l-4 9.2q-0.4 0.9-0.9 1.5-0.5 0.6-1.1 0.8-0.6 0.2-1.3 0.2zm1.8-2.9l-3.9-8.8h2.1l3.1 7.3zm12.4-3.7q-0.7 0.3-1.3 0.5-0.7 0.2-1.5 0.2-1.6 0-2.5-0.7-0.9-0.8-0.9-2.4v-2.7h2v2.6q0 0.8 0.5 1.2 0.5 0.4 1.4 0.4 0.5 0 1.1-0.1 0.6-0.2 1.2-0.4zm-0.2 3.3v-8.5h2v8.5zm9.9 0v-1.7l-0.1-0.4v-3q0-0.9-0.6-1.3-0.5-0.5-1.6-0.5-0.7 0-1.4 0.2-0.7 0.2-1.1 0.6l-0.8-1.4q0.7-0.6 1.6-0.8 1-0.3 2-0.3 1.8 0 2.9 0.9 1 0.9 1 2.7v5zm-2.7 0.1q-1 0-1.7-0.3-0.7-0.3-1.1-0.9-0.4-0.6-0.4-1.3 0-0.7 0.3-1.3 0.4-0.6 1.2-0.9 0.8-0.4 2.1-0.4h2.4v1.4h-2.3q-1 0-1.4 0.3-0.3 0.3-0.3 0.8 0 0.6 0.4 0.9 0.4 0.3 1.2 0.3 0.7 0 1.3-0.3 0.6-0.4 0.9-1l0.3 1.2q-0.3 0.7-1 1.1-0.8 0.4-1.9 0.4zm10.9 0q-1.3 0-2.4-0.5-1-0.6-1.6-1.6-0.6-1-0.6-2.2 0-1.3 0.6-2.3 0.6-1 1.6-1.5 1.1-0.6 2.4-0.6 1.3 0 2.2 0.5 1 0.5 1.5 1.5l-1.6 0.9q-0.3-0.6-0.9-0.9-0.6-0.3-1.2-0.3-0.7 0-1.3 0.3-0.6 0.3-0.9 0.9-0.4 0.6-0.4 1.5 0 0.8 0.4 1.4 0.3 0.6 0.9 0.9 0.6 0.3 1.3 0.3 0.6 0 1.2-0.3 0.6-0.2 0.9-0.8l1.6 0.8q-0.5 1-1.5 1.5-0.9 0.5-2.2 0.5zm7.1-0.1v-7.3l0.5 0.5h-3.5v-1.7h8v1.7h-3.4l0.4-0.5v7.3zm6.5 0v-8.5h2v3.5h4.3v-3.5h2v8.5h-2v-3.3h-4.3v3.3zm11 0v-8.5h2v5.6l4.7-5.6h1.8v8.5h-2v-5.6l-4.7 5.6zm17.4 0l-3.1-4.1 1.6-1 3.8 5.1zm-6.1 0v-8.5h2v8.5zm1.4-3.4v-1.7h2.9v1.7zm3.5-0.6l-1.9-0.2 3.1-4.3h2.2zm8.5 4.1q-1.3 0-2.3-0.5-1-0.6-1.6-1.6-0.6-1-0.6-2.2 0-1.3 0.6-2.3 0.6-1 1.6-1.6 1-0.5 2.3-0.5 1.4 0 2.4 0.5 1 0.6 1.6 1.6 0.6 1 0.6 2.3 0 1.2-0.6 2.2-0.6 1-1.6 1.6-1 0.5-2.4 0.5zm0-1.7q0.8 0 1.3-0.3 0.6-0.3 0.9-0.9 0.4-0.6 0.4-1.4 0-0.9-0.4-1.5-0.3-0.6-0.9-0.9-0.5-0.3-1.3-0.3-0.7 0-1.3 0.3-0.5 0.3-0.9 0.9-0.3 0.6-0.3 1.5 0 0.8 0.3 1.4 0.4 0.6 0.9 0.9 0.6 0.3 1.3 0.3zm6.6 1.6v-8.5h4.1q1.6 0 2.5 0.6 0.9 0.5 0.9 1.6 0 1-0.9 1.6-0.8 0.6-2.2 0.6l0.3-0.5q1.5 0 2.3 0.6 0.7 0.5 0.7 1.6 0 1.2-0.8 1.8-0.9 0.6-2.6 0.6zm1.9-1.4h2.3q0.8 0 1.2-0.3 0.5-0.3 0.5-0.8 0-0.6-0.4-0.9-0.4-0.2-1.2-0.2h-2.4zm0-3.5h2.1q0.8 0 1.2-0.3 0.4-0.3 0.4-0.8 0-0.5-0.4-0.8-0.4-0.3-1.2-0.3h-2.1zm16.3 5.1q-1.3 0-2.4-0.5-1-0.6-1.6-1.6-0.6-1-0.6-2.3 0-1.2 0.6-2.2 0.6-1 1.6-1.6 1.1-0.5 2.4-0.5 1.3 0 2.2 0.5 1 0.5 1.5 1.5l-1.6 0.9q-0.3-0.6-0.9-0.9-0.5-0.3-1.2-0.3-0.7 0-1.3 0.3-0.6 0.3-0.9 0.9-0.4 0.6-0.4 1.4 0 0.9 0.4 1.5 0.3 0.6 0.9 0.9 0.6 0.3 1.3 0.3 0.7 0 1.2-0.3 0.6-0.3 0.9-0.9l1.6 0.9q-0.5 1-1.5 1.5-0.9 0.5-2.2 0.5zm9.1 0q-1.3 0-2.3-0.5-1-0.6-1.6-1.6-0.6-1-0.6-2.3 0-1.2 0.6-2.2 0.6-1 1.6-1.6 1-0.5 2.3-0.5 1.3 0 2.4 0.5 1 0.6 1.6 1.6 0.6 1 0.6 2.2 0 1.3-0.6 2.3-0.6 1-1.6 1.6-1.1 0.5-2.4 0.5zm0-1.7q0.8 0 1.3-0.3 0.6-0.3 0.9-0.9 0.4-0.6 0.4-1.5 0-0.8-0.4-1.4-0.3-0.6-0.9-0.9-0.5-0.3-1.3-0.3-0.7 0-1.3 0.3-0.5 0.3-0.9 0.9-0.3 0.6-0.3 1.4 0 0.9 0.3 1.5 0.4 0.6 0.9 0.9 0.6 0.3 1.3 0.3zm-115.9 23.6v-8.5h4.2q1.6 0 2.5 0.6 0.9 0.5 0.9 1.6 0 1-0.9 1.6-0.8 0.6-2.2 0.6l0.3-0.5q1.5 0 2.3 0.6 0.7 0.5 0.7 1.6 0 1.2-0.8 1.8-0.9 0.6-2.6 0.6zm1.9-1.4h2.3q0.8 0 1.2-0.3 0.4-0.3 0.4-0.8 0-0.6-0.3-0.9-0.4-0.2-1.2-0.2h-2.4zm0-3.5h2.1q0.8 0 1.2-0.3 0.4-0.3 0.4-0.8 0-0.5-0.4-0.8-0.4-0.3-1.2-0.3h-2.1zm11.9 5.1q-1.4 0-2.4-0.5-1-0.6-1.6-1.6-0.6-1-0.6-2.3 0-1.2 0.6-2.2 0.6-1 1.6-1.6 1-0.5 2.4-0.5 1.2 0 2.2 0.5 0.9 0.5 1.4 1.5l-1.5 0.9q-0.4-0.7-0.9-0.9-0.6-0.3-1.2-0.3-0.8 0-1.4 0.3-0.5 0.3-0.9 0.9-0.3 0.6-0.3 1.4 0 0.9 0.3 1.5 0.4 0.6 0.9 0.9 0.6 0.3 1.4 0.3 0.6 0 1.2-0.3 0.5-0.3 0.9-0.9l1.5 0.9q-0.5 1-1.4 1.5-1 0.5-2.2 0.5zm9.3 0q-1.5 0-2.5-0.5-1.1-0.6-1.7-1.6-0.6-1-0.6-2.3 0-1.2 0.6-2.2 0.6-1 1.6-1.6 1-0.5 2.3-0.5 1.2 0 2.2 0.5 1 0.6 1.5 1.6 0.6 0.9 0.6 2.3 0 0.1 0 0.3 0 0.1-0.1 0.3h-7.1v-1.3h6.1l-0.8 0.4q0-0.8-0.3-1.3-0.3-0.6-0.9-0.9-0.5-0.3-1.2-0.3-0.8 0-1.3 0.3-0.6 0.3-0.9 0.9-0.3 0.6-0.3 1.3v0.3q0 0.8 0.3 1.4 0.4 0.6 1 0.9 0.7 0.3 1.5 0.3 0.7 0 1.3-0.2 0.6-0.2 1-0.7l1.1 1.2q-0.6 0.7-1.5 1.1-0.8 0.3-1.9 0.3zm6.2-0.1v-8.5h6.5v1.7h-5l0.5-0.5v7.3zm11.4 0.1q-1.3 0-2.3-0.5-1-0.6-1.6-1.6-0.6-1-0.6-2.3 0-1.2 0.6-2.2 0.6-1 1.6-1.6 1-0.5 2.3-0.5 1.3 0 2.4 0.5 1 0.6 1.6 1.6 0.6 0.9 0.6 2.2 0 1.3-0.6 2.3-0.6 1-1.6 1.6-1.1 0.5-2.4 0.5zm0-1.7q0.8 0 1.3-0.3 0.6-0.3 0.9-0.9 0.4-0.6 0.4-1.5 0-0.8-0.4-1.4-0.3-0.6-0.9-0.9-0.6-0.3-1.3-0.3-0.7 0-1.3 0.3-0.5 0.3-0.9 0.9-0.3 0.6-0.3 1.4 0 0.9 0.3 1.5 0.4 0.6 0.9 0.9 0.6 0.3 1.3 0.3zm11 1.6v-8.5h2.1l3.4 6h-0.8l3.6-6h1.9v8.5h-1.8v-6.4l0.3 0.2-3.2 5.3h-0.9l-3.2-5.4 0.4-0.1v6.4zm12.9 0v-8.5h2v5.6l4.7-5.6h1.8v8.5h-2v-5.6l-4.7 5.6zm16 0.1q-1 0-1.9-0.5-0.9-0.4-1.4-1.4-0.5-1-0.5-2.5 0-1.5 0.5-2.4 0.5-1 1.4-1.4 0.8-0.5 1.9-0.5 1.3 0 2.2 0.5 1 0.6 1.6 1.5 0.5 1 0.5 2.3 0 1.4-0.5 2.4-0.6 0.9-1.6 1.5-0.9 0.5-2.2 0.5zm-4.7 3v-11.6h1.9v2l-0.1 2.3 0.2 2.2v5.1zm4.5-4.7q0.7 0 1.3-0.3 0.5-0.3 0.9-0.9 0.3-0.6 0.3-1.5 0-0.8-0.3-1.4-0.4-0.6-0.9-0.9-0.6-0.3-1.3-0.3-0.7 0-1.3 0.3-0.6 0.3-0.9 0.9-0.4 0.6-0.4 1.4 0 0.9 0.4 1.5 0.3 0.6 0.9 0.9 0.6 0.3 1.3 0.3zm11.6 1.6v-1.7l-0.1-0.4v-3q0-0.9-0.5-1.4-0.6-0.5-1.6-0.5-0.8 0-1.5 0.3-0.7 0.2-1.1 0.6l-0.8-1.5q0.7-0.5 1.6-0.8 1-0.2 2-0.2 1.9 0 2.9 0.9 1 0.9 1 2.7v5zm-2.7 0.1q-1 0-1.7-0.3-0.7-0.3-1.1-0.9-0.4-0.6-0.4-1.3 0-0.8 0.3-1.3 0.4-0.6 1.2-0.9 0.8-0.4 2.1-0.4h2.4v1.4h-2.3q-1 0-1.4 0.3-0.3 0.3-0.3 0.8 0 0.5 0.4 0.9 0.4 0.3 1.2 0.3 0.8 0 1.3-0.4 0.6-0.3 0.9-1l0.3 1.2q-0.3 0.8-1 1.2-0.8 0.4-1.9 0.4z"/></svg>