<svg version="1.2" xmlns="http://www.w3.org/2000/svg" viewBox="0 0 224 224" width="224" height="224"><style>.a{fill:#0c54a0}.b{fill:#fff}</style><path fill-rule="evenodd" class="a" d="m113.1 223.4c-62 0.3-112.2-49.7-112.5-111.8-0.2-62 49.6-112.4 111.6-112.6 61.9-0.3 112.2 49.7 112.4 111.8 0.3 62-49.6 112.4-111.5 112.6z"/><path class="b" d="m59.7 98.4l-0.1-26.9 3 2.9h-8.8l-0.1-5.4 12.7-0.1 0.1 29.5zm24.5 0.4q-3.6 0-6.4-1.8-2.9-1.8-4.5-5.2-1.7-3.4-1.7-8.2 0-4.9 1.6-8.3 1.6-3.4 4.5-5.2 2.8-1.8 6.4-1.8 3.7 0 6.5 1.8 2.9 1.7 4.5 5.1 1.7 3.4 1.7 8.3 0 4.8-1.6 8.2-1.6 3.5-4.5 5.3-2.8 1.8-6.5 1.8zm0-5.8q1.7 0 3-1 1.3-0.9 2-3.1 0.8-2.1 0.7-5.4 0-3.3-0.7-5.4-0.8-2.1-2.1-3.1-1.2-0.9-2.9-0.9-1.7 0-3 0.9-1.3 1-2 3.1-0.7 2.1-0.7 5.5 0 3.3 0.7 5.4 0.8 2.1 2 3 1.3 1 3 1z"/><path class="b" d="m53.8 125.4l0.1-1.6q0.1 0 0.2 0 0.1 0 0.1 0 0.5 0 0.8-0.3 0.3-0.3 0.4-0.8 0.1-0.5 0.2-1.2 0-0.6 0.1-1.3l0.1-3.3h6.9l0.1 8.5h-2l-0.1-7.4 0.5 0.6h-4.1l0.5-0.6-0.1 2.3q-0.1 1.1-0.2 2.1-0.2 1-0.4 1.7-0.3 0.7-0.8 1.1-0.5 0.4-1.2 0.4-0.3 0-0.6 0-0.2-0.1-0.5-0.2zm15.6 0.1q-1.4 0-2.5-0.5-1-0.6-1.6-1.6-0.6-1-0.6-2.3 0-1.2 0.5-2.2 0.6-1 1.6-1.6 1-0.5 2.3-0.6 1.2 0 2.2 0.6 1 0.5 1.6 1.5 0.5 1 0.5 2.4 0 0.1 0 0.2 0 0.2 0 0.3l-7.1 0.1v-1.4h6l-0.7 0.4q0-0.7-0.4-1.3-0.3-0.5-0.8-0.8-0.6-0.4-1.3-0.3-0.7 0-1.3 0.3-0.5 0.3-0.9 0.9-0.3 0.5-0.3 1.3v0.3q0 0.8 0.4 1.4 0.4 0.6 1 0.9 0.6 0.3 1.5 0.3 0.7 0 1.3-0.2 0.5-0.2 1-0.7l1.1 1.2q-0.6 0.7-1.5 1.1-0.8 0.3-2 0.3zm7.7-0.1v-7.4l0.4 0.5h-3.5v-1.7h8v1.7h-3.4l0.5-0.5v7.4zm11.6 3.1q-0.6 0-1.2-0.2-0.6-0.2-1.1-0.5l0.8-1.5q0.3 0.3 0.7 0.4 0.4 0.2 0.8 0.2 0.5 0 0.9-0.3 0.3-0.3 0.6-0.9l0.5-1.1 0.2-0.3 3.2-7.6h1.9l-4 9.3q-0.4 1-0.9 1.5-0.5 0.6-1.1 0.8-0.6 0.2-1.3 0.2zm1.8-2.9l-3.9-8.8h2.1l3.1 7.3zm10.6-0.2q-1.3 0-2.4-0.6-1-0.5-1.6-1.5-0.6-1-0.6-2.3 0-1.3 0.5-2.2 0.6-1 1.7-1.6 1-0.6 2.4-0.6 1.2 0 2.2 0.5 0.9 0.5 1.4 1.5l-1.5 0.9q-0.4-0.6-1-0.9-0.5-0.3-1.1-0.3-0.8 0-1.4 0.4-0.6 0.3-0.9 0.9-0.3 0.6-0.3 1.4 0 0.9 0.3 1.5 0.4 0.6 1 0.9 0.5 0.3 1.3 0.3 0.6 0 1.2-0.3 0.5-0.3 0.9-0.9l1.5 0.9q-0.4 0.9-1.4 1.5-0.9 0.5-2.2 0.5zm5.4-0.1v-8.6h8.2v8.5h-2v-7.3l0.5 0.5h-5.2l0.5-0.5v7.4zm14.9 0q-1.4 0-2.5-0.5-1.1-0.6-1.7-1.6-0.5-1-0.5-2.3-0.1-1.2 0.5-2.2 0.6-1 1.6-1.6 1-0.5 2.3-0.6 1.2 0 2.2 0.6 1 0.5 1.5 1.5 0.6 1 0.6 2.4 0 0.1 0 0.2 0 0.2 0 0.3l-7.2 0.1v-1.4h6.1l-0.8 0.4q0-0.7-0.3-1.3-0.3-0.5-0.9-0.8-0.5-0.4-1.2-0.4-0.8 0.1-1.3 0.4-0.6 0.3-0.9 0.9-0.3 0.5-0.3 1.3v0.3q0 0.8 0.4 1.4 0.3 0.6 1 0.9 0.6 0.3 1.4 0.3 0.8 0 1.3-0.2 0.6-0.2 1-0.7l1.1 1.2q-0.5 0.7-1.4 1.1-0.9 0.3-2 0.3zm11.9-1.8l-0.4 0.4v-7.3h2v7.3l-0.5-0.5h4.2l-0.4 0.5v-7.3h2v8.5l-12.6 0.1v-8.6h2v7.3l-0.5-0.4zm9.6 1.6l-0.1-8.5h2v3.4h4.4l-0.1-3.5h2l0.1 8.6h-2v-3.4h-4.3v3.4zm19.6-0.1l-0.1-8.5h2l0.1 8.5zm-4.5-5.7q1.6 0 2.5 0.7 0.9 0.8 0.9 2.1 0 1.4-1 2.2-0.9 0.8-2.7 0.8h-3.8l-0.1-8.6h2v2.8zm-0.4 4.3q0.9 0 1.3-0.4 0.5-0.4 0.5-1.1 0-0.7-0.5-1.1-0.4-0.3-1.3-0.3h-1.7v2.9zm8.3 1.4l3.8-4.9v1.1l-3.6-4.8h2.2l2.5 3.4h-0.8l2.5-3.4h2.1l-3.6 4.8v-1.1l3.8 4.9h-2.2l-2.7-3.6 0.8 0.1-2.5 3.5zm-105.4 22.6q0 0-0.1 0-0.1 0-0.2 0-0.1 0-0.2 0-2.7 0-4.2-1.1-1.5-1.2-1.5-3.3 0-2.1 1.5-3.3 1.5-1.1 4.2-1.1 0.1 0 0.2 0 0.1 0 0.2 0 0.1 0 0.1 0 2.8 0 4.3 1.1 1.6 1.1 1.6 3.2 0 2.2-1.6 3.3-1.5 1.2-4.3 1.2zm-0.1-1.6q1.4-0.1 2.3-0.4 0.9-0.3 1.3-0.9 0.4-0.6 0.4-1.6 0-0.9-0.4-1.5-0.5-0.6-1.3-0.9-0.9-0.3-2.3-0.2 0 0-0.1 0-0.1 0-0.2 0-1.3 0-2.2 0.3-0.8 0.3-1.2 0.9-0.4 0.6-0.4 1.5 0 0.9 0.4 1.5 0.4 0.6 1.3 0.9 0.8 0.3 2.1 0.4 0.1 0 0.2 0 0.1 0 0.1 0zm-1 4.6v-15h1.9v15zm12.9-3.1q-1.4 0-2.5-0.5-1.1-0.6-1.7-1.6-0.5-1-0.5-2.3 0-1.2 0.5-2.2 0.6-1 1.6-1.6 1-0.5 2.3-0.6 1.2 0 2.2 0.6 1 0.5 1.5 1.5 0.6 1 0.6 2.4 0 0.1 0 0.2 0 0.2 0 0.4h-7.2v-1.4h6.1l-0.8 0.4q0-0.7-0.3-1.3-0.3-0.5-0.9-0.8-0.5-0.3-1.2-0.3-0.8 0-1.3 0.3-0.6 0.3-0.9 0.9-0.3 0.5-0.3 1.3v0.3q0 0.8 0.4 1.4 0.3 0.6 1 0.9 0.6 0.3 1.4 0.3 0.8 0 1.3-0.2 0.6-0.2 1.1-0.7l1 1.2q-0.5 0.7-1.4 1.1-0.9 0.3-2 0.3zm10.1 0q-1.4 0-2.4-0.6-1.1-0.5-1.6-1.5-0.6-1-0.6-2.3-0.1-1.3 0.5-2.3 0.6-1 1.7-1.5 1-0.6 2.4-0.6 1.2 0 2.2 0.5 0.9 0.5 1.4 1.5l-1.5 0.9q-0.4-0.6-1-0.9-0.5-0.3-1.2-0.3-0.7 0-1.3 0.3-0.6 0.4-0.9 1-0.3 0.6-0.3 1.4 0 0.8 0.3 1.4 0.3 0.6 0.9 0.9 0.6 0.4 1.4 0.4 0.6 0 1.2-0.3 0.5-0.3 0.9-0.9l1.5 0.9q-0.5 0.9-1.4 1.5-1 0.5-2.2 0.5zm7.1-0.2v-7.3l0.5 0.5h-3.5v-1.7h8v1.7h-3.5l0.5-0.5v7.3zm6.5 0l-0.1-8.6h2v5.7l4.7-5.7h1.9v8.6h-2v-5.7l-4.7 5.7zm11.2 0v-8.6h4.2q1.5 0 2.4 0.5 0.9 0.6 0.9 1.7 0 1-0.8 1.6-0.8 0.6-2.2 0.6l0.2-0.5q1.6 0 2.3 0.6 0.8 0.5 0.8 1.6 0 1.2-0.8 1.8-0.9 0.6-2.6 0.6zm1.9-1.4h2.3q0.8 0 1.2-0.3 0.4-0.3 0.4-0.8 0-0.6-0.4-0.9-0.4-0.2-1.2-0.2h-2.3zm0-3.6h2.1q0.7 0 1.1-0.2 0.4-0.3 0.4-0.8 0-0.6-0.4-0.8-0.4-0.3-1.2-0.3h-2.1zm13.3 5l-0.1-1.8-0.1-0.3v-3.1q0-0.8-0.5-1.3-0.5-0.5-1.6-0.5-0.7 0-1.4 0.2-0.7 0.2-1.2 0.6l-0.8-1.4q0.7-0.5 1.6-0.8 1-0.3 2-0.3 1.9 0 2.9 0.9 1 0.9 1 2.7v5.1zm-2.6 0.1q-1 0-1.7-0.3-0.7-0.4-1.1-0.9-0.4-0.6-0.4-1.4 0-0.7 0.3-1.3 0.3-0.6 1.1-0.9 0.8-0.3 2.1-0.3h2.5v1.3h-2.3q-1.1 0-1.4 0.3-0.4 0.4-0.4 0.8 0 0.6 0.5 0.9 0.4 0.3 1.2 0.3 0.7 0 1.3-0.3 0.6-0.4 0.8-1l0.4 1.2q-0.3 0.7-1.1 1.2-0.7 0.4-1.8 0.4zm5.8-0.2v-1.7q0.2 0.1 0.3 0.1 0.1 0 0.1 0 0.5 0 0.8-0.3 0.3-0.3 0.4-0.8 0.1-0.6 0.2-1.2 0-0.7 0.1-1.3l0.1-3.3 6.9-0.1 0.1 8.6h-2l-0.1-7.4 0.5 0.6h-4.1l0.5-0.6-0.1 2.3q-0.1 1.1-0.2 2.1-0.2 0.9-0.4 1.7-0.3 0.7-0.8 1.1-0.5 0.4-1.2 0.4-0.3 0-0.6 0-0.2-0.1-0.5-0.2zm15.6 0.1q-1.4 0-2.5-0.6-1-0.5-1.6-1.5-0.6-1-0.6-2.3 0-1.3 0.5-2.2 0.6-1 1.6-1.6 1-0.6 2.3-0.6 1.2 0 2.2 0.6 1 0.5 1.6 1.5 0.5 1 0.5 2.3 0 0.2 0 0.3 0 0.2 0 0.3l-7.1 0.1v-1.4h6l-0.7 0.4q0-0.7-0.4-1.3-0.3-0.5-0.8-0.9-0.6-0.3-1.3-0.3-0.7 0-1.3 0.4-0.5 0.3-0.9 0.9-0.3 0.5-0.3 1.3v0.3q0 0.8 0.4 1.4 0.4 0.6 1 0.9 0.6 0.3 1.5 0.3 0.7 0 1.3-0.2 0.5-0.3 1-0.7l1.1 1.2q-0.6 0.7-1.5 1-0.9 0.4-2 0.4zm6.2-0.1v-8.6h2v5.6l4.7-5.6h1.8l0.1 8.5h-2v-5.6l-4.7 5.6zm4.1-9.5q-1.3 0-2-0.6-0.7-0.6-0.7-1.8h1.3q0 0.6 0.4 0.9 0.3 0.4 1 0.4 0.6 0 0.9-0.4 0.4-0.3 0.4-0.9h1.4q-0.1 1.1-0.8 1.8-0.6 0.6-1.9 0.6z"/></svg>