<svg width="60" height="60" viewBox="0 0 60 60" fill="none" xmlns="http://www.w3.org/2000/svg">
<circle cx="30" cy="30" r="30" fill="#0C54A0" fill-opacity="0.1"/>
<path d="M28.2334 21.9333H31.1666C31.2638 21.9333 31.3571 21.8946 31.4258 21.8259C31.4946 21.7571 31.5332 21.6638 31.5332 21.5666C31.5332 21.4694 31.4946 21.3761 31.4258 21.3073C31.3571 21.2386 31.2638 21.2 31.1666 21.2H28.2334C28.1361 21.2 28.0428 21.2386 27.9741 21.3073C27.9053 21.3761 27.8667 21.4694 27.8667 21.5666C27.8667 21.6638 27.9053 21.7571 27.9741 21.8259C28.0428 21.8946 28.1361 21.9333 28.2334 21.9333Z" fill="#0A1124"/>
<path d="M28.2334 29.2663H31.1666C31.2638 29.2663 31.3571 29.2276 31.4258 29.1589C31.4946 29.0901 31.5332 28.9969 31.5332 28.8996C31.5332 28.8024 31.4946 28.7091 31.4258 28.6403C31.3571 28.5716 31.2638 28.533 31.1666 28.533H28.2334C28.1361 28.533 28.0428 28.5716 27.9741 28.6403C27.9053 28.7091 27.8667 28.8024 27.8667 28.8996C27.8667 28.9969 27.9053 29.0901 27.9741 29.1589C28.0428 29.2276 28.1361 29.2663 28.2334 29.2663Z" fill="#0A1124"/>
<path d="M25.2998 33.666H34.0994C34.1966 33.666 34.2899 33.6274 34.3587 33.5587C34.4274 33.4899 34.466 33.3966 34.466 33.2994C34.466 33.2021 34.4274 33.1089 34.3587 33.0401C34.2899 32.9714 34.1966 32.9327 34.0994 32.9327H25.2998C25.2025 32.9327 25.1093 32.9714 25.0405 33.0401C24.9717 33.1089 24.9331 33.2021 24.9331 33.2994C24.9331 33.3966 24.9717 33.4899 25.0405 33.5587C25.1093 33.6274 25.2025 33.666 25.2998 33.666Z" fill="#0A1124"/>
<path d="M25.2998 32.1995H34.0994C34.1966 32.1995 34.2899 32.1609 34.3587 32.0921C34.4274 32.0233 34.466 31.9301 34.466 31.8328C34.466 31.7356 34.4274 31.6423 34.3587 31.5736C34.2899 31.5048 34.1966 31.4662 34.0994 31.4662H25.2998C25.2025 31.4662 25.1093 31.5048 25.0405 31.5736C24.9717 31.6423 24.9331 31.7356 24.9331 31.8328C24.9331 31.9301 24.9717 32.0233 25.0405 32.0921C25.1093 32.1609 25.2025 32.1995 25.2998 32.1995Z" fill="#0A1124"/>
<path d="M32.6328 34.3993H25.2998C25.2025 34.3993 25.1093 34.4379 25.0405 34.5067C24.9717 34.5754 24.9331 34.6687 24.9331 34.7659C24.9331 34.8632 24.9717 34.9564 25.0405 35.0252C25.1093 35.094 25.2025 35.1326 25.2998 35.1326H32.6328C32.73 35.1326 32.8233 35.094 32.892 35.0252C32.9608 34.9564 32.9994 34.8632 32.9994 34.7659C32.9994 34.6687 32.9608 34.5754 32.892 34.5067C32.8233 34.4379 32.73 34.3993 32.6328 34.3993Z" fill="#0A1124"/>
<path d="M32.6328 35.866H25.2998C25.2025 35.866 25.1093 35.9046 25.0405 35.9734C24.9717 36.0421 24.9331 36.1354 24.9331 36.2326C24.9331 36.3299 24.9717 36.4231 25.0405 36.4919C25.1093 36.5606 25.2025 36.5993 25.2998 36.5993H32.6328C32.73 36.5993 32.8233 36.5606 32.892 36.4919C32.9608 36.4231 32.9994 36.3299 32.9994 36.2326C32.9994 36.1354 32.9608 36.0421 32.892 35.9734C32.8233 35.9046 32.73 35.866 32.6328 35.866Z" fill="#0A1124"/>
<path d="M32.6333 29.2663H32.9999C33.0971 29.2663 33.1904 29.2276 33.2592 29.1589C33.3279 29.0901 33.3666 28.9969 33.3666 28.8996C33.3666 28.8024 33.3279 28.7091 33.2592 28.6403C33.1904 28.5716 33.0971 28.533 32.9999 28.533H32.6333C32.536 28.533 32.4428 28.5716 32.374 28.6403C32.3052 28.7091 32.2666 28.8024 32.2666 28.8996C32.2666 28.9969 32.3052 29.0901 32.374 29.1589C32.4428 29.2276 32.536 29.2663 32.6333 29.2663Z" fill="#0A1124"/>
<path d="M26.3999 29.2663H26.7665C26.8637 29.2663 26.957 29.2276 27.0258 29.1589C27.0945 29.0901 27.1332 28.9969 27.1332 28.8996C27.1332 28.8024 27.0945 28.7091 27.0258 28.6403C26.957 28.5716 26.8637 28.533 26.7665 28.533H26.3999C26.3026 28.533 26.2094 28.5716 26.1406 28.6403C26.0718 28.7091 26.0332 28.8024 26.0332 28.8996C26.0332 28.9969 26.0718 29.0901 26.1406 29.1589C26.2094 29.2276 26.3026 29.2663 26.3999 29.2663Z" fill="#0A1124"/>
<path d="M32.6333 21.9333H32.9999C33.0971 21.9333 33.1904 21.8946 33.2592 21.8259C33.3279 21.7571 33.3666 21.6638 33.3666 21.5666C33.3666 21.4694 33.3279 21.3761 33.2592 21.3073C33.1904 21.2386 33.0971 21.2 32.9999 21.2H32.6333C32.536 21.2 32.4428 21.2386 32.374 21.3073C32.3052 21.3761 32.2666 21.4694 32.2666 21.5666C32.2666 21.6638 32.3052 21.7571 32.374 21.8259C32.4428 21.8946 32.536 21.9333 32.6333 21.9333Z" fill="#0A1124"/>
<path d="M26.3999 21.9333H26.7665C26.8637 21.9333 26.957 21.8946 27.0258 21.8259C27.0945 21.7571 27.1332 21.6638 27.1332 21.5666C27.1332 21.4694 27.0945 21.3761 27.0258 21.3073C26.957 21.2386 26.8637 21.2 26.7665 21.2H26.3999C26.3026 21.2 26.2094 21.2386 26.1406 21.3073C26.0718 21.3761 26.0332 21.4694 26.0332 21.5666C26.0332 21.6638 26.0718 21.7571 26.1406 21.8259C26.2094 21.8946 26.3026 21.9333 26.3999 21.9333Z" fill="#0A1124"/>
<path d="M37.3994 33.6844V27.0663H39.9659C40.0632 27.0663 40.1564 27.0277 40.2252 26.9589C40.2939 26.8902 40.3326 26.7969 40.3326 26.6997V20.8333C40.3326 20.5925 40.2852 20.3541 40.193 20.1317C40.1009 19.9093 39.9659 19.7072 39.7956 19.5369C39.6254 19.3667 39.4233 19.2317 39.2009 19.1395C38.9785 19.0474 38.7401 19 38.4993 19H23.8333C23.3471 19 22.8808 19.1931 22.537 19.5369C22.1931 19.8808 22 20.347 22 20.8333V40.6324C21.9997 40.705 22.0213 40.7759 22.0618 40.8361C22.1023 40.8962 22.16 40.9428 22.2273 40.9698C22.2708 40.9903 22.3186 41.0004 22.3667 40.9991C22.4641 40.9994 22.5576 40.9612 22.627 40.8928L23.8333 39.6828L25.0395 40.8928C25.1088 40.9615 25.2023 41 25.2999 41C25.3974 41 25.491 40.9615 25.5602 40.8928L26.7665 39.6828L27.9728 40.8928C28.042 40.9615 28.1356 41 28.2331 41C28.3306 41 28.4242 40.9615 28.4934 40.8928L29.6997 39.6828L30.906 40.8928C30.9752 40.9615 31.0688 41 31.1663 41C31.2638 41 31.3574 40.9615 31.4266 40.8928L32.6329 39.6828L33.8392 40.8928C33.9084 40.9615 34.002 41 34.0995 41C34.197 41 34.2906 40.9615 34.3598 40.8928L34.9245 40.3281C35.383 40.6519 35.9097 40.8662 36.4641 40.9543C37.0184 41.0424 37.5856 41.002 38.1219 40.8364C38.6582 40.6707 39.1493 40.384 39.5574 39.9986C39.9654 39.6131 40.2795 39.1391 40.4755 38.6131C40.6714 38.0871 40.744 37.5231 40.6876 36.9647C40.6312 36.4062 40.4473 35.8681 40.1501 35.3919C39.8529 34.9157 39.4503 34.5142 38.9734 34.2181C38.4965 33.9221 37.958 33.7395 37.3994 33.6844ZM37.3994 20.8333C37.3994 20.5415 37.5153 20.2618 37.7215 20.0555C37.9278 19.8492 38.2076 19.7333 38.4993 19.7333C38.791 19.7333 39.0708 19.8492 39.2771 20.0555C39.4834 20.2618 39.5993 20.5415 39.5993 20.8333V26.333H37.3994V20.8333ZM34.0995 40.1155L32.8932 38.9055C32.824 38.8368 32.7304 38.7983 32.6329 38.7983C32.5354 38.7983 32.4418 38.8368 32.3726 38.9055L31.1663 40.1155L29.96 38.9055C29.8908 38.8368 29.7972 38.7983 29.6997 38.7983C29.6022 38.7983 29.5086 38.8368 29.4394 38.9055L28.2331 40.1155L27.0268 38.9055C26.9576 38.8368 26.864 38.7983 26.7665 38.7983C26.6689 38.7983 26.5754 38.8368 26.5062 38.9055L25.2999 40.1155L24.0936 38.9055C24.0244 38.8368 23.9308 38.7983 23.8333 38.7983C23.7357 38.7983 23.6422 38.8368 23.5729 38.9055L22.7333 39.7488V20.8333C22.7342 20.5418 22.8503 20.2625 23.0564 20.0564C23.2625 19.8503 23.5418 19.7342 23.8333 19.7333H37.0437C36.8 20.0483 36.6672 20.435 36.6661 20.8333V33.6844C35.9844 33.7516 35.3353 34.0087 34.7927 34.4266C34.25 34.8444 33.8355 35.4062 33.5963 36.048C33.3572 36.6899 33.303 37.3859 33.4399 38.057C33.5768 38.7281 33.8994 39.3473 34.3708 39.8441L34.0995 40.1155ZM37.0327 40.2658C36.4526 40.2658 35.8855 40.0938 35.4031 39.7715C34.9207 39.4491 34.5448 38.991 34.3228 38.4551C34.1008 37.9191 34.0427 37.3293 34.1559 36.7603C34.269 36.1913 34.5484 35.6687 34.9586 35.2585C35.3688 34.8483 35.8915 34.5689 36.4605 34.4557C37.0295 34.3425 37.6192 34.4006 38.1552 34.6226C38.6912 34.8446 39.1493 35.2206 39.4716 35.703C39.7939 36.1853 39.9659 36.7524 39.9659 37.3326C39.9649 38.1102 39.6555 38.8556 39.1056 39.4055C38.5558 39.9553 37.8103 40.2647 37.0327 40.2658Z" fill="#0A1124"/>
<path d="M38.9994 36.0992C38.9306 36.0304 38.8374 35.9918 38.7402 35.9918C38.6429 35.9918 38.5497 36.0304 38.4809 36.0992L36.666 37.9141L35.888 37.1361C35.8188 37.0693 35.7262 37.0323 35.6301 37.0332C35.5339 37.034 35.442 37.0725 35.374 37.1405C35.306 37.2085 35.2675 37.3005 35.2666 37.3966C35.2658 37.4927 35.3027 37.5854 35.3695 37.6545L36.4068 38.6918C36.4755 38.7605 36.5688 38.7991 36.666 38.7991C36.7632 38.7991 36.8565 38.7605 36.9252 38.6918L38.9994 36.6176C39.0681 36.5489 39.1067 36.4556 39.1067 36.3584C39.1067 36.2612 39.0681 36.1679 38.9994 36.0992Z" fill="#0A1124"/>
<path d="M17.3438 24.8125C17.2194 24.8125 17.1002 24.8619 17.0123 24.9498C16.9244 25.0377 16.875 25.1569 16.875 25.2812V26.2188C16.875 26.3431 16.9244 26.4623 17.0123 26.5502C17.1002 26.6381 17.2194 26.6875 17.3438 26.6875C17.4681 26.6875 17.5873 26.6381 17.6752 26.5502C17.7631 26.4623 17.8125 26.3431 17.8125 26.2188V25.2812C17.8125 25.1569 17.7631 25.0377 17.6752 24.9498C17.5873 24.8619 17.4681 24.8125 17.3438 24.8125Z" fill="#0A1124"/>
<path d="M17.3438 23.875C17.4681 23.875 17.5873 23.8256 17.6752 23.7377C17.7631 23.6498 17.8125 23.5306 17.8125 23.4062V22.4688C17.8125 22.3444 17.7631 22.2252 17.6752 22.1373C17.5873 22.0494 17.4681 22 17.3438 22C17.2194 22 17.1002 22.0494 17.0123 22.1373C16.9244 22.2252 16.875 22.3444 16.875 22.4688V23.4062C16.875 23.5306 16.9244 23.6498 17.0123 23.7377C17.1002 23.8256 17.2194 23.875 17.3438 23.875Z" fill="#0A1124"/>
<path d="M15.4688 24.8125H16.4062C16.5306 24.8125 16.6498 24.7631 16.7377 24.6752C16.8256 24.5873 16.875 24.4681 16.875 24.3438C16.875 24.2194 16.8256 24.1002 16.7377 24.0123C16.6498 23.9244 16.5306 23.875 16.4062 23.875H15.4688C15.3444 23.875 15.2252 23.9244 15.1373 24.0123C15.0494 24.1002 15 24.2194 15 24.3438C15 24.4681 15.0494 24.5873 15.1373 24.6752C15.2252 24.7631 15.3444 24.8125 15.4688 24.8125Z" fill="#0A1124"/>
<path d="M18.2812 24.8125H19.2188C19.3431 24.8125 19.4623 24.7631 19.5502 24.6752C19.6381 24.5873 19.6875 24.4681 19.6875 24.3438C19.6875 24.2194 19.6381 24.1002 19.5502 24.0123C19.4623 23.9244 19.3431 23.875 19.2188 23.875H18.2812C18.1569 23.875 18.0377 23.9244 17.9498 24.0123C17.8619 24.1002 17.8125 24.2194 17.8125 24.3438C17.8125 24.4681 17.8619 24.5873 17.9498 24.6752C18.0377 24.7631 18.1569 24.8125 18.2812 24.8125Z" fill="#0A1124"/>
<path d="M42.3438 30.8125C42.2194 30.8125 42.1002 30.8619 42.0123 30.9498C41.9244 31.0377 41.875 31.1569 41.875 31.2812V32.2188C41.875 32.3431 41.9244 32.4623 42.0123 32.5502C42.1002 32.6381 42.2194 32.6875 42.3438 32.6875C42.4681 32.6875 42.5873 32.6381 42.6752 32.5502C42.7631 32.4623 42.8125 32.3431 42.8125 32.2188V31.2812C42.8125 31.1569 42.7631 31.0377 42.6752 30.9498C42.5873 30.8619 42.4681 30.8125 42.3438 30.8125Z" fill="#0A1124"/>
<path d="M42.3438 29.875C42.4681 29.875 42.5873 29.8256 42.6752 29.7377C42.7631 29.6498 42.8125 29.5306 42.8125 29.4062V28.4688C42.8125 28.3444 42.7631 28.2252 42.6752 28.1373C42.5873 28.0494 42.4681 28 42.3438 28C42.2194 28 42.1002 28.0494 42.0123 28.1373C41.9244 28.2252 41.875 28.3444 41.875 28.4688V29.4062C41.875 29.5306 41.9244 29.6498 42.0123 29.7377C42.1002 29.8256 42.2194 29.875 42.3438 29.875Z" fill="#0A1124"/>
<path d="M40.4688 30.8125H41.4062C41.5306 30.8125 41.6498 30.7631 41.7377 30.6752C41.8256 30.5873 41.875 30.4681 41.875 30.3438C41.875 30.2194 41.8256 30.1002 41.7377 30.0123C41.6498 29.9244 41.5306 29.875 41.4062 29.875H40.4688C40.3444 29.875 40.2252 29.9244 40.1373 30.0123C40.0494 30.1002 40 30.2194 40 30.3438C40 30.4681 40.0494 30.5873 40.1373 30.6752C40.2252 30.7631 40.3444 30.8125 40.4688 30.8125Z" fill="#0A1124"/>
<path d="M43.2812 30.8125H44.2188C44.3431 30.8125 44.4623 30.7631 44.5502 30.6752C44.6381 30.5873 44.6875 30.4681 44.6875 30.3438C44.6875 30.2194 44.6381 30.1002 44.5502 30.0123C44.4623 29.9244 44.3431 29.875 44.2188 29.875H43.2812C43.1569 29.875 43.0377 29.9244 42.9498 30.0123C42.8619 30.1002 42.8125 30.2194 42.8125 30.3438C42.8125 30.4681 42.8619 30.5873 42.9498 30.6752C43.0377 30.7631 43.1569 30.8125 43.2812 30.8125Z" fill="#0A1124"/>
</svg>
