<svg width="60" height="60" viewBox="0 0 60 60" fill="none" xmlns="http://www.w3.org/2000/svg">
<circle cx="30" cy="30" r="30" fill="#E30613"/>
<path d="M40.3607 30.018L39.5008 29.5215L40.3192 28.104C40.3774 28.0033 40.3931 27.8837 40.363 27.7714C40.3465 27.7098 40.3166 27.6535 40.2766 27.6053L40.8585 26.5976C41.0126 26.3306 41.0536 26.0197 40.9738 25.7219C40.894 25.4242 40.7031 25.1754 40.4362 25.0212V25.0213L39.6925 24.5919C39.1414 24.2739 38.4344 24.4633 38.1163 25.0143L37.6691 25.7888V18.557C37.6691 17.1471 36.5221 16 35.1121 16H33.9436H25.7255H24.557C23.1471 16 22 17.1471 22 18.557V41.3844C22 42.7944 23.1471 43.9414 24.557 43.9414H35.1121C36.5221 43.9414 37.6691 42.7944 37.6691 41.3844V32.6941L39.0625 30.2807L39.9223 30.7771C39.9864 30.8141 40.0085 30.8964 39.9715 30.9605L38.5046 33.5013C38.3835 33.7109 38.4553 33.9789 38.665 34.1C38.734 34.1398 38.8093 34.1588 38.8837 34.1588C39.0351 34.1588 39.1825 34.0802 39.2637 33.9396L40.7306 31.3988C41.0093 30.9161 40.8433 30.2967 40.3607 30.018ZM37.6212 27.0524L39.341 28.0453L38.7417 29.0833L37.0219 28.0904L37.6212 27.0524ZM38.8754 25.4526C38.9519 25.3202 39.1218 25.2747 39.2542 25.351L39.9979 25.7804V25.7805C40.062 25.8175 40.1079 25.8772 40.1271 25.9488C40.1462 26.0203 40.1364 26.0951 40.0994 26.1592L39.5314 27.143L38.9194 26.7897L38.3074 26.4363L38.8754 25.4526ZM33.29 16.8766L32.8846 17.8648C32.8169 18.03 32.6577 18.1367 32.4791 18.1367H27.19C27.0114 18.1367 26.8522 18.03 26.7845 17.8648L26.3791 16.8766H33.29ZM36.7925 41.3844C36.7925 42.311 36.0387 43.0648 35.1121 43.0648H24.557C23.6305 43.0648 22.8766 42.311 22.8766 41.3844V18.557C22.8766 17.6305 23.6305 16.8766 24.557 16.8766H25.4316L25.9735 18.1975C26.1768 18.6931 26.6543 19.0133 27.19 19.0133H32.4791C33.0148 19.0133 33.4923 18.6931 33.6956 18.1975L34.2375 16.8766H35.1121C36.0387 16.8766 36.7925 17.6305 36.7925 18.557V26.7347L36.2628 27.6521L36.0227 27.5135C35.813 27.3923 35.545 27.4642 35.4239 27.6739C35.3029 27.8835 35.3747 28.1515 35.5844 28.2726L35.8245 28.4113L31.9642 35.0975C31.8029 35.3769 31.7313 35.6945 31.7572 36.0159L31.8972 37.7596C31.9027 37.8277 31.9187 37.8934 31.9422 37.9559C31.9337 37.968 31.925 37.9798 31.9176 37.9929L31.5399 38.6669L30.9459 37.7297C30.8219 37.5339 30.6088 37.4183 30.3779 37.4243C30.1462 37.4288 29.9385 37.5511 29.8221 37.7515L29.4488 38.3943L28.3263 35.8606C28.1799 35.5301 27.8508 35.3252 27.4908 35.3398C27.1297 35.3538 26.8185 35.5831 26.6982 35.9239L24.9835 40.7823C24.9029 41.0105 25.0227 41.2609 25.2509 41.3414C25.2992 41.3584 25.3484 41.3665 25.3968 41.3665C25.5774 41.3665 25.7465 41.254 25.8101 41.074L27.525 36.2161L28.8214 39.1423C28.9221 39.3695 29.1387 39.519 29.3868 39.5325C29.6345 39.546 29.8664 39.4209 29.991 39.2062L30.3988 38.504L30.9962 39.4465C31.1214 39.644 31.3365 39.7597 31.5693 39.7516C31.8029 39.7453 32.0107 39.6198 32.1249 39.4159L32.6816 38.4226C32.7667 38.4153 32.851 38.3937 32.9303 38.356L34.5104 37.6055C34.8017 37.4671 35.0409 37.2463 35.2022 36.967L36.7925 34.2124V41.3844ZM34.1343 36.8136L32.7534 37.4696L32.631 35.9457C32.6194 35.8022 32.6514 35.6605 32.7234 35.5358L32.8627 35.2946L34.5824 36.2874L34.4431 36.5287C34.3711 36.6533 34.2643 36.7519 34.1343 36.8136ZM35.0206 35.5283L33.3009 34.5354L36.5837 28.8495L38.3034 29.8424L35.0206 35.5283Z" fill="white"/>
<path d="M34.0532 40.4899H27.5335C27.2915 40.4899 27.0952 40.6861 27.0952 40.9282C27.0952 41.1702 27.2915 41.3665 27.5335 41.3665H34.0532C34.2952 41.3665 34.4915 41.1702 34.4915 40.9282C34.4915 40.6861 34.2952 40.4899 34.0532 40.4899Z" fill="white"/>
<path d="M26.1639 23.4511H33.5053C33.7474 23.4511 33.9436 23.2548 33.9436 23.0128C33.9436 22.7707 33.7474 22.5745 33.5053 22.5745H26.1639C25.9218 22.5745 25.7256 22.7707 25.7256 23.0128C25.7256 23.2548 25.9218 23.4511 26.1639 23.4511Z" fill="white"/>
<path d="M25.3968 25.889H34.2723C34.5143 25.889 34.7106 25.6928 34.7106 25.4507C34.7106 25.2087 34.5143 25.0125 34.2723 25.0125H25.3968C25.1547 25.0125 24.9585 25.2087 24.9585 25.4507C24.9585 25.6928 25.1547 25.889 25.3968 25.889Z" fill="white"/>
<path d="M32.4645 27.4504H27.2049C26.9629 27.4504 26.7666 27.6467 26.7666 27.8887C26.7666 28.1308 26.9629 28.327 27.2049 28.327H32.4645C32.7065 28.327 32.9028 28.1308 32.9028 27.8887C32.9028 27.6467 32.7065 27.4504 32.4645 27.4504Z" fill="white"/>
<path d="M17.3438 29.8125C17.2194 29.8125 17.1002 29.8619 17.0123 29.9498C16.9244 30.0377 16.875 30.1569 16.875 30.2812V31.2188C16.875 31.3431 16.9244 31.4623 17.0123 31.5502C17.1002 31.6381 17.2194 31.6875 17.3438 31.6875C17.4681 31.6875 17.5873 31.6381 17.6752 31.5502C17.7631 31.4623 17.8125 31.3431 17.8125 31.2188V30.2812C17.8125 30.1569 17.7631 30.0377 17.6752 29.9498C17.5873 29.8619 17.4681 29.8125 17.3438 29.8125Z" fill="white"/>
<path d="M17.3438 28.875C17.4681 28.875 17.5873 28.8256 17.6752 28.7377C17.7631 28.6498 17.8125 28.5306 17.8125 28.4062V27.4688C17.8125 27.3444 17.7631 27.2252 17.6752 27.1373C17.5873 27.0494 17.4681 27 17.3438 27C17.2194 27 17.1002 27.0494 17.0123 27.1373C16.9244 27.2252 16.875 27.3444 16.875 27.4688V28.4062C16.875 28.5306 16.9244 28.6498 17.0123 28.7377C17.1002 28.8256 17.2194 28.875 17.3438 28.875Z" fill="white"/>
<path d="M15.4688 29.8125H16.4062C16.5306 29.8125 16.6498 29.7631 16.7377 29.6752C16.8256 29.5873 16.875 29.4681 16.875 29.3438C16.875 29.2194 16.8256 29.1002 16.7377 29.0123C16.6498 28.9244 16.5306 28.875 16.4062 28.875H15.4688C15.3444 28.875 15.2252 28.9244 15.1373 29.0123C15.0494 29.1002 15 29.2194 15 29.3438C15 29.4681 15.0494 29.5873 15.1373 29.6752C15.2252 29.7631 15.3444 29.8125 15.4688 29.8125Z" fill="white"/>
<path d="M18.2812 29.8125H19.2188C19.3431 29.8125 19.4623 29.7631 19.5502 29.6752C19.6381 29.5873 19.6875 29.4681 19.6875 29.3438C19.6875 29.2194 19.6381 29.1002 19.5502 29.0123C19.4623 28.9244 19.3431 28.875 19.2188 28.875H18.2812C18.1569 28.875 18.0377 28.9244 17.9498 29.0123C17.8619 29.1002 17.8125 29.2194 17.8125 29.3438C17.8125 29.4681 17.8619 29.5873 17.9498 29.6752C18.0377 29.7631 18.1569 29.8125 18.2812 29.8125Z" fill="white"/>
<path d="M42.3438 17.8125C42.2194 17.8125 42.1002 17.8619 42.0123 17.9498C41.9244 18.0377 41.875 18.1569 41.875 18.2812V19.2188C41.875 19.3431 41.9244 19.4623 42.0123 19.5502C42.1002 19.6381 42.2194 19.6875 42.3438 19.6875C42.4681 19.6875 42.5873 19.6381 42.6752 19.5502C42.7631 19.4623 42.8125 19.3431 42.8125 19.2188V18.2812C42.8125 18.1569 42.7631 18.0377 42.6752 17.9498C42.5873 17.8619 42.4681 17.8125 42.3438 17.8125Z" fill="white"/>
<path d="M42.3438 16.875C42.4681 16.875 42.5873 16.8256 42.6752 16.7377C42.7631 16.6498 42.8125 16.5306 42.8125 16.4062V15.4688C42.8125 15.3444 42.7631 15.2252 42.6752 15.1373C42.5873 15.0494 42.4681 15 42.3438 15C42.2194 15 42.1002 15.0494 42.0123 15.1373C41.9244 15.2252 41.875 15.3444 41.875 15.4688V16.4062C41.875 16.5306 41.9244 16.6498 42.0123 16.7377C42.1002 16.8256 42.2194 16.875 42.3438 16.875Z" fill="white"/>
<path d="M40.4688 17.8125H41.4062C41.5306 17.8125 41.6498 17.7631 41.7377 17.6752C41.8256 17.5873 41.875 17.4681 41.875 17.3438C41.875 17.2194 41.8256 17.1002 41.7377 17.0123C41.6498 16.9244 41.5306 16.875 41.4062 16.875H40.4688C40.3444 16.875 40.2252 16.9244 40.1373 17.0123C40.0494 17.1002 40 17.2194 40 17.3438C40 17.4681 40.0494 17.5873 40.1373 17.6752C40.2252 17.7631 40.3444 17.8125 40.4688 17.8125Z" fill="white"/>
<path d="M43.2812 17.8125H44.2188C44.3431 17.8125 44.4623 17.7631 44.5502 17.6752C44.6381 17.5873 44.6875 17.4681 44.6875 17.3438C44.6875 17.2194 44.6381 17.1002 44.5502 17.0123C44.4623 16.9244 44.3431 16.875 44.2188 16.875H43.2812C43.1569 16.875 43.0377 16.9244 42.9498 17.0123C42.8619 17.1002 42.8125 17.2194 42.8125 17.3438C42.8125 17.4681 42.8619 17.5873 42.9498 17.6752C43.0377 17.7631 43.1569 17.8125 43.2812 17.8125Z" fill="white"/>
</svg>
