<svg width="60" height="60" viewBox="0 0 60 60" fill="none" xmlns="http://www.w3.org/2000/svg">
<circle cx="30" cy="30" r="30" fill="#E30613" fill-opacity="0.1"/>
<path d="M33.7085 40.3031C32.2689 40.3015 30.8886 39.7288 29.8706 38.7108C28.8526 37.6928 28.28 36.3126 28.2783 34.8729V32.3667C28.2783 32.2559 28.3223 32.1497 28.4007 32.0713C28.479 31.993 28.5852 31.949 28.696 31.949H38.721C38.8318 31.949 38.9381 31.993 39.0164 32.0713C39.0947 32.1497 39.1387 32.2559 39.1387 32.3667V34.8729C39.1371 36.3126 38.5644 37.6928 37.5464 38.7108C36.5284 39.7288 35.1482 40.3015 33.7085 40.3031ZM29.1137 32.7844V34.8729C29.1137 36.0915 29.5978 37.2603 30.4595 38.1219C31.3212 38.9836 32.4899 39.4677 33.7085 39.4677C34.9271 39.4677 36.0958 38.9836 36.9575 38.1219C37.8192 37.2603 38.3033 36.0915 38.3033 34.8729V32.7844H29.1137Z" fill="#0A1124"/>
<path d="M39.1384 37.7969H38.303C38.1922 37.7969 38.0859 37.7529 38.0076 37.6746C37.9293 37.5962 37.8853 37.49 37.8853 37.3792C37.8853 37.2684 37.9293 37.1622 38.0076 37.0839C38.0859 37.0055 38.1922 36.9615 38.303 36.9615H39.1384C39.6921 36.9608 40.2229 36.7406 40.6145 36.3491C41.006 35.9575 41.2263 35.4267 41.2269 34.873V34.0375C41.2269 33.9268 41.1829 33.8205 41.1046 33.7422C41.0262 33.6638 40.92 33.6198 40.8092 33.6198H38.7207C38.6099 33.6198 38.5036 33.5758 38.4253 33.4975C38.347 33.4192 38.303 33.3129 38.303 33.2021C38.303 33.0913 38.347 32.9851 38.4253 32.9068C38.5036 32.8284 38.6099 32.7844 38.7207 32.7844H40.8092C41.1416 32.7844 41.4603 32.9164 41.6953 33.1515C41.9303 33.3865 42.0623 33.7052 42.0623 34.0375V34.873C42.0615 35.6482 41.7531 36.3914 41.205 36.9395C40.6568 37.4877 39.9136 37.796 39.1384 37.7969Z" fill="#0A1124"/>
<path d="M38.721 40.3032H28.696C28.5852 40.3032 28.479 40.2592 28.4007 40.1808C28.3223 40.1025 28.2783 39.9963 28.2783 39.8855C28.2783 39.7747 28.3223 39.6685 28.4007 39.5901C28.479 39.5118 28.5852 39.4678 28.696 39.4678H38.721C38.8318 39.4678 38.9381 39.5118 39.0164 39.5901C39.0947 39.6685 39.1387 39.7747 39.1387 39.8855C39.1387 39.9963 39.0947 40.1025 39.0164 40.1808C38.9381 40.2592 38.8318 40.3032 38.721 40.3032Z" fill="#0A1124"/>
<path d="M32.0376 31.5312C31.962 31.5312 31.8878 31.5106 31.823 31.4717C31.7582 31.4328 31.7052 31.3771 31.6695 31.3104C31.6339 31.2437 31.617 31.1687 31.6207 31.0932C31.6244 31.0177 31.6485 30.9446 31.6905 30.8817C31.8821 30.5755 31.9837 30.2216 31.9837 29.8604C31.9837 29.4992 31.8821 29.1453 31.6905 28.8391C30.8793 27.6227 31.3697 26.5964 31.7427 26.2234C31.8214 26.1488 31.9262 26.1077 32.0347 26.1089C32.1432 26.1101 32.2469 26.1535 32.324 26.2299C32.4011 26.3062 32.4454 26.4096 32.4476 26.5181C32.4498 26.6266 32.4097 26.7317 32.3358 26.8111C32.2736 26.8775 31.7723 27.4565 32.3851 28.3759C32.668 28.8195 32.8182 29.3347 32.8182 29.8608C32.8182 30.3869 32.668 30.9021 32.3851 31.3458C32.3469 31.4029 32.2952 31.4497 32.2346 31.482C32.174 31.5144 32.1063 31.5313 32.0376 31.5312Z" fill="#0A1124"/>
<path d="M35.3792 31.5312C35.2957 31.5312 35.2141 31.5062 35.145 31.4595C35.0758 31.4127 35.0223 31.3462 34.9913 31.2687C34.9603 31.1912 34.9532 31.1062 34.9709 31.0246C34.9887 30.9431 35.0305 30.8687 35.0909 30.8111C35.2311 30.6686 35.3167 30.4815 35.3328 30.2823C35.3259 30.1933 35.3009 30.1066 35.2593 30.0276C35.2178 29.9485 35.1604 29.8789 35.0909 29.8228C34.9277 29.6907 34.7978 29.5222 34.7117 29.3307C34.6256 29.1392 34.5856 28.9302 34.5951 28.7205C34.6203 28.5422 34.6832 28.3713 34.7797 28.2193C34.8763 28.0673 35.0042 27.9377 35.1548 27.8391C35.248 27.7791 35.3612 27.7586 35.4695 27.7821C35.5778 27.8055 35.6723 27.871 35.7323 27.9642C35.7923 28.0574 35.8128 28.1706 35.7894 28.2789C35.7659 28.3872 35.7004 28.4817 35.6072 28.5417C35.5158 28.6032 35.4512 28.6971 35.4264 28.8044C35.4363 28.8862 35.4629 28.965 35.5043 29.0362C35.5457 29.1074 35.6012 29.1693 35.6674 29.2184C35.8209 29.3521 35.9447 29.5164 36.031 29.7007C36.1173 29.8851 36.1642 30.0855 36.1686 30.289C36.1502 30.7148 35.9711 31.1178 35.6674 31.4168C35.5895 31.4905 35.4864 31.5315 35.3792 31.5312Z" fill="#0A1124"/>
<path d="M25.3542 35.7083C23.7019 35.7083 22.0867 35.2184 20.7128 34.3004C19.339 33.3824 18.2682 32.0777 17.6359 30.5512C17.0036 29.0246 16.8382 27.3449 17.1605 25.7244C17.4829 24.1038 18.2785 22.6152 19.4469 21.4469C20.6152 20.2785 22.1038 19.4829 23.7244 19.1605C25.3449 18.8382 27.0246 19.0036 28.5512 19.6359C30.0777 20.2682 31.3824 21.339 32.3004 22.7128C33.2184 24.0867 33.7083 25.7019 33.7083 27.3542C33.7083 27.465 33.6643 27.5712 33.586 27.6495C33.5077 27.7279 33.4014 27.7719 33.2906 27.7719C33.1798 27.7719 33.0736 27.7279 32.9953 27.6495C32.9169 27.5712 32.8729 27.465 32.8729 27.3542C32.8713 25.784 32.3775 24.2538 31.4612 22.9788C30.5448 21.7037 29.2519 20.7479 27.7642 20.2458C26.2765 19.7436 24.6688 19.7203 23.1671 20.1792C21.6655 20.6381 20.3454 21.556 19.3925 22.804C18.4396 24.052 17.9018 25.5672 17.8547 27.1367C17.8076 28.7062 18.2535 30.2509 19.1298 31.5538C20.0061 32.8567 21.2687 33.8522 22.7401 34.4004C24.2115 34.9485 25.8177 35.0218 27.3329 34.6098C27.4398 34.5806 27.5539 34.5952 27.6501 34.6501C27.7463 34.7051 27.8167 34.7961 27.8458 34.903C27.8749 35.0099 27.8604 35.124 27.8054 35.2202C27.7504 35.3164 27.6595 35.3868 27.5526 35.4159C26.836 35.6105 26.0967 35.7089 25.3542 35.7083Z" fill="#0A1124"/>
<path d="M25.3541 27.7718C25.2715 27.7718 25.1908 27.7473 25.1221 27.7014C25.0534 27.6555 24.9999 27.5902 24.9683 27.5139C24.9367 27.4376 24.9284 27.3536 24.9445 27.2726C24.9607 27.1916 25.0004 27.1172 25.0588 27.0588L28.8182 23.2994C28.897 23.2233 29.0025 23.1812 29.112 23.1821C29.2215 23.1831 29.3263 23.227 29.4037 23.3045C29.4812 23.3819 29.5251 23.4867 29.5261 23.5962C29.527 23.7057 29.4849 23.8112 29.4088 23.89L25.6495 27.6494C25.5711 27.7277 25.4649 27.7718 25.3541 27.7718Z" fill="#0A1124"/>
<path d="M25.3541 27.7719C25.2434 27.7718 25.1371 27.7278 25.0588 27.6495L22.9703 25.5609C22.8942 25.4821 22.8521 25.3766 22.853 25.2671C22.854 25.1576 22.8979 25.0528 22.9754 24.9754C23.0528 24.8979 23.1576 24.854 23.2671 24.853C23.3766 24.8521 23.4821 24.8942 23.5609 24.9703L25.6495 27.0588C25.7079 27.1172 25.7476 27.1917 25.7637 27.2727C25.7799 27.3537 25.7716 27.4377 25.74 27.514C25.7084 27.5903 25.6548 27.6555 25.5862 27.7014C25.5175 27.7473 25.4367 27.7718 25.3541 27.7719Z" fill="#0A1124"/>
<path d="M25.3542 21.5063C25.2434 21.5063 25.1372 21.4623 25.0589 21.384C24.9805 21.3056 24.9365 21.1994 24.9365 21.0886V20.6709C24.9365 20.5601 24.9805 20.4539 25.0589 20.3755C25.1372 20.2972 25.2434 20.2532 25.3542 20.2532C25.465 20.2532 25.5713 20.2972 25.6496 20.3755C25.7279 20.4539 25.7719 20.5601 25.7719 20.6709V21.0886C25.7719 21.1994 25.7279 21.3056 25.6496 21.384C25.5713 21.4623 25.465 21.5063 25.3542 21.5063Z" fill="#0A1124"/>
<path d="M19.0883 27.7719H18.6706C18.5599 27.7719 18.4536 27.7279 18.3753 27.6496C18.2969 27.5713 18.2529 27.465 18.2529 27.3542C18.2529 27.2434 18.2969 27.1372 18.3753 27.0589C18.4536 26.9805 18.5599 26.9365 18.6706 26.9365H19.0883C19.1991 26.9365 19.3054 26.9805 19.3837 27.0589C19.462 27.1372 19.5061 27.2434 19.5061 27.3542C19.5061 27.465 19.462 27.5713 19.3837 27.6496C19.3054 27.7279 19.1991 27.7719 19.0883 27.7719Z" fill="#0A1124"/>
<path d="M25.3542 34.4553C25.2434 34.4553 25.1372 34.4113 25.0589 34.3329C24.9805 34.2546 24.9365 34.1483 24.9365 34.0376V33.6199C24.9365 33.5091 24.9805 33.4028 25.0589 33.3245C25.1372 33.2462 25.2434 33.2021 25.3542 33.2021C25.465 33.2021 25.5713 33.2462 25.6496 33.3245C25.7279 33.4028 25.7719 33.5091 25.7719 33.6199V34.0376C25.7719 34.1483 25.7279 34.2546 25.6496 34.3329C25.5713 34.4113 25.465 34.4553 25.3542 34.4553Z" fill="#0A1124"/>
<path d="M41.3438 26.8125C41.2194 26.8125 41.1002 26.8619 41.0123 26.9498C40.9244 27.0377 40.875 27.1569 40.875 27.2812V28.2188C40.875 28.3431 40.9244 28.4623 41.0123 28.5502C41.1002 28.6381 41.2194 28.6875 41.3438 28.6875C41.4681 28.6875 41.5873 28.6381 41.6752 28.5502C41.7631 28.4623 41.8125 28.3431 41.8125 28.2188V27.2812C41.8125 27.1569 41.7631 27.0377 41.6752 26.9498C41.5873 26.8619 41.4681 26.8125 41.3438 26.8125Z" fill="#0A1124"/>
<path d="M41.3438 25.875C41.4681 25.875 41.5873 25.8256 41.6752 25.7377C41.7631 25.6498 41.8125 25.5306 41.8125 25.4062V24.4688C41.8125 24.3444 41.7631 24.2252 41.6752 24.1373C41.5873 24.0494 41.4681 24 41.3438 24C41.2194 24 41.1002 24.0494 41.0123 24.1373C40.9244 24.2252 40.875 24.3444 40.875 24.4688V25.4062C40.875 25.5306 40.9244 25.6498 41.0123 25.7377C41.1002 25.8256 41.2194 25.875 41.3438 25.875Z" fill="#0A1124"/>
<path d="M39.4688 26.8125H40.4062C40.5306 26.8125 40.6498 26.7631 40.7377 26.6752C40.8256 26.5873 40.875 26.4681 40.875 26.3438C40.875 26.2194 40.8256 26.1002 40.7377 26.0123C40.6498 25.9244 40.5306 25.875 40.4062 25.875H39.4688C39.3444 25.875 39.2252 25.9244 39.1373 26.0123C39.0494 26.1002 39 26.2194 39 26.3438C39 26.4681 39.0494 26.5873 39.1373 26.6752C39.2252 26.7631 39.3444 26.8125 39.4688 26.8125Z" fill="#0A1124"/>
<path d="M42.2812 26.8125H43.2188C43.3431 26.8125 43.4623 26.7631 43.5502 26.6752C43.6381 26.5873 43.6875 26.4681 43.6875 26.3438C43.6875 26.2194 43.6381 26.1002 43.5502 26.0123C43.4623 25.9244 43.3431 25.875 43.2188 25.875H42.2812C42.1569 25.875 42.0377 25.9244 41.9498 26.0123C41.8619 26.1002 41.8125 26.2194 41.8125 26.3438C41.8125 26.4681 41.8619 26.5873 41.9498 26.6752C42.0377 26.7631 42.1569 26.8125 42.2812 26.8125Z" fill="#0A1124"/>
<path d="M22.3438 39.8125C22.2194 39.8125 22.1002 39.8619 22.0123 39.9498C21.9244 40.0377 21.875 40.1569 21.875 40.2812V41.2188C21.875 41.3431 21.9244 41.4623 22.0123 41.5502C22.1002 41.6381 22.2194 41.6875 22.3438 41.6875C22.4681 41.6875 22.5873 41.6381 22.6752 41.5502C22.7631 41.4623 22.8125 41.3431 22.8125 41.2188V40.2812C22.8125 40.1569 22.7631 40.0377 22.6752 39.9498C22.5873 39.8619 22.4681 39.8125 22.3438 39.8125Z" fill="#0A1124"/>
<path d="M22.3438 38.875C22.4681 38.875 22.5873 38.8256 22.6752 38.7377C22.7631 38.6498 22.8125 38.5306 22.8125 38.4062V37.4688C22.8125 37.3444 22.7631 37.2252 22.6752 37.1373C22.5873 37.0494 22.4681 37 22.3438 37C22.2194 37 22.1002 37.0494 22.0123 37.1373C21.9244 37.2252 21.875 37.3444 21.875 37.4688V38.4062C21.875 38.5306 21.9244 38.6498 22.0123 38.7377C22.1002 38.8256 22.2194 38.875 22.3438 38.875Z" fill="#0A1124"/>
<path d="M20.4688 39.8125H21.4062C21.5306 39.8125 21.6498 39.7631 21.7377 39.6752C21.8256 39.5873 21.875 39.4681 21.875 39.3438C21.875 39.2194 21.8256 39.1002 21.7377 39.0123C21.6498 38.9244 21.5306 38.875 21.4062 38.875H20.4688C20.3444 38.875 20.2252 38.9244 20.1373 39.0123C20.0494 39.1002 20 39.2194 20 39.3438C20 39.4681 20.0494 39.5873 20.1373 39.6752C20.2252 39.7631 20.3444 39.8125 20.4688 39.8125Z" fill="#0A1124"/>
<path d="M23.2812 39.8125H24.2188C24.3431 39.8125 24.4623 39.7631 24.5502 39.6752C24.6381 39.5873 24.6875 39.4681 24.6875 39.3438C24.6875 39.2194 24.6381 39.1002 24.5502 39.0123C24.4623 38.9244 24.3431 38.875 24.2188 38.875H23.2812C23.1569 38.875 23.0377 38.9244 22.9498 39.0123C22.8619 39.1002 22.8125 39.2194 22.8125 39.3438C22.8125 39.4681 22.8619 39.5873 22.9498 39.6752C23.0377 39.7631 23.1569 39.8125 23.2812 39.8125Z" fill="#0A1124"/>
<path d="M35.3438 18.8125C35.2194 18.8125 35.1002 18.8619 35.0123 18.9498C34.9244 19.0377 34.875 19.1569 34.875 19.2812V20.2188C34.875 20.3431 34.9244 20.4623 35.0123 20.5502C35.1002 20.6381 35.2194 20.6875 35.3438 20.6875C35.4681 20.6875 35.5873 20.6381 35.6752 20.5502C35.7631 20.4623 35.8125 20.3431 35.8125 20.2188V19.2812C35.8125 19.1569 35.7631 19.0377 35.6752 18.9498C35.5873 18.8619 35.4681 18.8125 35.3438 18.8125Z" fill="#0A1124"/>
<path d="M35.3438 17.875C35.4681 17.875 35.5873 17.8256 35.6752 17.7377C35.7631 17.6498 35.8125 17.5306 35.8125 17.4062V16.4688C35.8125 16.3444 35.7631 16.2252 35.6752 16.1373C35.5873 16.0494 35.4681 16 35.3438 16C35.2194 16 35.1002 16.0494 35.0123 16.1373C34.9244 16.2252 34.875 16.3444 34.875 16.4688V17.4062C34.875 17.5306 34.9244 17.6498 35.0123 17.7377C35.1002 17.8256 35.2194 17.875 35.3438 17.875Z" fill="#0A1124"/>
<path d="M33.4688 18.8125H34.4062C34.5306 18.8125 34.6498 18.7631 34.7377 18.6752C34.8256 18.5873 34.875 18.4681 34.875 18.3438C34.875 18.2194 34.8256 18.1002 34.7377 18.0123C34.6498 17.9244 34.5306 17.875 34.4062 17.875H33.4688C33.3444 17.875 33.2252 17.9244 33.1373 18.0123C33.0494 18.1002 33 18.2194 33 18.3438C33 18.4681 33.0494 18.5873 33.1373 18.6752C33.2252 18.7631 33.3444 18.8125 33.4688 18.8125Z" fill="#0A1124"/>
<path d="M36.2812 18.8125H37.2188C37.3431 18.8125 37.4623 18.7631 37.5502 18.6752C37.6381 18.5873 37.6875 18.4681 37.6875 18.3438C37.6875 18.2194 37.6381 18.1002 37.5502 18.0123C37.4623 17.9244 37.3431 17.875 37.2188 17.875H36.2812C36.1569 17.875 36.0377 17.9244 35.9498 18.0123C35.8619 18.1002 35.8125 18.2194 35.8125 18.3438C35.8125 18.4681 35.8619 18.5873 35.9498 18.6752C36.0377 18.7631 36.1569 18.8125 36.2812 18.8125Z" fill="#0A1124"/>
</svg>
