<svg width="60" height="60" viewBox="0 0 60 60" fill="none" xmlns="http://www.w3.org/2000/svg">
<circle cx="30" cy="30" r="30" fill="#0C54A0" fill-opacity="0.1"/>
<g clip-path="url(#clip0_7463_7)">
<path d="M34 34.0505V29.5C34 28.673 33.327 28 32.5 28H18.5C17.673 28 17 28.673 17 29.5V34.0505C15.8605 34.283 15 35.293 15 36.5V39.5V44.5C15 44.776 15.224 45 15.5 45H17.5C17.776 45 18 44.776 18 44.5V43H33V44.5C33 44.776 33.224 45 33.5 45H35.5C35.776 45 36 44.776 36 44.5V39.5V36.5C36 35.293 35.1395 34.283 34 34.0505ZM18 29.5C18 29.2245 18.2245 29 18.5 29H32.5C32.7755 29 33 29.2245 33 29.5V34H32V32C32 31.173 31.327 30.5 30.5 30.5H27.5C26.673 30.5 26 31.173 26 32V34H25V32C25 31.173 24.327 30.5 23.5 30.5H20.5C19.673 30.5 19 31.173 19 32V34H18V29.5ZM31 32V34H27V32C27 31.7245 27.2245 31.5 27.5 31.5H30.5C30.7755 31.5 31 31.7245 31 32ZM24 32V34H20V32C20 31.7245 20.2245 31.5 20.5 31.5H23.5C23.7755 31.5 24 31.7245 24 32ZM35 44H34V42.5C34 42.224 33.776 42 33.5 42H17.5C17.224 42 17 42.224 17 42.5V44H16V40H35V44ZM35 39H16V36.5C16 35.673 16.673 35 17.5 35H19.5H24.5H26.5H31.5H33.5C34.327 35 35 35.673 35 36.5V39Z" fill="#0A1124"/>
<path d="M44.5 34H37.5C37.224 34 37 34.224 37 34.5V38.5V42H38V39H44V42H45V38.5V34.5C45 34.224 44.776 34 44.5 34ZM44 38H38V35H44V38Z" fill="#0A1124"/>
<path d="M42 36H40V37H42V36Z" fill="#0A1124"/>
<path d="M43.4747 29.8415L42.4747 26.8415C42.4062 26.6375 42.2157 26.5 42.0002 26.5H40.0002C39.7847 26.5 39.5942 26.6375 39.5257 26.842L38.5257 29.842C38.4747 29.9945 38.5007 30.162 38.5947 30.2925C38.6887 30.423 38.8397 30.5 39.0002 30.5H40.5002V32H39.5002V33H42.5002V32H41.5002V30.5H43.0002C43.1607 30.5 43.3117 30.423 43.4057 30.292C43.4997 30.1615 43.5252 29.994 43.4747 29.8415ZM39.6937 29.5L40.3607 27.5H41.6402L42.3067 29.5H39.6937Z" fill="#0A1124"/>
<path d="M30.3438 22.8125C30.2194 22.8125 30.1002 22.8619 30.0123 22.9498C29.9244 23.0377 29.875 23.1569 29.875 23.2812V24.2188C29.875 24.3431 29.9244 24.4623 30.0123 24.5502C30.1002 24.6381 30.2194 24.6875 30.3438 24.6875C30.4681 24.6875 30.5873 24.6381 30.6752 24.5502C30.7631 24.4623 30.8125 24.3431 30.8125 24.2188V23.2812C30.8125 23.1569 30.7631 23.0377 30.6752 22.9498C30.5873 22.8619 30.4681 22.8125 30.3438 22.8125Z" fill="#0A1124"/>
<path d="M30.3438 21.875C30.4681 21.875 30.5873 21.8256 30.6752 21.7377C30.7631 21.6498 30.8125 21.5306 30.8125 21.4062V20.4688C30.8125 20.3444 30.7631 20.2252 30.6752 20.1373C30.5873 20.0494 30.4681 20 30.3438 20C30.2194 20 30.1002 20.0494 30.0123 20.1373C29.9244 20.2252 29.875 20.3444 29.875 20.4688V21.4062C29.875 21.5306 29.9244 21.6498 30.0123 21.7377C30.1002 21.8256 30.2194 21.875 30.3438 21.875Z" fill="#0A1124"/>
<path d="M28.4688 22.8125H29.4062C29.5306 22.8125 29.6498 22.7631 29.7377 22.6752C29.8256 22.5873 29.875 22.4681 29.875 22.3438C29.875 22.2194 29.8256 22.1002 29.7377 22.0123C29.6498 21.9244 29.5306 21.875 29.4062 21.875H28.4688C28.3444 21.875 28.2252 21.9244 28.1373 22.0123C28.0494 22.1002 28 22.2194 28 22.3438C28 22.4681 28.0494 22.5873 28.1373 22.6752C28.2252 22.7631 28.3444 22.8125 28.4688 22.8125Z" fill="#0A1124"/>
<path d="M31.2812 22.8125H32.2188C32.3431 22.8125 32.4623 22.7631 32.5502 22.6752C32.6381 22.5873 32.6875 22.4681 32.6875 22.3438C32.6875 22.2194 32.6381 22.1002 32.5502 22.0123C32.4623 21.9244 32.3431 21.875 32.2188 21.875H31.2812C31.1569 21.875 31.0377 21.9244 30.9498 22.0123C30.8619 22.1002 30.8125 22.2194 30.8125 22.3438C30.8125 22.4681 30.8619 22.5873 30.9498 22.6752C31.0377 22.7631 31.1569 22.8125 31.2812 22.8125Z" fill="#0A1124"/>
<path d="M42.3438 18.8125C42.2194 18.8125 42.1002 18.8619 42.0123 18.9498C41.9244 19.0377 41.875 19.1569 41.875 19.2812V20.2188C41.875 20.3431 41.9244 20.4623 42.0123 20.5502C42.1002 20.6381 42.2194 20.6875 42.3438 20.6875C42.4681 20.6875 42.5873 20.6381 42.6752 20.5502C42.7631 20.4623 42.8125 20.3431 42.8125 20.2188V19.2812C42.8125 19.1569 42.7631 19.0377 42.6752 18.9498C42.5873 18.8619 42.4681 18.8125 42.3438 18.8125Z" fill="#0A1124"/>
<path d="M42.3438 17.875C42.4681 17.875 42.5873 17.8256 42.6752 17.7377C42.7631 17.6498 42.8125 17.5306 42.8125 17.4062V16.4688C42.8125 16.3444 42.7631 16.2252 42.6752 16.1373C42.5873 16.0494 42.4681 16 42.3438 16C42.2194 16 42.1002 16.0494 42.0123 16.1373C41.9244 16.2252 41.875 16.3444 41.875 16.4688V17.4062C41.875 17.5306 41.9244 17.6498 42.0123 17.7377C42.1002 17.8256 42.2194 17.875 42.3438 17.875Z" fill="#0A1124"/>
<path d="M40.4688 18.8125H41.4062C41.5306 18.8125 41.6498 18.7631 41.7377 18.6752C41.8256 18.5873 41.875 18.4681 41.875 18.3438C41.875 18.2194 41.8256 18.1002 41.7377 18.0123C41.6498 17.9244 41.5306 17.875 41.4062 17.875H40.4688C40.3444 17.875 40.2252 17.9244 40.1373 18.0123C40.0494 18.1002 40 18.2194 40 18.3438C40 18.4681 40.0494 18.5873 40.1373 18.6752C40.2252 18.7631 40.3444 18.8125 40.4688 18.8125Z" fill="#0A1124"/>
<path d="M43.2812 18.8125H44.2188C44.3431 18.8125 44.4623 18.7631 44.5502 18.6752C44.6381 18.5873 44.6875 18.4681 44.6875 18.3438C44.6875 18.2194 44.6381 18.1002 44.5502 18.0123C44.4623 17.9244 44.3431 17.875 44.2188 17.875H43.2812C43.1569 17.875 43.0377 17.9244 42.9498 18.0123C42.8619 18.1002 42.8125 18.2194 42.8125 18.3438C42.8125 18.4681 42.8619 18.5873 42.9498 18.6752C43.0377 18.7631 43.1569 18.8125 43.2812 18.8125Z" fill="#0A1124"/>
<path d="M18.3438 17.8125C18.2194 17.8125 18.1002 17.8619 18.0123 17.9498C17.9244 18.0377 17.875 18.1569 17.875 18.2812V19.2188C17.875 19.3431 17.9244 19.4623 18.0123 19.5502C18.1002 19.6381 18.2194 19.6875 18.3438 19.6875C18.4681 19.6875 18.5873 19.6381 18.6752 19.5502C18.7631 19.4623 18.8125 19.3431 18.8125 19.2188V18.2812C18.8125 18.1569 18.7631 18.0377 18.6752 17.9498C18.5873 17.8619 18.4681 17.8125 18.3438 17.8125Z" fill="#0A1124"/>
<path d="M18.3438 16.875C18.4681 16.875 18.5873 16.8256 18.6752 16.7377C18.7631 16.6498 18.8125 16.5306 18.8125 16.4062V15.4688C18.8125 15.3444 18.7631 15.2252 18.6752 15.1373C18.5873 15.0494 18.4681 15 18.3438 15C18.2194 15 18.1002 15.0494 18.0123 15.1373C17.9244 15.2252 17.875 15.3444 17.875 15.4688V16.4062C17.875 16.5306 17.9244 16.6498 18.0123 16.7377C18.1002 16.8256 18.2194 16.875 18.3438 16.875Z" fill="#0A1124"/>
<path d="M16.4688 17.8125H17.4062C17.5306 17.8125 17.6498 17.7631 17.7377 17.6752C17.8256 17.5873 17.875 17.4681 17.875 17.3438C17.875 17.2194 17.8256 17.1002 17.7377 17.0123C17.6498 16.9244 17.5306 16.875 17.4062 16.875H16.4688C16.3444 16.875 16.2252 16.9244 16.1373 17.0123C16.0494 17.1002 16 17.2194 16 17.3438C16 17.4681 16.0494 17.5873 16.1373 17.6752C16.2252 17.7631 16.3444 17.8125 16.4688 17.8125Z" fill="#0A1124"/>
<path d="M19.2812 17.8125H20.2188C20.3431 17.8125 20.4623 17.7631 20.5502 17.6752C20.6381 17.5873 20.6875 17.4681 20.6875 17.3438C20.6875 17.2194 20.6381 17.1002 20.5502 17.0123C20.4623 16.9244 20.3431 16.875 20.2188 16.875H19.2812C19.1569 16.875 19.0377 16.9244 18.9498 17.0123C18.8619 17.1002 18.8125 17.2194 18.8125 17.3438C18.8125 17.4681 18.8619 17.5873 18.9498 17.6752C19.0377 17.7631 19.1569 17.8125 19.2812 17.8125Z" fill="#0A1124"/>
</g>
<defs>
<clipPath id="clip0_7463_7">
<rect width="30" height="30" fill="white" transform="translate(15 15)"/>
</clipPath>
</defs>
</svg>
