<svg width="60" height="60" viewBox="0 0 60 60" fill="none" xmlns="http://www.w3.org/2000/svg">
<circle cx="30" cy="30" r="30" fill="#E30613" fill-opacity="0.1"/>
<path d="M35.05 24.2H32.35V19.25H33.25C33.4985 19.25 33.7 19.0485 33.7 18.8V17.45C33.7 17.2015 33.4985 17 33.25 17H26.05C25.8015 17 25.6 17.2015 25.6 17.45V18.8C25.6 19.0485 25.8015 19.25 26.05 19.25H26.95V24.2H24.25C23.0079 24.2015 22.0015 25.2079 22 26.45V40.4C22.0015 41.6421 23.0079 42.6485 24.25 42.65V43.55C24.25 43.7985 24.4515 44 24.7 44H26.5C26.7485 44 26.95 43.7985 26.95 43.55V42.65H32.35V43.55C32.35 43.7985 32.5515 44 32.8 44H34.6C34.8485 44 35.05 43.7985 35.05 43.55V42.65C36.2921 42.6485 37.2985 41.6421 37.3 40.4V26.45C37.2985 25.2079 36.2921 24.2015 35.05 24.2ZM26.5 17.9H32.8V18.35H26.5V17.9ZM27.85 19.25H31.45V24.2H27.85V19.25ZM26.05 43.1H25.15V42.65H26.05V43.1ZM34.15 43.1H33.25V42.65H34.15V43.1ZM36.4 40.4C36.4 41.1455 35.7955 41.75 35.05 41.75H24.25C23.5045 41.75 22.9 41.1455 22.9 40.4V26.45C22.9 25.7045 23.5045 25.1 24.25 25.1H35.05C35.7955 25.1 36.4 25.7045 36.4 26.45V40.4Z" fill="#0A1124"/>
<path d="M29.6497 26C29.4012 26 29.1997 26.2015 29.1997 26.45V40.4C29.1997 40.6485 29.4012 40.85 29.6497 40.85C29.8982 40.85 30.0997 40.6485 30.0997 40.4V26.45C30.0997 26.2015 29.8982 26 29.6497 26Z" fill="#0A1124"/>
<path d="M33.2498 26.9C33.0013 26.9 32.7998 27.1015 32.7998 27.35V39.5C32.7998 39.7485 33.0013 39.95 33.2498 39.95C33.4983 39.95 33.6998 39.7485 33.6998 39.5V27.35C33.6998 27.1015 33.4983 26.9 33.2498 26.9Z" fill="#0A1124"/>
<path d="M26.0501 26.9C25.8016 26.9 25.6001 27.1015 25.6001 27.35V39.5C25.6001 39.7485 25.8016 39.95 26.0501 39.95C26.2986 39.95 26.5001 39.7485 26.5001 39.5V27.35C26.5001 27.1015 26.2986 26.9 26.0501 26.9Z" fill="#0A1124"/>
<path d="M39.3438 19.8125C39.2194 19.8125 39.1002 19.8619 39.0123 19.9498C38.9244 20.0377 38.875 20.1569 38.875 20.2812V21.2188C38.875 21.3431 38.9244 21.4623 39.0123 21.5502C39.1002 21.6381 39.2194 21.6875 39.3438 21.6875C39.4681 21.6875 39.5873 21.6381 39.6752 21.5502C39.7631 21.4623 39.8125 21.3431 39.8125 21.2188V20.2812C39.8125 20.1569 39.7631 20.0377 39.6752 19.9498C39.5873 19.8619 39.4681 19.8125 39.3438 19.8125Z" fill="#0A1124"/>
<path d="M39.3438 18.875C39.4681 18.875 39.5873 18.8256 39.6752 18.7377C39.7631 18.6498 39.8125 18.5306 39.8125 18.4062V17.4688C39.8125 17.3444 39.7631 17.2252 39.6752 17.1373C39.5873 17.0494 39.4681 17 39.3438 17C39.2194 17 39.1002 17.0494 39.0123 17.1373C38.9244 17.2252 38.875 17.3444 38.875 17.4688V18.4062C38.875 18.5306 38.9244 18.6498 39.0123 18.7377C39.1002 18.8256 39.2194 18.875 39.3438 18.875Z" fill="#0A1124"/>
<path d="M37.4688 19.8125H38.4062C38.5306 19.8125 38.6498 19.7631 38.7377 19.6752C38.8256 19.5873 38.875 19.4681 38.875 19.3438C38.875 19.2194 38.8256 19.1002 38.7377 19.0123C38.6498 18.9244 38.5306 18.875 38.4062 18.875H37.4688C37.3444 18.875 37.2252 18.9244 37.1373 19.0123C37.0494 19.1002 37 19.2194 37 19.3438C37 19.4681 37.0494 19.5873 37.1373 19.6752C37.2252 19.7631 37.3444 19.8125 37.4688 19.8125Z" fill="#0A1124"/>
<path d="M40.2812 19.8125H41.2188C41.3431 19.8125 41.4623 19.7631 41.5502 19.6752C41.6381 19.5873 41.6875 19.4681 41.6875 19.3438C41.6875 19.2194 41.6381 19.1002 41.5502 19.0123C41.4623 18.9244 41.3431 18.875 41.2188 18.875H40.2812C40.1569 18.875 40.0377 18.9244 39.9498 19.0123C39.8619 19.1002 39.8125 19.2194 39.8125 19.3438C39.8125 19.4681 39.8619 19.5873 39.9498 19.6752C40.0377 19.7631 40.1569 19.8125 40.2812 19.8125Z" fill="#0A1124"/>
<path d="M17.3438 32.8125C17.2194 32.8125 17.1002 32.8619 17.0123 32.9498C16.9244 33.0377 16.875 33.1569 16.875 33.2812V34.2188C16.875 34.3431 16.9244 34.4623 17.0123 34.5502C17.1002 34.6381 17.2194 34.6875 17.3438 34.6875C17.4681 34.6875 17.5873 34.6381 17.6752 34.5502C17.7631 34.4623 17.8125 34.3431 17.8125 34.2188V33.2812C17.8125 33.1569 17.7631 33.0377 17.6752 32.9498C17.5873 32.8619 17.4681 32.8125 17.3438 32.8125Z" fill="#0A1124"/>
<path d="M17.3438 31.875C17.4681 31.875 17.5873 31.8256 17.6752 31.7377C17.7631 31.6498 17.8125 31.5306 17.8125 31.4062V30.4688C17.8125 30.3444 17.7631 30.2252 17.6752 30.1373C17.5873 30.0494 17.4681 30 17.3438 30C17.2194 30 17.1002 30.0494 17.0123 30.1373C16.9244 30.2252 16.875 30.3444 16.875 30.4688V31.4062C16.875 31.5306 16.9244 31.6498 17.0123 31.7377C17.1002 31.8256 17.2194 31.875 17.3438 31.875Z" fill="#0A1124"/>
<path d="M15.4688 32.8125H16.4062C16.5306 32.8125 16.6498 32.7631 16.7377 32.6752C16.8256 32.5873 16.875 32.4681 16.875 32.3438C16.875 32.2194 16.8256 32.1002 16.7377 32.0123C16.6498 31.9244 16.5306 31.875 16.4062 31.875H15.4688C15.3444 31.875 15.2252 31.9244 15.1373 32.0123C15.0494 32.1002 15 32.2194 15 32.3438C15 32.4681 15.0494 32.5873 15.1373 32.6752C15.2252 32.7631 15.3444 32.8125 15.4688 32.8125Z" fill="#0A1124"/>
<path d="M18.2812 32.8125H19.2188C19.3431 32.8125 19.4623 32.7631 19.5502 32.6752C19.6381 32.5873 19.6875 32.4681 19.6875 32.3438C19.6875 32.2194 19.6381 32.1002 19.5502 32.0123C19.4623 31.9244 19.3431 31.875 19.2188 31.875H18.2812C18.1569 31.875 18.0377 31.9244 17.9498 32.0123C17.8619 32.1002 17.8125 32.2194 17.8125 32.3438C17.8125 32.4681 17.8619 32.5873 17.9498 32.6752C18.0377 32.7631 18.1569 32.8125 18.2812 32.8125Z" fill="#0A1124"/>
<path d="M42.3438 37.8125C42.2194 37.8125 42.1002 37.8619 42.0123 37.9498C41.9244 38.0377 41.875 38.1569 41.875 38.2812V39.2188C41.875 39.3431 41.9244 39.4623 42.0123 39.5502C42.1002 39.6381 42.2194 39.6875 42.3438 39.6875C42.4681 39.6875 42.5873 39.6381 42.6752 39.5502C42.7631 39.4623 42.8125 39.3431 42.8125 39.2188V38.2812C42.8125 38.1569 42.7631 38.0377 42.6752 37.9498C42.5873 37.8619 42.4681 37.8125 42.3438 37.8125Z" fill="#0A1124"/>
<path d="M42.3438 36.875C42.4681 36.875 42.5873 36.8256 42.6752 36.7377C42.7631 36.6498 42.8125 36.5306 42.8125 36.4062V35.4688C42.8125 35.3444 42.7631 35.2252 42.6752 35.1373C42.5873 35.0494 42.4681 35 42.3438 35C42.2194 35 42.1002 35.0494 42.0123 35.1373C41.9244 35.2252 41.875 35.3444 41.875 35.4688V36.4062C41.875 36.5306 41.9244 36.6498 42.0123 36.7377C42.1002 36.8256 42.2194 36.875 42.3438 36.875Z" fill="#0A1124"/>
<path d="M40.4688 37.8125H41.4062C41.5306 37.8125 41.6498 37.7631 41.7377 37.6752C41.8256 37.5873 41.875 37.4681 41.875 37.3438C41.875 37.2194 41.8256 37.1002 41.7377 37.0123C41.6498 36.9244 41.5306 36.875 41.4062 36.875H40.4688C40.3444 36.875 40.2252 36.9244 40.1373 37.0123C40.0494 37.1002 40 37.2194 40 37.3438C40 37.4681 40.0494 37.5873 40.1373 37.6752C40.2252 37.7631 40.3444 37.8125 40.4688 37.8125Z" fill="#0A1124"/>
<path d="M43.2812 37.8125H44.2188C44.3431 37.8125 44.4623 37.7631 44.5502 37.6752C44.6381 37.5873 44.6875 37.4681 44.6875 37.3438C44.6875 37.2194 44.6381 37.1002 44.5502 37.0123C44.4623 36.9244 44.3431 36.875 44.2188 36.875H43.2812C43.1569 36.875 43.0377 36.9244 42.9498 37.0123C42.8619 37.1002 42.8125 37.2194 42.8125 37.3438C42.8125 37.4681 42.8619 37.5873 42.9498 37.6752C43.0377 37.7631 43.1569 37.8125 43.2812 37.8125Z" fill="#0A1124"/>
</svg>
