<svg width="60" height="60" viewBox="0 0 60 60" fill="none" xmlns="http://www.w3.org/2000/svg">
<circle cx="30" cy="30" r="30" fill="#0C54A0"/>
<g clip-path="url(#clip0_7463_8)">
<path d="M17.2606 39.9322C17.0659 39.6439 16.9521 39.2964 16.9521 38.9224C16.9521 37.9248 17.7608 37.1162 18.7583 37.1162C19.7558 37.1162 20.5645 37.9248 20.5645 38.9224C20.5645 39.9199 19.7558 40.7285 18.7583 40.7285" stroke="white" stroke-width="0.8" stroke-miterlimit="10" stroke-linecap="round"/>
<path d="M20.5645 33.8275C20.5645 34.825 19.7558 35.6337 18.7583 35.6337C17.7608 35.6337 16.9521 34.825 16.9521 33.8275C16.9521 32.83 17.7608 32.0213 18.7583 32.0213C19.7558 32.0213 20.5645 32.83 20.5645 33.8275Z" stroke="white" stroke-width="0.8" stroke-miterlimit="10"/>
<path d="M15.4404 42.1864H22.0764" stroke="white" stroke-width="0.8" stroke-miterlimit="10"/>
<path d="M22.0764 32.2309V31.3204C22.0764 30.8903 21.7277 30.5416 21.2976 30.5416H16.2192C15.7891 30.5416 15.4404 30.8903 15.4404 31.3204V44.5585H22.0764V33.944" stroke="white" stroke-width="0.8" stroke-miterlimit="10" stroke-linecap="round" stroke-linejoin="round"/>
<path d="M42.4883 38.9224C42.4883 39.9199 41.6797 40.7285 40.6821 40.7285C39.6846 40.7285 38.876 39.9199 38.876 38.9224C38.876 37.9248 39.6846 37.1162 40.6821 37.1162C41.6797 37.1162 42.4883 37.9248 42.4883 38.9224Z" stroke="white" stroke-width="0.8" stroke-miterlimit="10"/>
<path d="M42.4883 33.8274C42.4883 34.8249 41.6797 35.6335 40.6821 35.6335C39.6846 35.6335 38.876 34.8249 38.876 33.8274C38.876 32.8299 39.6846 32.0212 40.6821 32.0212C41.6797 32.0212 42.4883 32.8299 42.4883 33.8274Z" stroke="white" stroke-width="0.8" stroke-miterlimit="10"/>
<path d="M37.3643 42.1864H44.0002" stroke="white" stroke-width="0.8" stroke-miterlimit="10"/>
<path d="M44.0002 38.9224V31.3204C44.0002 30.8903 43.6515 30.5417 43.2214 30.5417H38.143C37.7129 30.5417 37.3643 30.8903 37.3643 31.3204V44.5585H44.0002V40.6369" stroke="white" stroke-width="0.8" stroke-miterlimit="10" stroke-linecap="round" stroke-linejoin="round"/>
<path d="M44.5605 15.4374C44.4635 16.2047 42.3746 17.4323 30 17.4323C17.6254 17.4323 15.5365 16.2047 15.4395 15.4374" stroke="white" stroke-width="0.8" stroke-miterlimit="10" stroke-linecap="round" stroke-linejoin="round"/>
<path d="M32.0072 17.4323V22.2474L30.0002 21.0749L27.9932 22.2474V17.4207" stroke="white" stroke-width="0.8" stroke-miterlimit="10" stroke-linejoin="round"/>
<path d="M20.0971 17.0168V22.0818L18.5002 20.0303L17.0791 21.0271V16.3762" stroke="white" stroke-width="0.8" stroke-miterlimit="10" stroke-linejoin="round"/>
<path d="M22.249 17.2102L24.0682 23.302L25.8874 17.3797" stroke="white" stroke-width="0.8" stroke-miterlimit="10" stroke-linejoin="round"/>
<path d="M39.9028 17.0168V22.0818L41.4997 20.0303L42.9209 21.0271V16.3762" stroke="white" stroke-width="0.8" stroke-miterlimit="10" stroke-linejoin="round"/>
<path d="M37.7507 17.2102L35.9315 23.302L34.1123 17.3797" stroke="white" stroke-width="0.8" stroke-miterlimit="10" stroke-linejoin="round"/>
<path d="M34.3438 28.8125C34.2194 28.8125 34.1002 28.8619 34.0123 28.9498C33.9244 29.0377 33.875 29.1569 33.875 29.2812V30.2188C33.875 30.3431 33.9244 30.4623 34.0123 30.5502C34.1002 30.6381 34.2194 30.6875 34.3438 30.6875C34.4681 30.6875 34.5873 30.6381 34.6752 30.5502C34.7631 30.4623 34.8125 30.3431 34.8125 30.2188V29.2812C34.8125 29.1569 34.7631 29.0377 34.6752 28.9498C34.5873 28.8619 34.4681 28.8125 34.3438 28.8125Z" fill="white"/>
<path d="M34.3438 27.875C34.4681 27.875 34.5873 27.8256 34.6752 27.7377C34.7631 27.6498 34.8125 27.5306 34.8125 27.4062V26.4688C34.8125 26.3444 34.7631 26.2252 34.6752 26.1373C34.5873 26.0494 34.4681 26 34.3438 26C34.2194 26 34.1002 26.0494 34.0123 26.1373C33.9244 26.2252 33.875 26.3444 33.875 26.4688V27.4062C33.875 27.5306 33.9244 27.6498 34.0123 27.7377C34.1002 27.8256 34.2194 27.875 34.3438 27.875Z" fill="white"/>
<path d="M32.4688 28.8125H33.4062C33.5306 28.8125 33.6498 28.7631 33.7377 28.6752C33.8256 28.5873 33.875 28.4681 33.875 28.3438C33.875 28.2194 33.8256 28.1002 33.7377 28.0123C33.6498 27.9244 33.5306 27.875 33.4062 27.875H32.4688C32.3444 27.875 32.2252 27.9244 32.1373 28.0123C32.0494 28.1002 32 28.2194 32 28.3438C32 28.4681 32.0494 28.5873 32.1373 28.6752C32.2252 28.7631 32.3444 28.8125 32.4688 28.8125Z" fill="white"/>
<path d="M35.2812 28.8125H36.2188C36.3431 28.8125 36.4623 28.7631 36.5502 28.6752C36.6381 28.5873 36.6875 28.4681 36.6875 28.3438C36.6875 28.2194 36.6381 28.1002 36.5502 28.0123C36.4623 27.9244 36.3431 27.875 36.2188 27.875H35.2812C35.1569 27.875 35.0377 27.9244 34.9498 28.0123C34.8619 28.1002 34.8125 28.2194 34.8125 28.3438C34.8125 28.4681 34.8619 28.5873 34.9498 28.6752C35.0377 28.7631 35.1569 28.8125 35.2812 28.8125Z" fill="white"/>
<path d="M27.3438 38.8125C27.2194 38.8125 27.1002 38.8619 27.0123 38.9498C26.9244 39.0377 26.875 39.1569 26.875 39.2812V40.2188C26.875 40.3431 26.9244 40.4623 27.0123 40.5502C27.1002 40.6381 27.2194 40.6875 27.3438 40.6875C27.4681 40.6875 27.5873 40.6381 27.6752 40.5502C27.7631 40.4623 27.8125 40.3431 27.8125 40.2188V39.2812C27.8125 39.1569 27.7631 39.0377 27.6752 38.9498C27.5873 38.8619 27.4681 38.8125 27.3438 38.8125Z" fill="white"/>
<path d="M27.3438 37.875C27.4681 37.875 27.5873 37.8256 27.6752 37.7377C27.7631 37.6498 27.8125 37.5306 27.8125 37.4062V36.4688C27.8125 36.3444 27.7631 36.2252 27.6752 36.1373C27.5873 36.0494 27.4681 36 27.3438 36C27.2194 36 27.1002 36.0494 27.0123 36.1373C26.9244 36.2252 26.875 36.3444 26.875 36.4688V37.4062C26.875 37.5306 26.9244 37.6498 27.0123 37.7377C27.1002 37.8256 27.2194 37.875 27.3438 37.875Z" fill="white"/>
<path d="M25.4688 38.8125H26.4062C26.5306 38.8125 26.6498 38.7631 26.7377 38.6752C26.8256 38.5873 26.875 38.4681 26.875 38.3438C26.875 38.2194 26.8256 38.1002 26.7377 38.0123C26.6498 37.9244 26.5306 37.875 26.4062 37.875H25.4688C25.3444 37.875 25.2252 37.9244 25.1373 38.0123C25.0494 38.1002 25 38.2194 25 38.3438C25 38.4681 25.0494 38.5873 25.1373 38.6752C25.2252 38.7631 25.3444 38.8125 25.4688 38.8125Z" fill="white"/>
<path d="M28.2812 38.8125H29.2188C29.3431 38.8125 29.4623 38.7631 29.5502 38.6752C29.6381 38.5873 29.6875 38.4681 29.6875 38.3438C29.6875 38.2194 29.6381 38.1002 29.5502 38.0123C29.4623 37.9244 29.3431 37.875 29.2188 37.875H28.2812C28.1569 37.875 28.0377 37.9244 27.9498 38.0123C27.8619 38.1002 27.8125 38.2194 27.8125 38.3438C27.8125 38.4681 27.8619 38.5873 27.9498 38.6752C28.0377 38.7631 28.1569 38.8125 28.2812 38.8125Z" fill="white"/>
</g>
<defs>
<clipPath id="clip0_7463_8">
<rect width="30" height="30" fill="white" transform="translate(15 15)"/>
</clipPath>
</defs>
</svg>
