<svg width="60" height="60" viewBox="0 0 60 60" fill="none" xmlns="http://www.w3.org/2000/svg">
<circle cx="30" cy="30" r="30" fill="#0C54A0"/>
<g clip-path="url(#clip0_7330_9)">
<path d="M20.3157 33.164C20.4012 33.2394 20.5111 33.2811 20.6251 33.2812C20.6764 33.288 20.7284 33.288 20.7798 33.2812C20.858 33.2534 20.9274 33.2054 20.9809 33.142C21.0344 33.0785 21.0702 33.002 21.0845 32.9203L22.022 27.8765L22.7204 27.5953L27.8766 31.3453C27.9522 31.3883 28.0382 31.4093 28.1251 31.4062C28.1985 31.4058 28.2707 31.3881 28.336 31.3547C28.4133 31.3157 28.4783 31.2561 28.5238 31.1825C28.5693 31.1088 28.5936 31.024 28.5938 30.9375V24.375L29.1141 24.0094L33.9938 26.6719C34.0638 26.7059 34.1411 26.722 34.2188 26.7187C34.3144 26.7185 34.4076 26.6891 34.486 26.6344C34.5604 26.5834 34.6186 26.5121 34.6535 26.429C34.6884 26.3459 34.6986 26.2544 34.6829 26.1656L33.7501 19.7859C34.3548 19.1109 34.9454 18.3797 35.5126 17.6203C35.5706 17.5204 35.5897 17.4027 35.5662 17.2897C35.5427 17.1766 35.4784 17.0762 35.3855 17.0076C35.2925 16.9391 35.1776 16.9073 35.0626 16.9183C34.9477 16.9293 34.8408 16.9823 34.7626 17.0672C32.458 20.1667 29.564 22.7805 26.2466 24.7585C22.9292 26.7366 19.2538 28.0399 15.4313 28.5937C15.307 28.5987 15.1898 28.6529 15.1054 28.7443C15.021 28.8357 14.9764 28.9569 14.9813 29.0812C14.9863 29.2056 15.0405 29.3228 15.1319 29.4072C15.2233 29.4916 15.3445 29.5362 15.4688 29.5312H15.5063C15.5063 29.5312 15.7454 29.5078 16.1345 29.4515L20.3157 33.164ZM20.3157 31.9078L17.3157 29.2406C18.5595 28.9796 19.7854 28.6399 20.986 28.2234L20.3157 31.9078ZM27.6563 30L23.7001 27.1406C25.0689 26.5215 26.3911 25.8039 27.6563 24.9937V30ZM32.9485 20.6672L33.6235 25.3922L29.9345 23.3812C30.999 22.5453 32.006 21.6386 32.9485 20.6672Z" fill="white"/>
<path d="M44.5314 36.5625C31.2236 37.0312 24.1877 33.825 24.1174 33.7921C24.0613 33.7663 24.0008 33.7517 23.9391 33.7493C23.8775 33.7468 23.816 33.7565 23.7581 33.7779C23.7002 33.7992 23.6471 33.8317 23.6017 33.8736C23.5564 33.9154 23.5198 33.9658 23.4939 34.0218C23.4681 34.0778 23.4535 34.1384 23.4511 34.2001C23.4486 34.2617 23.4583 34.3232 23.4796 34.3811C23.501 34.439 23.5335 34.4921 23.5754 34.5375C23.6172 34.5828 23.6676 34.6194 23.7236 34.6453C23.7705 34.6453 24.0049 34.7718 24.422 34.9312L25.3127 40.8515C25.3258 40.9374 25.3626 41.018 25.4189 41.0842C25.4752 41.1504 25.5488 41.1997 25.6314 41.2265C25.68 41.2416 25.7306 41.2495 25.7814 41.25C25.8431 41.2503 25.9043 41.2385 25.9614 41.2152C26.0185 41.1918 26.0704 41.1575 26.1142 41.114L30.633 36.5906L30.9564 36.6515C30.9521 36.681 30.9521 36.7111 30.9564 36.7406L33.3002 42.3656C33.3318 42.4421 33.3832 42.5089 33.4491 42.5591C33.515 42.6094 33.593 42.6412 33.6752 42.6515H33.7502C33.8241 42.6517 33.8971 42.6344 33.9631 42.601C34.0291 42.5676 34.0862 42.519 34.1299 42.4593L37.7908 37.425H38.0814L39.8674 42.7875C39.8956 42.8705 39.9466 42.944 40.0146 42.9995C40.0825 43.0551 40.1647 43.0904 40.2517 43.1015H40.3127C40.3899 43.1011 40.4658 43.0817 40.5337 43.0449C40.6015 43.0081 40.6593 42.9551 40.7017 42.8906L44.3111 37.5H44.5314C44.6557 37.5 44.775 37.4506 44.8629 37.3627C44.9508 37.2748 45.0002 37.1555 45.0002 37.0312C45.0002 36.9069 44.9508 36.7877 44.8629 36.6997C44.775 36.6118 44.6557 36.5625 44.5314 36.5625ZM26.1049 39.7968L25.4111 35.2875C26.7621 35.7302 28.1379 36.0934 29.5314 36.375L26.1049 39.7968ZM33.8627 41.25L32.0252 36.8437C33.4314 37.0546 34.9595 37.2421 36.6845 37.3734L33.8627 41.25ZM40.4533 41.6109L39.0846 37.5C39.9752 37.5375 40.8986 37.5562 41.8689 37.5562H43.1627L40.4533 41.6109Z" fill="white"/>
<path d="M40.3125 17.8125C40.1882 17.8125 40.069 17.8619 39.981 17.9498C39.8931 18.0377 39.8438 18.1569 39.8438 18.2812V19.2188C39.8438 19.3431 39.8931 19.4623 39.981 19.5502C40.069 19.6381 40.1882 19.6875 40.3125 19.6875C40.4368 19.6875 40.556 19.6381 40.644 19.5502C40.7319 19.4623 40.7812 19.3431 40.7812 19.2188V18.2812C40.7812 18.1569 40.7319 18.0377 40.644 17.9498C40.556 17.8619 40.4368 17.8125 40.3125 17.8125Z" fill="white"/>
<path d="M40.3125 16.875C40.4368 16.875 40.556 16.8256 40.644 16.7377C40.7319 16.6498 40.7812 16.5306 40.7812 16.4062V15.4688C40.7812 15.3444 40.7319 15.2252 40.644 15.1373C40.556 15.0494 40.4368 15 40.3125 15C40.1882 15 40.069 15.0494 39.981 15.1373C39.8931 15.2252 39.8438 15.3444 39.8438 15.4688V16.4062C39.8438 16.5306 39.8931 16.6498 39.981 16.7377C40.069 16.8256 40.1882 16.875 40.3125 16.875Z" fill="white"/>
<path d="M38.4375 17.8125H39.375C39.4993 17.8125 39.6185 17.7631 39.7065 17.6752C39.7944 17.5873 39.8438 17.4681 39.8438 17.3438C39.8438 17.2194 39.7944 17.1002 39.7065 17.0123C39.6185 16.9244 39.4993 16.875 39.375 16.875H38.4375C38.3132 16.875 38.194 16.9244 38.106 17.0123C38.0181 17.1002 37.9688 17.2194 37.9688 17.3438C37.9688 17.4681 38.0181 17.5873 38.106 17.6752C38.194 17.7631 38.3132 17.8125 38.4375 17.8125Z" fill="white"/>
<path d="M41.25 17.8125H42.1875C42.3118 17.8125 42.431 17.7631 42.519 17.6752C42.6069 17.5873 42.6562 17.4681 42.6562 17.3438C42.6562 17.2194 42.6069 17.1002 42.519 17.0123C42.431 16.9244 42.3118 16.875 42.1875 16.875H41.25C41.1257 16.875 41.0065 16.9244 40.9185 17.0123C40.8306 17.1002 40.7812 17.2194 40.7812 17.3438C40.7812 17.4681 40.8306 17.5873 40.9185 17.6752C41.0065 17.7631 41.1257 17.8125 41.25 17.8125Z" fill="white"/>
<path d="M21.0938 22.5C20.9694 22.5 20.8502 22.5494 20.7623 22.6373C20.6744 22.7252 20.625 22.8444 20.625 22.9688V23.9062C20.625 24.0306 20.6744 24.1498 20.7623 24.2377C20.8502 24.3256 20.9694 24.375 21.0938 24.375C21.2181 24.375 21.3373 24.3256 21.4252 24.2377C21.5131 24.1498 21.5625 24.0306 21.5625 23.9062V22.9688C21.5625 22.8444 21.5131 22.7252 21.4252 22.6373C21.3373 22.5494 21.2181 22.5 21.0938 22.5Z" fill="white"/>
<path d="M21.0938 21.5625C21.2181 21.5625 21.3373 21.5131 21.4252 21.4252C21.5131 21.3373 21.5625 21.2181 21.5625 21.0938V20.1562C21.5625 20.0319 21.5131 19.9127 21.4252 19.8248C21.3373 19.7369 21.2181 19.6875 21.0938 19.6875C20.9694 19.6875 20.8502 19.7369 20.7623 19.8248C20.6744 19.9127 20.625 20.0319 20.625 20.1562V21.0938C20.625 21.2181 20.6744 21.3373 20.7623 21.4252C20.8502 21.5131 20.9694 21.5625 21.0938 21.5625Z" fill="white"/>
<path d="M19.2188 22.5H20.1562C20.2806 22.5 20.3998 22.4506 20.4877 22.3627C20.5756 22.2748 20.625 22.1556 20.625 22.0312C20.625 21.9069 20.5756 21.7877 20.4877 21.6998C20.3998 21.6119 20.2806 21.5625 20.1562 21.5625H19.2188C19.0944 21.5625 18.9752 21.6119 18.8873 21.6998C18.7994 21.7877 18.75 21.9069 18.75 22.0312C18.75 22.1556 18.7994 22.2748 18.8873 22.3627C18.9752 22.4506 19.0944 22.5 19.2188 22.5Z" fill="white"/>
<path d="M22.0312 22.5H22.9688C23.0931 22.5 23.2123 22.4506 23.3002 22.3627C23.3881 22.2748 23.4375 22.1556 23.4375 22.0312C23.4375 21.9069 23.3881 21.7877 23.3002 21.6998C23.2123 21.6119 23.0931 21.5625 22.9688 21.5625H22.0312C21.9069 21.5625 21.7877 21.6119 21.6998 21.6998C21.6119 21.7877 21.5625 21.9069 21.5625 22.0312C21.5625 22.1556 21.6119 22.2748 21.6998 22.3627C21.7877 22.4506 21.9069 22.5 22.0312 22.5Z" fill="white"/>
<path d="M37.5 31.875C37.3757 31.875 37.2565 31.9244 37.1685 32.0123C37.0806 32.1002 37.0312 32.2194 37.0312 32.3438V33.2812C37.0312 33.4056 37.0806 33.5248 37.1685 33.6127C37.2565 33.7006 37.3757 33.75 37.5 33.75C37.6243 33.75 37.7435 33.7006 37.8315 33.6127C37.9194 33.5248 37.9688 33.4056 37.9688 33.2812V32.3438C37.9688 32.2194 37.9194 32.1002 37.8315 32.0123C37.7435 31.9244 37.6243 31.875 37.5 31.875Z" fill="white"/>
<path d="M37.5 30.9375C37.6243 30.9375 37.7435 30.8881 37.8315 30.8002C37.9194 30.7123 37.9688 30.5931 37.9688 30.4688V29.5312C37.9688 29.4069 37.9194 29.2877 37.8315 29.1998C37.7435 29.1119 37.6243 29.0625 37.5 29.0625C37.3757 29.0625 37.2565 29.1119 37.1685 29.1998C37.0806 29.2877 37.0312 29.4069 37.0312 29.5312V30.4688C37.0312 30.5931 37.0806 30.7123 37.1685 30.8002C37.2565 30.8881 37.3757 30.9375 37.5 30.9375Z" fill="white"/>
<path d="M35.1562 31.4062C35.1562 31.5306 35.2056 31.6498 35.2935 31.7377C35.3815 31.8256 35.5007 31.875 35.625 31.875H36.5625C36.6868 31.875 36.806 31.8256 36.894 31.7377C36.9819 31.6498 37.0312 31.5306 37.0312 31.4062C37.0312 31.2819 36.9819 31.1627 36.894 31.0748C36.806 30.9869 36.6868 30.9375 36.5625 30.9375H35.625C35.5007 30.9375 35.3815 30.9869 35.2935 31.0748C35.2056 31.1627 35.1562 31.2819 35.1562 31.4062Z" fill="white"/>
<path d="M39.375 30.9375H38.4375C38.3132 30.9375 38.194 30.9869 38.106 31.0748C38.0181 31.1627 37.9688 31.2819 37.9688 31.4062C37.9688 31.5306 38.0181 31.6498 38.106 31.7377C38.194 31.8256 38.3132 31.875 38.4375 31.875H39.375C39.4993 31.875 39.6185 31.8256 39.7065 31.7377C39.7944 31.6498 39.8438 31.5306 39.8438 31.4062C39.8438 31.2819 39.7944 31.1627 39.7065 31.0748C39.6185 30.9869 39.4993 30.9375 39.375 30.9375Z" fill="white"/>
<path d="M21.0938 43.125C20.9694 43.125 20.8502 43.1744 20.7623 43.2623C20.6744 43.3502 20.625 43.4694 20.625 43.5938V44.5312C20.625 44.6556 20.6744 44.7748 20.7623 44.8627C20.8502 44.9506 20.9694 45 21.0938 45C21.2181 45 21.3373 44.9506 21.4252 44.8627C21.5131 44.7748 21.5625 44.6556 21.5625 44.5312V43.5938C21.5625 43.4694 21.5131 43.3502 21.4252 43.2623C21.3373 43.1744 21.2181 43.125 21.0938 43.125Z" fill="white"/>
<path d="M20.625 40.7812V41.7188C20.625 41.8431 20.6744 41.9623 20.7623 42.0502C20.8502 42.1381 20.9694 42.1875 21.0938 42.1875C21.2181 42.1875 21.3373 42.1381 21.4252 42.0502C21.5131 41.9623 21.5625 41.8431 21.5625 41.7188V40.7812C21.5625 40.6569 21.5131 40.5377 21.4252 40.4498C21.3373 40.3619 21.2181 40.3125 21.0938 40.3125C20.9694 40.3125 20.8502 40.3619 20.7623 40.4498C20.6744 40.5377 20.625 40.6569 20.625 40.7812Z" fill="white"/>
<path d="M20.1562 42.1875H19.2188C19.0944 42.1875 18.9752 42.2369 18.8873 42.3248C18.7994 42.4127 18.75 42.5319 18.75 42.6562C18.75 42.7806 18.7994 42.8998 18.8873 42.9877C18.9752 43.0756 19.0944 43.125 19.2188 43.125H20.1562C20.2806 43.125 20.3998 43.0756 20.4877 42.9877C20.5756 42.8998 20.625 42.7806 20.625 42.6562C20.625 42.5319 20.5756 42.4127 20.4877 42.3248C20.3998 42.2369 20.2806 42.1875 20.1562 42.1875Z" fill="white"/>
<path d="M22.9688 42.1875H22.0312C21.9069 42.1875 21.7877 42.2369 21.6998 42.3248C21.6119 42.4127 21.5625 42.5319 21.5625 42.6562C21.5625 42.7806 21.6119 42.8998 21.6998 42.9877C21.7877 43.0756 21.9069 43.125 22.0312 43.125H22.9688C23.0931 43.125 23.2123 43.0756 23.3002 42.9877C23.3881 42.8998 23.4375 42.7806 23.4375 42.6562C23.4375 42.5319 23.3881 42.4127 23.3002 42.3248C23.2123 42.2369 23.0931 42.1875 22.9688 42.1875Z" fill="white"/>
</g>
<defs>
<clipPath id="clip0_7330_9">
<rect width="30" height="30" fill="white" transform="translate(15 15)"/>
</clipPath>
</defs>
</svg>
