<svg width="60" height="60" viewBox="0 0 60 60" fill="none" xmlns="http://www.w3.org/2000/svg">
<mask id="path-1-inside-1_4423_4117" fill="white">
<path d="M39.0673 9C35.2056 9 32.0777 12.132 32.0777 15.9936V19.5758C32.0777 20.509 33.4775 20.509 33.4775 19.5758V15.9936C33.4775 12.8825 35.9562 10.3984 39.0673 10.3984C42.1784 10.3984 44.6625 12.8825 44.6625 15.9936V19.5758C44.6414 20.5293 46.0824 20.5293 46.061 19.5758V15.9936C46.061 12.132 42.9289 9 39.0673 9ZM26.4825 11.1496V10.4531C26.4904 10.0568 26.167 9.73378 25.7204 9.74562L20.1853 9.75094C18.2677 9.77869 16.6862 11.3264 16.6919 13.2512L16.6945 13.9477C16.6952 14.3344 17.0071 14.6488 17.3938 14.6497H22.9903C23.2285 14.6497 23.4618 14.6258 23.6868 14.5798V16.0466C23.6868 17.6082 22.4515 18.8435 20.8899 18.8435C19.5286 18.8435 18.4184 17.8963 18.1531 16.6271C17.9617 15.7139 16.5921 16.0007 16.7833 16.9139C16.9688 17.8012 17.4426 18.5759 18.0916 19.159V21.6391C18.0916 21.8252 18.1646 22.0036 18.2964 22.1349L20.3914 24.2353C20.6648 24.51 21.1095 24.51 21.3829 24.2353L23.4792 22.1349C23.6111 22.0035 23.6854 21.8252 23.6854 21.6391V19.1645C24.5416 18.3957 25.0898 17.2843 25.0838 16.0466L25.0733 13.9489C25.9192 13.3097 26.482 12.2966 26.482 11.1506L26.4825 11.1496ZM20.2017 11.1496H25.084C25.084 12.3238 24.1633 13.25 22.989 13.25H18.0903C18.0903 12.0758 19.0154 11.1668 20.2017 11.1496ZM39.0564 12.5412C38.8756 12.5465 38.7043 12.6192 38.577 12.7474C38.577 12.7474 37.3594 13.9395 35.5725 13.9395C35.1862 13.9409 34.8745 14.2552 34.876 14.6415V16.0414C34.876 17.2805 35.4177 18.3915 36.2745 19.1593V21.6311C36.2745 21.8172 36.3487 21.9957 36.4806 22.1269L38.581 24.2273C38.8538 24.4984 39.2943 24.4984 39.5671 24.2273L41.6688 22.1269C41.7989 21.9948 41.871 21.8164 41.8697 21.6311V19.151C42.7228 18.3835 43.264 17.2763 43.264 16.0414V14.6415C43.2654 14.2552 42.9525 13.9409 42.5662 13.9395C40.7793 13.9395 39.563 12.7474 39.563 12.7474C39.4293 12.6128 39.246 12.5386 39.0564 12.5412ZM39.0722 14.1432C39.515 14.5099 40.4325 15.0706 41.8651 15.2931V16.0415C41.8651 17.6031 40.6283 18.833 39.0668 18.833C37.5052 18.833 36.2698 17.6031 36.2698 16.0415V15.2985C37.7094 15.0768 38.6306 14.5096 39.0722 14.1432ZM40.4707 19.9855V21.3417L39.0722 22.7402L37.6724 21.3417V19.9883C38.1093 20.1429 38.5773 20.2314 39.0668 20.2314C39.5597 20.2314 40.0308 20.1423 40.4707 19.9856V19.9855ZM22.2852 19.9961V21.3482L20.8867 22.7466L19.4883 21.3482V19.9976C19.9269 20.1529 20.397 20.2406 20.8881 20.2406C21.3785 20.2406 21.8473 20.1518 22.2852 19.9962V19.9961ZM44.2181 21.2171C44.1304 21.1854 44.0368 21.1713 43.9436 21.1761C43.1803 21.2176 43.0277 22.2785 43.7483 22.5336C45.0913 23.0145 46.0484 24.2983 46.0659 25.8372V30.023H43.9655V27.928C43.9734 27.5311 43.6495 27.2074 43.2526 27.2152C42.8659 27.2231 42.5581 27.5413 42.5657 27.928V30.023H35.572V27.928C35.5799 27.5311 35.256 27.2074 34.8591 27.2152C34.4729 27.2231 34.1659 27.5418 34.1735 27.928V30.023H32.0827V25.8263C32.0827 24.2938 33.043 23.0145 34.3948 22.5336C35.1435 22.2852 34.9719 21.1803 34.1831 21.1706C34.0967 21.1704 34.0111 21.1865 33.9305 21.2172C32.0334 21.892 30.6842 23.7037 30.6842 25.8264V30.0231H29.2789V25.8236C29.2551 23.706 27.9242 21.894 26.034 21.2172C25.9468 21.1847 25.8541 21.1696 25.7609 21.1735C24.988 21.2052 24.8311 22.283 25.5629 22.5338C26.9059 23.0147 27.863 24.2972 27.8805 25.836V30.0232H25.7801V27.9282C25.788 27.5335 25.4674 27.2107 25.0727 27.2153C24.6865 27.2233 24.3795 27.542 24.3871 27.9282V30.0232H17.392V27.9282C17.4 27.5319 17.0769 27.2083 16.6805 27.2153C16.2938 27.2233 15.986 27.5415 15.9936 27.9282V30.0232H13.8959V25.8278C13.8959 24.2953 14.8603 23.0147 16.2121 22.5338C16.9563 22.2817 16.7833 21.1833 15.9978 21.1722C15.9111 21.1708 15.8249 21.1854 15.7438 21.2158C13.8468 21.8906 12.4975 23.7051 12.4975 25.8277V30.0231H9.70198C9.31582 30.0217 9.00156 30.3334 9 30.7196V33.5179C8.99863 33.9062 9.31367 34.2213 9.70198 34.2199H50.2574C50.6436 34.2183 50.9554 33.904 50.9539 33.5179V30.7196C50.9524 30.3356 50.6415 30.0246 50.2574 30.0231H47.4646V25.8243C47.4408 23.7087 46.1085 21.894 44.2184 21.2172L44.2181 21.2171ZM10.3982 31.4229C23.4747 31.4467 36.431 31.4229 49.5553 31.4229V32.8213H10.3982L10.3982 31.4229ZM11.1002 36.3148V50.298C11.0988 50.6847 11.4114 50.9992 11.7981 51H48.1554C48.5437 51.0015 48.8589 50.6863 48.8574 50.298V36.3148C48.8786 35.3621 47.4384 35.3621 47.4589 36.3148V49.6015H12.5001V36.3148C12.5053 35.9205 12.1813 35.601 11.7872 35.6087C11.4031 35.6166 11.0964 35.9307 11.1002 36.3148ZM15.297 37.7132V47.5066C15.2986 47.8906 15.6095 48.2016 15.9935 48.2031H22.9885C23.3726 48.2015 23.6835 47.8906 23.685 47.5066V37.7132C23.6836 37.3292 23.3726 37.0182 22.9885 37.0167H15.9573C15.5656 37.055 15.2963 37.3557 15.297 37.7132M25.7827 47.5038C25.7841 47.8878 26.0952 48.1987 26.4792 48.2003H33.4716C33.8577 48.2018 34.172 47.8899 34.1736 47.5038V37.7105C34.1722 37.3243 33.8577 37.0125 33.4716 37.014H26.4458C26.0547 37.0499 25.7824 37.351 25.7827 37.7105V47.5038ZM36.2685 47.5064C36.27 47.8926 36.5843 48.2044 36.9704 48.2029H43.9655C44.3495 48.2014 44.6605 47.8905 44.662 47.5064V37.7131C44.6606 37.3291 44.3495 37.0181 43.9655 37.0166H36.9343C36.5404 37.0525 36.2681 37.3536 36.2685 37.7131V47.5064ZM16.69 38.4164H22.2866V46.8033H16.69L16.69 38.4164ZM27.1812 38.4138H32.7756V46.8005H27.1817L27.1812 38.4138ZM37.6669 38.4164H43.2635V46.8033H37.667L37.6669 38.4164Z"/>
</mask>
<path d="M39.0673 9C35.2056 9 32.0777 12.132 32.0777 15.9936V19.5758C32.0777 20.509 33.4775 20.509 33.4775 19.5758V15.9936C33.4775 12.8825 35.9562 10.3984 39.0673 10.3984C42.1784 10.3984 44.6625 12.8825 44.6625 15.9936V19.5758C44.6414 20.5293 46.0824 20.5293 46.061 19.5758V15.9936C46.061 12.132 42.9289 9 39.0673 9ZM26.4825 11.1496V10.4531C26.4904 10.0568 26.167 9.73378 25.7204 9.74562L20.1853 9.75094C18.2677 9.77869 16.6862 11.3264 16.6919 13.2512L16.6945 13.9477C16.6952 14.3344 17.0071 14.6488 17.3938 14.6497H22.9903C23.2285 14.6497 23.4618 14.6258 23.6868 14.5798V16.0466C23.6868 17.6082 22.4515 18.8435 20.8899 18.8435C19.5286 18.8435 18.4184 17.8963 18.1531 16.6271C17.9617 15.7139 16.5921 16.0007 16.7833 16.9139C16.9688 17.8012 17.4426 18.5759 18.0916 19.159V21.6391C18.0916 21.8252 18.1646 22.0036 18.2964 22.1349L20.3914 24.2353C20.6648 24.51 21.1095 24.51 21.3829 24.2353L23.4792 22.1349C23.6111 22.0035 23.6854 21.8252 23.6854 21.6391V19.1645C24.5416 18.3957 25.0898 17.2843 25.0838 16.0466L25.0733 13.9489C25.9192 13.3097 26.482 12.2966 26.482 11.1506L26.4825 11.1496ZM20.2017 11.1496H25.084C25.084 12.3238 24.1633 13.25 22.989 13.25H18.0903C18.0903 12.0758 19.0154 11.1668 20.2017 11.1496ZM39.0564 12.5412C38.8756 12.5465 38.7043 12.6192 38.577 12.7474C38.577 12.7474 37.3594 13.9395 35.5725 13.9395C35.1862 13.9409 34.8745 14.2552 34.876 14.6415V16.0414C34.876 17.2805 35.4177 18.3915 36.2745 19.1593V21.6311C36.2745 21.8172 36.3487 21.9957 36.4806 22.1269L38.581 24.2273C38.8538 24.4984 39.2943 24.4984 39.5671 24.2273L41.6688 22.1269C41.7989 21.9948 41.871 21.8164 41.8697 21.6311V19.151C42.7228 18.3835 43.264 17.2763 43.264 16.0414V14.6415C43.2654 14.2552 42.9525 13.9409 42.5662 13.9395C40.7793 13.9395 39.563 12.7474 39.563 12.7474C39.4293 12.6128 39.246 12.5386 39.0564 12.5412ZM39.0722 14.1432C39.515 14.5099 40.4325 15.0706 41.8651 15.2931V16.0415C41.8651 17.6031 40.6283 18.833 39.0668 18.833C37.5052 18.833 36.2698 17.6031 36.2698 16.0415V15.2985C37.7094 15.0768 38.6306 14.5096 39.0722 14.1432ZM40.4707 19.9855V21.3417L39.0722 22.7402L37.6724 21.3417V19.9883C38.1093 20.1429 38.5773 20.2314 39.0668 20.2314C39.5597 20.2314 40.0308 20.1423 40.4707 19.9856V19.9855ZM22.2852 19.9961V21.3482L20.8867 22.7466L19.4883 21.3482V19.9976C19.9269 20.1529 20.397 20.2406 20.8881 20.2406C21.3785 20.2406 21.8473 20.1518 22.2852 19.9962V19.9961ZM44.2181 21.2171C44.1304 21.1854 44.0368 21.1713 43.9436 21.1761C43.1803 21.2176 43.0277 22.2785 43.7483 22.5336C45.0913 23.0145 46.0484 24.2983 46.0659 25.8372V30.023H43.9655V27.928C43.9734 27.5311 43.6495 27.2074 43.2526 27.2152C42.8659 27.2231 42.5581 27.5413 42.5657 27.928V30.023H35.572V27.928C35.5799 27.5311 35.256 27.2074 34.8591 27.2152C34.4729 27.2231 34.1659 27.5418 34.1735 27.928V30.023H32.0827V25.8263C32.0827 24.2938 33.043 23.0145 34.3948 22.5336C35.1435 22.2852 34.9719 21.1803 34.1831 21.1706C34.0967 21.1704 34.0111 21.1865 33.9305 21.2172C32.0334 21.892 30.6842 23.7037 30.6842 25.8264V30.0231H29.2789V25.8236C29.2551 23.706 27.9242 21.894 26.034 21.2172C25.9468 21.1847 25.8541 21.1696 25.7609 21.1735C24.988 21.2052 24.8311 22.283 25.5629 22.5338C26.9059 23.0147 27.863 24.2972 27.8805 25.836V30.0232H25.7801V27.9282C25.788 27.5335 25.4674 27.2107 25.0727 27.2153C24.6865 27.2233 24.3795 27.542 24.3871 27.9282V30.0232H17.392V27.9282C17.4 27.5319 17.0769 27.2083 16.6805 27.2153C16.2938 27.2233 15.986 27.5415 15.9936 27.9282V30.0232H13.8959V25.8278C13.8959 24.2953 14.8603 23.0147 16.2121 22.5338C16.9563 22.2817 16.7833 21.1833 15.9978 21.1722C15.9111 21.1708 15.8249 21.1854 15.7438 21.2158C13.8468 21.8906 12.4975 23.7051 12.4975 25.8277V30.0231H9.70198C9.31582 30.0217 9.00156 30.3334 9 30.7196V33.5179C8.99863 33.9062 9.31367 34.2213 9.70198 34.2199H50.2574C50.6436 34.2183 50.9554 33.904 50.9539 33.5179V30.7196C50.9524 30.3356 50.6415 30.0246 50.2574 30.0231H47.4646V25.8243C47.4408 23.7087 46.1085 21.894 44.2184 21.2172L44.2181 21.2171ZM10.3982 31.4229C23.4747 31.4467 36.431 31.4229 49.5553 31.4229V32.8213H10.3982L10.3982 31.4229ZM11.1002 36.3148V50.298C11.0988 50.6847 11.4114 50.9992 11.7981 51H48.1554C48.5437 51.0015 48.8589 50.6863 48.8574 50.298V36.3148C48.8786 35.3621 47.4384 35.3621 47.4589 36.3148V49.6015H12.5001V36.3148C12.5053 35.9205 12.1813 35.601 11.7872 35.6087C11.4031 35.6166 11.0964 35.9307 11.1002 36.3148ZM15.297 37.7132V47.5066C15.2986 47.8906 15.6095 48.2016 15.9935 48.2031H22.9885C23.3726 48.2015 23.6835 47.8906 23.685 47.5066V37.7132C23.6836 37.3292 23.3726 37.0182 22.9885 37.0167H15.9573C15.5656 37.055 15.2963 37.3557 15.297 37.7132M25.7827 47.5038C25.7841 47.8878 26.0952 48.1987 26.4792 48.2003H33.4716C33.8577 48.2018 34.172 47.8899 34.1736 47.5038V37.7105C34.1722 37.3243 33.8577 37.0125 33.4716 37.014H26.4458C26.0547 37.0499 25.7824 37.351 25.7827 37.7105V47.5038ZM36.2685 47.5064C36.27 47.8926 36.5843 48.2044 36.9704 48.2029H43.9655C44.3495 48.2014 44.6605 47.8905 44.662 47.5064V37.7131C44.6606 37.3291 44.3495 37.0181 43.9655 37.0166H36.9343C36.5404 37.0525 36.2681 37.3536 36.2685 37.7131V47.5064ZM16.69 38.4164H22.2866V46.8033H16.69L16.69 38.4164ZM27.1812 38.4138H32.7756V46.8005H27.1817L27.1812 38.4138ZM37.6669 38.4164H43.2635V46.8033H37.667L37.6669 38.4164Z" fill="#0C54A0"/>
<path d="M44.6625 19.5758L70.5305 20.1494L70.5369 19.8627V19.5758H44.6625ZM46.061 19.5758H20.1866V19.8662L20.1932 20.1566L46.061 19.5758ZM26.4825 11.1496L49.9106 22.1315L52.3568 16.913V11.1496H26.4825ZM26.4825 10.4531L0.613296 9.9356L0.60812 10.1943V10.4531H26.4825ZM25.7204 9.74562L25.7453 35.62L26.0758 35.6196L26.4061 35.6109L25.7204 9.74562ZM20.1853 9.75094L20.1604 -16.1234L19.9856 -16.1232L19.8109 -16.1207L20.1853 9.75094ZM16.6919 13.2512L-9.18238 13.3272L-9.18234 13.3388L-9.1823 13.3503L16.6919 13.2512ZM16.6945 13.9477L42.5688 13.9053L42.5688 13.8769L42.5687 13.8485L16.6945 13.9477ZM17.3938 14.6497L17.3372 40.524L17.3655 40.524H17.3938V14.6497ZM23.6868 14.5798H49.5612V-17.1173L18.506 -10.7705L23.6868 14.5798ZM18.1531 16.6271L43.4802 11.3336L43.4775 11.3209L18.1531 16.6271ZM16.7833 16.9139L42.11 11.6185L42.1086 11.6119L16.7833 16.9139ZM18.0916 19.159H43.966V7.62223L35.3841 -0.0881023L18.0916 19.159ZM18.2964 22.1349L36.6161 3.86271L36.5822 3.82874L36.5482 3.7949L18.2964 22.1349ZM20.3914 24.2353L38.734 5.98617L38.7225 5.97462L38.711 5.9631L20.3914 24.2353ZM21.3829 24.2353L3.06927 5.95704L3.05475 5.97159L3.04025 5.98617L21.3829 24.2353ZM23.4792 22.1349L5.22006 3.80225L5.19279 3.82941L5.16561 3.85665L23.4792 22.1349ZM23.6854 19.1645L6.39839 -0.0875835L-2.189 7.62326V19.1645H23.6854ZM25.0838 16.0466L50.9579 15.9207L50.9578 15.9163L25.0838 16.0466ZM25.0733 13.9489L9.47538 -6.69543L-0.866081 1.11808L-0.800771 14.0793L25.0733 13.9489ZM26.482 11.1506L3.05382 0.168685L0.607629 5.38722V11.1506H26.482ZM20.2017 11.1496V-14.7248H20.0138L19.8259 -14.722L20.2017 11.1496ZM25.084 11.1496H50.9584V-14.7248H25.084V11.1496ZM18.0903 13.25H-7.78402V39.1243H18.0903V13.25ZM38.577 12.7474L56.6791 31.2351L56.8072 31.1096L56.9336 30.9824L38.577 12.7474ZM35.5725 13.9395V-11.9348H35.5265L35.4805 -11.9346L35.5725 13.9395ZM34.876 14.6415H60.7504V14.5921L60.7502 14.5426L34.876 14.6415ZM36.2745 19.1593H62.1488V7.60244L53.5421 -0.110178L36.2745 19.1593ZM36.2745 21.6311H10.4001L10.4001 21.6344L36.2745 21.6311ZM36.4806 22.1269L54.7764 3.83085L54.7535 3.80794L54.7305 3.78508L36.4806 22.1269ZM38.581 24.2273L20.2852 42.5233L20.3123 42.5504L20.3394 42.5774L38.581 24.2273ZM39.5671 24.2273L57.8087 42.5774L57.8328 42.5534L57.8569 42.5293L39.5671 24.2273ZM41.6688 22.1269L59.9587 40.429L60.0355 40.3521L60.1117 40.2747L41.6688 22.1269ZM41.8697 21.6311H15.9953V21.7234L15.996 21.8156L41.8697 21.6311ZM41.8697 19.151L24.5642 -0.0844107L15.9953 7.62471V19.151H41.8697ZM43.264 14.6415L17.3899 14.5477L17.3897 14.5946V14.6415H43.264ZM42.5662 13.9395L42.6565 -11.9347L42.6113 -11.9348H42.5662V13.9395ZM39.563 12.7474L21.2131 30.9891L21.3312 31.108L21.4509 31.2253L39.563 12.7474ZM39.0564 12.5412L38.6958 -13.3306L38.4979 -13.3279L38.3001 -13.3221L39.0564 12.5412ZM39.0722 14.1432L55.5777 -5.78299L39.0592 -19.4657L22.5513 -5.77018L39.0722 14.1432ZM41.8651 15.2931H67.7394V-6.87205L45.837 -10.2746L41.8651 15.2931ZM36.2698 15.2985L32.3309 -10.2743L10.3955 -6.89561V15.2985H36.2698ZM40.4707 21.3417L58.7667 39.6375L66.345 32.0591V21.3417H40.4707ZM39.0722 22.7402L20.785 41.0448L39.081 59.3234L57.3682 41.036L39.0722 22.7402ZM37.6724 21.3417H11.798V32.0664L19.3852 39.6463L37.6724 21.3417ZM37.6724 19.9883L46.3038 -4.40395L11.798 -16.6141V19.9883H37.6724ZM40.4707 19.9856L49.1537 44.3595L66.345 38.2353V19.9856H40.4707ZM22.2852 21.3482L40.5807 39.6446L48.1595 32.0661V21.3482H22.2852ZM20.8867 22.7466L2.59124 41.043L20.8867 59.3376L39.1822 41.043L20.8867 22.7466ZM19.4883 21.3482H-6.3861V32.0661L1.19277 39.6446L19.4883 21.3482ZM19.4883 19.9976L28.1279 -4.39177L-6.3861 -16.6179V19.9976H19.4883ZM22.2852 19.9962L30.9509 44.3763L48.1595 38.2596V19.9962H22.2852ZM44.2181 21.2171L35.4229 45.5507L35.6506 45.633L35.8798 45.711L44.2181 21.2171ZM43.9436 21.1761L42.6249 -4.66462L42.582 -4.66243L42.5392 -4.6601L43.9436 21.1761ZM43.7483 22.5336L52.4716 -1.82592L52.4269 -1.84193L52.3821 -1.85777L43.7483 22.5336ZM46.0659 25.8372H71.9403V25.6901L71.9386 25.543L46.0659 25.8372ZM46.0659 30.023V55.8974H71.9403V30.023H46.0659ZM43.9655 30.023H18.0911V55.8974H43.9655V30.023ZM43.9655 27.928L18.0963 27.4113L18.0911 27.6696V27.928H43.9655ZM43.2526 27.2152L42.7444 1.3458L42.7334 1.34602L42.7223 1.34625L43.2526 27.2152ZM42.5657 27.928H68.44V27.6743L68.435 27.4207L42.5657 27.928ZM42.5657 30.023V55.8974H68.44V30.023H42.5657ZM35.572 30.023H9.69765V55.8974H35.572V30.023ZM35.572 27.928L9.70281 27.4113L9.69765 27.6696V27.928H35.572ZM34.8591 27.2152L34.351 1.3458L34.3395 1.34603L34.3281 1.34626L34.8591 27.2152ZM34.1735 27.928H60.0479V27.674L60.0429 27.42L34.1735 27.928ZM34.1735 30.023V55.8974H60.0479V30.023H34.1735ZM32.0827 30.023H6.20833V55.8974H32.0827V30.023ZM34.3948 22.5336L26.2469 -2.02436L25.9837 -1.93703L25.7224 -1.84407L34.3948 22.5336ZM34.1831 21.1706L34.5003 -4.70179L34.3813 -4.70325L34.2622 -4.70361L34.1831 21.1706ZM33.9305 21.2172L42.6027 45.5949L42.8666 45.501L43.1284 45.4014L33.9305 21.2172ZM30.6842 30.0231V55.8975H56.5586V30.0231H30.6842ZM29.2789 30.0231H3.40457V55.8975H29.2789V30.0231ZM29.2789 25.8236H55.1533V25.6783L55.1516 25.533L29.2789 25.8236ZM26.034 21.2172L16.9973 45.4621L17.1538 45.5205L17.311 45.5768L26.034 21.2172ZM25.7609 21.1735L26.8217 47.0261L26.8411 47.0253L26.8606 47.0245L25.7609 21.1735ZM25.5629 22.5338L34.2862 -1.82576L34.1195 -1.88546L33.9519 -1.94288L25.5629 22.5338ZM27.8805 25.836H53.7549V25.6887L53.7532 25.5414L27.8805 25.836ZM27.8805 30.0232V55.8975H53.7549V30.0232H27.8805ZM25.7801 30.0232H-0.0942497V55.8975H25.7801V30.0232ZM25.7801 27.9282L-0.0890312 27.4086L-0.0942497 27.6684V27.9282H25.7801ZM25.0727 27.2153L24.7678 1.34277L24.6547 1.3441L24.5416 1.34642L25.0727 27.2153ZM24.3871 27.9282H50.2615V27.6741L50.2565 27.4201L24.3871 27.9282ZM24.3871 30.0232V55.8975H50.2615V30.0232H24.3871ZM17.392 30.0232H-8.48232V55.8975H17.392V30.0232ZM17.392 27.9282L-8.47714 27.4107L-8.48232 27.6694V27.9282H17.392ZM16.6805 27.2153L16.2234 1.34501L16.1868 1.34566L16.1502 1.34641L16.6805 27.2153ZM15.9936 27.9282H41.8679V27.6754L41.863 27.4226L15.9936 27.9282ZM15.9936 30.0232V55.8975H41.8679V30.0232H15.9936ZM13.8959 30.0232H-11.9785V55.8975H13.8959V30.0232ZM16.2121 22.5338L7.91017 -1.97255L7.72424 -1.90956L7.53929 -1.84376L16.2121 22.5338ZM15.9978 21.1722L15.6034 47.0435L15.6178 47.0437L15.6322 47.0439L15.9978 21.1722ZM15.7438 21.2158L24.4161 45.5935L24.6188 45.5214L24.8202 45.4459L15.7438 21.2158ZM12.4975 30.0231V55.8975H38.3719V30.0231H12.4975ZM9.70198 30.0231L9.60459 55.8973L9.65328 55.8975H9.70198V30.0231ZM9 30.7196L-16.8741 30.6151L-16.8743 30.6674V30.7196H9ZM9 33.5179L34.8742 33.6097L34.8744 33.5638V33.5179H9ZM9.70198 34.2199V8.3455H9.65267L9.60336 8.34569L9.70198 34.2199ZM50.2574 34.2199V60.0942H50.3088L50.3601 60.094L50.2574 34.2199ZM50.9539 33.5179H25.0796V33.5674L25.0798 33.617L50.9539 33.5179ZM50.9539 30.7196H76.8283V30.6678L76.8281 30.616L50.9539 30.7196ZM50.2574 30.0231L50.3607 4.14896L50.3091 4.14875H50.2574V30.0231ZM47.4646 30.0231H21.5903V55.8975H47.4646V30.0231ZM47.4646 25.8243H73.339V25.6788L73.3373 25.5334L47.4646 25.8243ZM44.2184 21.2172L52.9418 -3.14231L52.7498 -3.21107L52.5567 -3.2768L44.2184 21.2172ZM10.3982 31.4229L10.4453 5.54857L-15.4762 5.50142L-15.4761 31.4229L10.3982 31.4229ZM49.5553 31.4229H75.4296V5.54853H49.5553V31.4229ZM49.5553 32.8213V58.6956H75.4296V32.8213H49.5553ZM10.3982 32.8213L-15.4761 32.8213L-15.4761 58.6956H10.3982V32.8213ZM11.1002 50.298L36.9744 50.3953L36.9746 50.3467V50.298H11.1002ZM11.7981 51L11.745 76.8743L11.7716 76.8743H11.7981V51ZM48.1554 51L48.2541 25.1258L48.2047 25.1256H48.1554V51ZM48.8574 50.298H22.9831V50.3472L22.9833 50.3965L48.8574 50.298ZM48.8574 36.3148L22.9894 35.7407L22.9831 36.0277V36.3148H48.8574ZM47.4589 36.3148H73.3333V36.0356L73.3273 35.7564L47.4589 36.3148ZM47.4589 49.6015V75.4759H73.3333V49.6015H47.4589ZM12.5001 49.6015H-13.3743V75.4759H12.5001V49.6015ZM12.5001 36.3148L-13.372 35.9679L-13.3743 36.1413V36.3148H12.5001ZM11.7872 35.6087L11.2824 9.73923L11.2678 9.73952L11.2531 9.73982L11.7872 35.6087ZM15.297 47.5066H-10.5774V47.5608L-10.5772 47.615L15.297 47.5066ZM15.9935 48.2031L15.8902 74.0772L15.9418 74.0775H15.9935V48.2031ZM22.9885 48.2031V74.0775H23.0411L23.0936 74.0772L22.9885 48.2031ZM23.685 47.5066L49.5592 47.6099L49.5594 47.5582V47.5066H23.685ZM23.685 37.7132H49.5594V37.6661L49.5592 37.619L23.685 37.7132ZM22.9885 37.0167L23.0918 11.1425L23.0402 11.1423H22.9885V37.0167ZM15.9573 37.0167V11.1423H14.6947L13.4381 11.2652L15.9573 37.0167ZM25.7827 47.5038H-0.09161V47.5509L-0.0914383 47.598L25.7827 47.5038ZM26.4792 48.2003L26.376 74.0744L26.4276 74.0746H26.4792V48.2003ZM33.4716 48.2003L33.5707 22.3261L33.5212 22.3259H33.4716V48.2003ZM34.1736 47.5038L60.0477 47.6083L60.0479 47.556V47.5038H34.1736ZM34.1736 37.7105H60.0479V37.6636L60.0477 37.6167L34.1736 37.7105ZM33.4716 37.014V62.8884H33.5212L33.5707 62.8882L33.4716 37.014ZM26.4458 37.014V11.1397H25.2596L24.0783 11.2482L26.4458 37.014ZM25.7827 37.7105H51.6571V37.6991L51.6571 37.6877L25.7827 37.7105ZM36.2685 47.5064H10.3941V47.5581L10.3943 47.6097L36.2685 47.5064ZM36.9704 48.2029V22.3286H36.9209L36.8713 22.3288L36.9704 48.2029ZM43.9655 48.2029V74.0773H44.0172L44.0688 74.0771L43.9655 48.2029ZM44.662 47.5064L70.5362 47.6097L70.5364 47.5581V47.5064H44.662ZM44.662 37.7131H70.5364V37.6659L70.5362 37.6187L44.662 37.7131ZM43.9655 37.0166L44.0688 11.1424L44.0172 11.1422H43.9655V37.0166ZM36.9343 37.0166V11.1422H35.7562L34.583 11.2493L36.9343 37.0166ZM36.2685 37.7131H62.1428V37.7008L62.1428 37.6885L36.2685 37.7131ZM16.69 38.4164V12.5421H-9.18449L-9.1844 38.4165L16.69 38.4164ZM22.2866 38.4164H48.1609V12.5421H22.2866V38.4164ZM22.2866 46.8033V72.6777H48.1609V46.8033H22.2866ZM16.69 46.8033L-9.18437 46.8034L-9.18428 72.6777H16.69V46.8033ZM27.1812 38.4138V12.5394H1.30512L1.30684 38.4155L27.1812 38.4138ZM32.7756 38.4138H58.6499V12.5394H32.7756V38.4138ZM32.7756 46.8005V72.6749H58.6499V46.8005H32.7756ZM27.1817 46.8005L1.3074 46.8022L1.30911 72.6749H27.1817V46.8005ZM37.6669 38.4164V12.5421H11.7925L11.7926 38.4165L37.6669 38.4164ZM43.2635 38.4164H69.1379V12.5421H43.2635V38.4164ZM43.2635 46.8033V72.6777H69.1379V46.8033H43.2635ZM37.667 46.8033L11.7926 46.8034L11.7927 72.6777H37.667V46.8033ZM39.0673 -16.8744C20.8961 -16.8744 6.20336 -2.13853 6.20336 15.9936H57.9521C57.9521 26.4025 49.5151 34.8744 39.0673 34.8744V-16.8744ZM6.20336 15.9936V19.5758H57.9521V15.9936H6.20336ZM6.20336 19.5758C6.20336 26.8303 9.18107 34.1725 15.1065 39.4395C20.5557 44.2832 27.0896 46.1501 32.7776 46.1501C38.4657 46.1501 44.9996 44.2832 50.4488 39.4395C56.3742 34.1725 59.3519 26.8303 59.3519 19.5758H7.60318C7.60318 12.7879 10.4059 5.79572 16.0689 0.762013C21.2556 -3.8484 27.4396 -5.59861 32.7776 -5.59861C38.1157 -5.59861 44.2997 -3.8484 49.4864 0.762013C55.1493 5.79572 57.9521 12.7879 57.9521 19.5758H6.20336ZM59.3519 19.5758V15.9936H7.60318V19.5758H59.3519ZM59.3519 15.9936C59.3519 27.1395 50.2792 36.2728 39.0673 36.2728V-15.4759C21.6332 -15.4759 7.60318 -1.37442 7.60318 15.9936H59.3519ZM39.0673 36.2728C27.8883 36.2728 18.7882 27.1725 18.7882 15.9936H70.5369C70.5369 -1.40743 56.4684 -15.4759 39.0673 -15.4759V36.2728ZM18.7882 15.9936V19.5758H70.5369V15.9936H18.7882ZM18.7945 19.0022C18.6321 26.3287 21.5089 33.8666 27.5198 39.3026C33.0214 44.2782 39.6484 46.1653 45.3619 46.1653C51.0752 46.1653 57.7037 44.2781 63.2063 39.3005C69.2184 33.8619 72.0933 26.3215 71.9288 18.9951L20.1932 20.1566C20.0394 13.3069 22.7421 6.1241 28.4908 0.923862C33.7299 -3.81544 40.0034 -5.58341 45.3619 -5.58341C50.7204 -5.58341 56.9924 -3.81545 62.2305 0.921698C67.9778 6.11939 70.6824 13.2997 70.5305 20.1494L18.7945 19.0022ZM71.9353 19.5758V15.9936H20.1866V19.5758H71.9353ZM71.9353 15.9936C71.9353 -2.15832 57.2187 -16.8744 39.0673 -16.8744V34.8744C28.6392 34.8744 20.1866 26.4223 20.1866 15.9936H71.9353ZM52.3568 11.1496V10.4531H0.60812V11.1496H52.3568ZM52.3516 10.9706C52.6773 -5.30771 39.0912 -16.4923 25.0347 -16.1196L26.4061 35.6109C13.2428 35.9598 0.303521 25.4212 0.613296 9.9356L52.3516 10.9706ZM25.6955 -16.1287L20.1604 -16.1234L20.2102 35.6253L25.7453 35.62L25.6955 -16.1287ZM19.8109 -16.1207C4.27588 -15.8959 -9.2313 -3.31956 -9.18238 13.3272L42.5661 13.1752C42.6037 25.9723 32.2595 35.4533 20.5597 35.6226L19.8109 -16.1207ZM-9.1823 13.3503L-9.17963 14.0468L42.5687 13.8485L42.566 13.152L-9.1823 13.3503ZM-9.17979 13.9901C-9.15597 28.5131 2.58444 40.4917 17.3372 40.524L17.4503 -11.2246C31.4297 -11.194 42.5463 0.155578 42.5688 13.9053L-9.17979 13.9901ZM17.3938 40.524H22.9903V-11.2247H17.3938V40.524ZM22.9903 40.524C24.9559 40.524 26.9253 40.3272 28.8677 39.9302L18.506 -10.7705C19.9984 -11.0755 21.501 -11.2247 22.9903 -11.2247V40.524ZM-2.18751 14.5798V16.0466H49.5612V14.5798H-2.18751ZM-2.18751 16.0466C-2.18751 3.31772 8.16201 -7.03083 20.8899 -7.03083V44.7179C36.741 44.7179 49.5612 31.8988 49.5612 16.0466H-2.18751ZM20.8899 -7.03083C32.0369 -7.03083 41.2926 0.867007 43.4802 11.3336L-7.17402 21.9205C-4.4559 34.9257 7.02031 44.7179 20.8899 44.7179V-7.03083ZM43.4775 11.3209C41.9901 4.22193 37.5713 -2.35273 30.6932 -6.29301C24.3675 -9.91682 17.5899 -10.4054 12.022 -9.23956C6.4542 -8.07374 0.441477 -4.90706 -3.89919 0.950801C-8.619 7.32032 -10.0283 15.1163 -8.54201 22.2158L42.1086 11.6119C43.4993 18.2549 42.1895 25.6725 37.6787 31.76C33.5471 37.3358 27.8529 40.3166 22.6275 41.4107C17.402 42.5049 10.9907 42.0587 4.9697 38.6094C-1.60374 34.8437 -5.7796 28.5756 -7.17136 21.9332L43.4775 11.3209ZM-8.54338 22.2093C-7.15377 28.8554 -3.65123 34.4077 0.799144 38.4062L35.3841 -0.0881023C38.5365 2.74411 41.0914 6.74693 42.11 11.6185L-8.54338 22.2093ZM-7.78272 19.159V21.6391H43.966V19.159H-7.78272ZM-7.78272 21.6391C-7.78272 28.5916 -5.04924 35.4055 0.0446711 40.4749L36.5482 3.7949C41.3784 8.60184 43.966 15.0587 43.966 21.6391H-7.78272ZM-0.0232058 40.4071L2.07174 42.5075L38.711 5.9631L36.6161 3.86271L-0.0232058 40.4071ZM2.04876 42.4844C12.4373 52.9261 29.337 52.9261 39.7255 42.4844L3.04025 5.98617C12.882 -3.90606 28.8922 -3.90606 38.734 5.98617L2.04876 42.4844ZM39.6965 42.5135L41.7928 40.4131L5.16561 3.85665L3.06927 5.95704L39.6965 42.5135ZM41.7384 40.4675C46.7323 35.4936 49.5597 28.7236 49.5597 21.6391H-2.189C-2.189 14.9268 0.489919 8.51344 5.22006 3.80225L41.7384 40.4675ZM49.5597 21.6391V19.1645H-2.189V21.6391H49.5597ZM40.9723 38.4166C46.9189 33.077 51.0025 25.0783 50.9579 15.9207L-0.790222 16.1726C-0.822757 9.4903 2.16422 3.71439 6.39839 -0.0875835L40.9723 38.4166ZM50.9578 15.9163L50.9473 13.8185L-0.800771 14.0793L-0.7902 16.177L50.9578 15.9163ZM40.6711 34.5932C47.5058 29.4293 52.3563 20.9959 52.3563 11.1506H0.607629C0.607629 3.5973 4.33264 -2.80982 9.47538 -6.69543L40.6711 34.5932ZM49.9101 22.1326L49.9106 22.1315L3.05431 0.167637L3.05382 0.168685L49.9101 22.1326ZM20.2017 37.0239H25.084V-14.7248H20.2017V37.0239ZM-0.790327 11.1496C-0.790327 -1.87887 9.78609 -12.6244 22.989 -12.6244V39.1243C38.5404 39.1243 50.9584 26.5265 50.9584 11.1496H-0.790327ZM22.989 -12.6244H18.0903V39.1243H22.989V-12.6244ZM43.9647 13.25C43.9647 26.7841 32.9616 36.8413 20.5775 37.0212L19.8259 -14.722C5.06911 -14.5077 -7.78402 -2.63244 -7.78402 13.25H43.9647ZM38.3001 -13.3221C31.6443 -13.1275 25.1268 -10.4268 20.2204 -5.48772L56.9336 30.9824C52.2819 35.6652 46.1069 38.2205 39.8126 38.4045L38.3001 -13.3221ZM38.577 12.7474C20.4749 -5.74035 20.4815 -5.74683 20.4882 -5.75331C20.4904 -5.75547 20.497 -5.76196 20.5014 -5.76628C20.5103 -5.77492 20.5191 -5.78355 20.528 -5.79218C20.5457 -5.80945 20.5635 -5.82671 20.5813 -5.84395C20.617 -5.87844 20.6528 -5.91288 20.6887 -5.94729C20.7607 -6.0161 20.8334 -6.08484 20.9069 -6.15347C21.0538 -6.29062 21.2048 -6.42811 21.3599 -6.5656C21.6688 -6.83937 22.0019 -7.11979 22.3606 -7.40198C23.0619 -7.95372 23.9459 -8.57905 25.0214 -9.18644C27.0475 -10.3306 30.6966 -11.9348 35.5725 -11.9348V39.8139C42.2353 39.8139 47.3867 37.6136 50.4683 35.8734C52.0716 34.9679 53.3717 34.0445 54.3571 33.2693C54.8579 32.8753 55.3 32.5017 55.6825 32.1628C55.8744 31.9927 56.0533 31.8296 56.2189 31.675C56.3018 31.5976 56.3816 31.5222 56.4582 31.4489C56.4965 31.4122 56.5341 31.376 56.5709 31.3404C56.5893 31.3226 56.6076 31.3049 56.6256 31.2873C56.6346 31.2786 56.6436 31.2698 56.6525 31.2611C56.657 31.2568 56.6636 31.2502 56.6659 31.2481C56.6725 31.2416 56.6791 31.2351 38.577 12.7474ZM35.4805 -11.9346C20.7861 -11.8824 8.94577 0.0770702 9.00184 14.7405L60.7502 14.5426C60.8033 28.4334 49.5864 39.7642 35.6646 39.8137L35.4805 -11.9346ZM9.00166 14.6415V16.0414H60.7504V14.6415H9.00166ZM9.00166 16.0414C9.00166 25.0111 12.9596 33.0097 19.0069 38.4287L53.5421 -0.110178C57.8758 3.77331 60.7504 9.54981 60.7504 16.0414H9.00166ZM10.4001 19.1593V21.6311H62.1488V19.1593H10.4001ZM10.4001 21.6344C10.401 28.7063 13.2206 35.4837 18.2307 40.4687L54.7305 3.78508C59.4769 8.50763 62.148 14.9281 62.1488 21.6278L10.4001 21.6344ZM18.1848 40.4229L20.2852 42.5233L56.8768 5.93124L54.7764 3.83085L18.1848 40.4229ZM20.3394 42.5774C30.7042 52.8809 47.4439 52.8809 57.8087 42.5774L21.3254 5.87721C31.1447 -3.88401 47.0034 -3.88401 56.8227 5.87721L20.3394 42.5774ZM57.8569 42.5293L59.9587 40.429L23.379 3.82485L21.2772 5.92524L57.8569 42.5293ZM60.1117 40.2747C65.0566 35.2494 67.7935 28.4748 67.7434 21.4466L15.996 21.8156C15.9485 15.1581 18.5411 8.74015 23.226 3.97911L60.1117 40.2747ZM67.744 21.6311V19.151H15.9953V21.6311H67.744ZM59.1752 38.3865C65.1631 32.9994 69.1384 25.032 69.1384 16.0414H17.3897C17.3897 9.52063 20.2826 3.76764 24.5642 -0.0844107L59.1752 38.3865ZM69.1384 16.0414V14.6415H17.3897V16.0414H69.1384ZM69.1382 14.7353C69.1916 0.0165424 57.2929 -11.8836 42.6565 -11.9347L42.4759 39.8137C28.6121 39.7654 17.3393 28.4939 17.3899 14.5477L69.1382 14.7353ZM42.5662 -11.9348C47.4435 -11.9348 51.0946 -10.3298 53.1241 -9.183C54.2009 -8.57451 55.0858 -7.948 55.7879 -7.39518C56.147 -7.11245 56.4804 -6.83149 56.7895 -6.55722C56.9448 -6.41948 57.0959 -6.28175 57.2429 -6.14436C57.3165 -6.0756 57.3892 -6.00675 57.4612 -5.93783C57.4972 -5.90336 57.533 -5.86885 57.5687 -5.83431C57.5865 -5.81704 57.6043 -5.79975 57.622 -5.78246C57.6309 -5.77381 57.6398 -5.76516 57.6486 -5.75651C57.6531 -5.75218 57.6597 -5.74568 57.6619 -5.74352C57.6685 -5.73703 57.6752 -5.73053 39.563 12.7474C21.4509 31.2253 21.4575 31.2318 21.4642 31.2383C21.4664 31.2405 21.4731 31.247 21.4775 31.2513C21.4865 31.2601 21.4954 31.2688 21.5045 31.2776C21.5225 31.2952 21.5407 31.3129 21.5592 31.3308C21.596 31.3664 21.6336 31.4027 21.6719 31.4394C21.7486 31.5128 21.8285 31.5884 21.9114 31.6659C22.0771 31.8207 22.256 31.9841 22.448 32.1544C22.8307 32.4939 23.2731 32.868 23.7741 33.2625C24.7601 34.0388 26.0608 34.9634 27.665 35.8699C30.7493 37.6128 35.902 39.8139 42.5662 39.8139V-11.9348ZM57.913 -5.49441C52.803 -10.6347 45.8541 -13.4304 38.6958 -13.3306L39.4169 38.4131C32.638 38.5075 26.0556 35.8604 21.2131 30.9891L57.913 -5.49441ZM22.5668 34.0694C26.3494 37.2026 31.5365 39.8733 37.8932 40.8608L45.837 -10.2746C49.3285 -9.73216 52.6805 -8.18279 55.5777 -5.78299L22.5668 34.0694ZM15.9907 15.2931V16.0415H67.7394V15.2931H15.9907ZM15.9907 16.0415C15.9907 3.2305 26.421 -7.0414 39.0668 -7.0414V44.7073C54.8357 44.7073 67.7394 31.9756 67.7394 16.0415H15.9907ZM39.0668 -7.0414C51.7291 -7.0414 62.1442 3.24711 62.1442 16.0415H10.3955C10.3955 31.959 23.2812 44.7073 39.0668 44.7073V-7.0414ZM62.1442 16.0415V15.2985H10.3955V16.0415H62.1442ZM40.2087 40.8713C46.6445 39.88 51.8442 37.1668 55.5931 34.0566L22.5513 -5.77018C25.417 -8.14762 28.7742 -9.72644 32.3309 -10.2743L40.2087 40.8713ZM14.5963 19.9855V21.3417H66.345V19.9855H14.5963ZM22.1747 3.04584L20.7762 4.44432L57.3682 41.036L58.7667 39.6375L22.1747 3.04584ZM57.3594 4.43551L55.9596 3.03702L19.3852 39.6463L20.785 41.0448L57.3594 4.43551ZM63.5467 21.3417V19.9883H11.798V21.3417H63.5467ZM29.041 44.3805C32.0412 45.4422 35.4234 46.1058 39.0668 46.1058V-5.64291C41.7313 -5.64291 44.1774 -5.15641 46.3038 -4.40395L29.041 44.3805ZM39.0668 46.1058C42.7132 46.1058 46.116 45.4417 49.1537 44.3595L31.7877 -4.38829C33.9456 -5.15702 36.4062 -5.64291 39.0668 -5.64291V46.1058ZM66.345 19.9856V19.9855H14.5963V19.9856H66.345ZM-3.58915 19.9961V21.3482H48.1595V19.9961H-3.58915ZM3.98971 3.05184L2.59124 4.45025L39.1822 41.043L40.5807 39.6446L3.98971 3.05184ZM39.1822 4.45025L37.7837 3.05184L1.19277 39.6446L2.59124 41.043L39.1822 4.45025ZM45.3626 21.3482V19.9976H-6.3861V21.3482H45.3626ZM10.8486 44.3869C13.8994 45.4676 17.2863 46.115 20.8881 46.115V-5.63372C23.5078 -5.63372 25.9544 -5.16168 28.1279 -4.39177L10.8486 44.3869ZM20.8881 46.115C24.537 46.115 27.9316 45.4494 30.9509 44.3763L13.6195 -4.3839C15.763 -5.14576 18.22 -5.63372 20.8881 -5.63372V46.115ZM48.1595 19.9962V19.9961H-3.58915V19.9962H48.1595ZM53.0134 -3.11654C49.7005 -4.31399 46.1692 -4.8455 42.6249 -4.66462L45.2624 47.0168C41.9045 47.1882 38.5603 46.6847 35.4229 45.5507L53.0134 -3.11654ZM42.5392 -4.6601C13.5187 -3.08263 7.74022 37.2354 35.1146 46.925L52.3821 -1.85777C78.3152 7.32171 72.842 45.5178 45.348 47.0123L42.5392 -4.6601ZM35.0251 46.8932C26.2151 43.7383 20.2991 35.4454 20.1932 26.1313L71.9386 25.543C71.7977 13.1513 63.9674 2.29078 52.4716 -1.82592L35.0251 46.8932ZM20.1916 25.8372V30.023H71.9403V25.8372H20.1916ZM46.0659 4.14867H43.9655V55.8974H46.0659V4.14867ZM69.8398 30.023V27.928H18.0911V30.023H69.8398ZM69.8347 28.4448C70.1363 13.3462 57.8178 1.04972 42.7444 1.3458L43.7608 53.0845C29.4812 53.365 17.8106 41.7161 18.0963 27.4113L69.8347 28.4448ZM42.7223 1.34625C28.1597 1.64478 16.4067 13.6684 16.6963 28.4354L68.435 27.4207C68.7095 41.4142 57.572 52.8014 43.7829 53.0841L42.7223 1.34625ZM16.6913 27.928V30.023H68.44V27.928H16.6913ZM42.5657 4.14867H35.572V55.8974H42.5657V4.14867ZM61.4464 30.023V27.928H9.69765V30.023H61.4464ZM61.4412 28.4448C61.7428 13.3461 49.4242 1.04971 34.351 1.3458L35.3673 53.0845C21.0878 53.365 9.41708 41.7161 9.70281 27.4113L61.4412 28.4448ZM34.3281 1.34626C19.7015 1.64652 8.01542 13.734 8.30417 28.4361L60.0429 27.42C60.3165 41.3497 49.2443 52.7997 35.3902 53.0841L34.3281 1.34626ZM8.29918 27.928V30.023H60.0479V27.928H8.29918ZM34.1735 4.14867H32.0827V55.8974H34.1735V4.14867ZM57.957 30.023V25.8263H6.20833V30.023H57.957ZM57.957 25.8263C57.957 35.523 51.7599 43.8189 43.0672 46.9113L25.7224 -1.84407C14.3261 2.21018 6.20833 13.0645 6.20833 25.8263H57.957ZM42.5426 47.0916C71.003 37.649 64.4717 -4.33428 34.5003 -4.70179L33.8659 47.043C5.47222 46.6949 -0.715953 6.92139 26.2469 -2.02436L42.5426 47.0916ZM34.2622 -4.70361C30.9007 -4.71389 27.6757 -4.08652 24.7325 -2.96713L43.1284 45.4014C40.3464 46.4595 37.2927 47.0546 34.104 47.0449L34.2622 -4.70361ZM25.2582 -3.16059C13.3148 1.08819 4.80986 12.4762 4.80986 25.8264H56.5586C56.5586 34.9312 50.752 42.6958 42.6027 45.5949L25.2582 -3.16059ZM4.80986 25.8264V30.0231H56.5586V25.8264H4.80986ZM30.6842 4.14875H29.2789V55.8975H30.6842V4.14875ZM55.1533 30.0231V25.8236H3.40457V30.0231H55.1533ZM55.1516 25.533C55.0062 12.5849 46.824 1.17864 34.7571 -3.14245L17.311 45.5768C9.02447 42.6094 3.50406 34.8271 3.4062 26.1142L55.1516 25.533ZM35.0708 -3.02782C31.8119 -4.2425 28.2762 -4.83123 24.6612 -4.67745L26.8606 47.0245C23.4319 47.1704 20.0818 46.6118 16.9973 45.4621L35.0708 -3.02782ZM24.7001 -4.67907C-4.6855 -3.47334 -10.6244 37.483 17.174 47.0104L33.9519 -1.94288C60.2866 7.08293 54.6615 45.8838 26.8217 47.0261L24.7001 -4.67907ZM16.8397 46.8933C8.04 43.7421 2.11402 35.4553 2.00785 26.1306L53.7532 25.5414C53.612 13.1391 45.7717 2.28726 34.2862 -1.82576L16.8397 46.8933ZM2.00617 25.836V30.0232H53.7549V25.836H2.00617ZM27.8805 4.14883H25.7801V55.8975H27.8805V4.14883ZM51.6545 30.0232V27.9282H-0.0942497V30.0232H51.6545ZM51.6492 28.4478C51.9511 13.4213 39.753 1.16621 24.7678 1.34277L25.3775 53.0879C11.1819 53.2551 -0.375012 41.6457 -0.0890312 27.4086L51.6492 28.4478ZM24.5416 1.34642C9.91453 1.64671 -1.77102 13.7347 -1.48226 28.4363L50.2565 27.4201C50.5301 41.3493 39.4584 52.7998 25.6037 53.0842L24.5416 1.34642ZM-1.48725 27.9282V30.0232H50.2615V27.9282H-1.48725ZM24.3871 4.14883H17.392V55.8975H24.3871V4.14883ZM43.2664 30.0232V27.9282H-8.48232V30.0232H43.2664ZM43.2612 28.4457C43.5629 13.3659 31.2753 1.07906 16.2234 1.34501L17.1376 53.0856C2.87842 53.3376 -8.76294 41.6978 -8.47714 27.4107L43.2612 28.4457ZM16.1502 1.34641C1.58719 1.64495 -10.1644 13.6686 -9.87585 28.4338L41.863 27.4226C42.1364 41.4144 31.0004 52.8016 17.2108 53.0842L16.1502 1.34641ZM-9.88079 27.9282V30.0232H41.8679V27.9282H-9.88079ZM15.9936 4.14883H13.8959V55.8975H15.9936V4.14883ZM39.7702 30.0232V25.8278H-11.9785V30.0232H39.7702ZM39.7702 25.8278C39.7702 35.5628 33.5405 43.8319 24.8849 46.9113L7.53929 -1.84376C-3.81991 2.1975 -11.9785 13.0278 -11.9785 25.8278H39.7702ZM24.514 47.0401C52.7749 37.4663 46.2342 -4.27755 16.3633 -4.69962L15.6322 47.0439C-12.6676 46.6441 -18.8622 7.09705 7.91017 -1.97255L24.514 47.0401ZM16.3921 -4.69919C13.149 -4.74863 9.84487 -4.20464 6.66735 -3.01437L24.8202 45.4459C21.805 46.5754 18.6732 47.0903 15.6034 47.0435L16.3921 -4.69919ZM7.07146 -3.16192C-4.88787 1.09259 -13.3768 12.4943 -13.3768 25.8277H38.3719C38.3719 34.9158 32.5815 42.6887 24.4161 45.5935L7.07146 -3.16192ZM-13.3768 25.8277V30.0231H38.3719V25.8277H-13.3768ZM12.4975 4.14875H9.70198V55.8975H12.4975V4.14875ZM9.79937 4.14894C-4.87317 4.09371 -16.8149 15.9411 -16.8741 30.6151L34.8741 30.8241C34.818 44.7258 23.5048 55.9496 9.60459 55.8973L9.79937 4.14894ZM-16.8743 30.7196V33.5179H34.8744V30.7196H-16.8743ZM-16.8742 33.4261C-16.9265 48.1691 -4.9616 60.1503 9.80059 60.094L9.60336 8.34569C23.5889 8.29239 34.9237 19.6432 34.8742 33.6097L-16.8742 33.4261ZM9.70198 60.0942H50.2574V8.3455H9.70198V60.0942ZM50.3601 60.094C65.0363 60.0357 76.8843 48.0919 76.8281 33.4187L25.0798 33.617C25.0265 19.7161 36.2509 8.40089 50.1547 8.34571L50.3601 60.094ZM76.8283 33.5179V30.7196H25.0796V33.5179H76.8283ZM76.8281 30.616C76.7696 16.0239 64.955 4.20721 50.3607 4.14896L50.1542 55.8973C36.328 55.8421 25.1352 44.6473 25.0798 30.8232L76.8281 30.616ZM50.2574 4.14875H47.4646V55.8975H50.2574V4.14875ZM73.339 30.0231V25.8243H21.5903V30.0231H73.339ZM73.3373 25.5334C73.1918 12.5857 65.0066 1.17824 52.9418 -3.14231L35.4949 45.5766C27.2105 42.6099 21.6899 34.8317 21.5919 26.1151L73.3373 25.5334ZM52.5567 -3.2768L52.5565 -3.27688L35.8798 45.711L35.88 45.7111L52.5567 -3.2768ZM10.3512 57.2972C23.4551 57.321 36.4978 57.2972 49.5553 57.2972V5.54853C36.3642 5.54853 23.4943 5.57231 10.4453 5.54857L10.3512 57.2972ZM23.6809 31.4229V32.8213H75.4296V31.4229H23.6809ZM49.5553 6.94694H10.3982V58.6956H49.5553V6.94694ZM36.2726 32.8212L36.2726 31.4228L-15.4761 31.4229L-15.4761 32.8213L36.2726 32.8212ZM-14.7741 36.3148V50.298H36.9746V36.3148H-14.7741ZM-14.774 50.2007C-14.8292 64.8933 -2.95027 76.8442 11.745 76.8743L11.8511 25.1257C25.7731 25.1542 37.0267 36.4762 36.9744 50.3953L-14.774 50.2007ZM11.7981 76.8743H48.1554V25.1256H11.7981V76.8743ZM48.0568 76.8742C62.8128 76.9304 74.7877 64.9541 74.7316 50.1996L22.9833 50.3965C22.9301 36.4185 34.2747 25.0726 48.2541 25.1258L48.0568 76.8742ZM74.7318 50.298V36.3148H22.9831V50.298H74.7318ZM74.7254 36.8889C74.8881 29.5597 72.0091 22.0206 65.9966 16.5851C60.494 11.6106 53.868 9.72593 48.1584 9.72593C42.4485 9.72593 35.8258 11.6106 30.3254 16.5803C24.3157 22.0102 21.4324 29.5438 21.5906 36.8731L73.3273 35.7564C73.4752 42.6094 70.7642 49.7857 65.0181 54.9775C59.7813 59.709 53.5134 61.4746 48.1584 61.4746C42.8036 61.4746 36.5324 59.709 31.2933 54.9727C25.5442 49.7754 22.8373 42.5935 22.9894 35.7407L74.7254 36.8889ZM21.5846 36.3148V49.6015H73.3333V36.3148H21.5846ZM47.4589 23.7272H12.5001V75.4759H47.4589V23.7272ZM38.3744 49.6015V36.3148H-13.3743V49.6015H38.3744ZM38.3721 36.6616C38.575 21.5265 26.1788 9.4486 11.2824 9.73923L12.2919 61.4781C-1.81613 61.7533 -13.5643 50.3146 -13.372 35.9679L38.3721 36.6616ZM11.2531 9.73982C-3.20877 10.0384 -14.9171 21.905 -14.7729 36.5692L36.9733 36.0604C37.1099 49.9564 26.015 61.1948 12.3212 61.4775L11.2531 9.73982ZM-10.5774 37.7132V47.5066H41.1713V37.7132H-10.5774ZM-10.5772 47.615C-10.5161 62.201 1.29361 74.019 15.8902 74.0772L16.0968 22.329C29.9253 22.3842 41.1132 33.5802 41.1711 47.3982L-10.5772 47.615ZM15.9935 74.0775H22.9885V22.3288H15.9935V74.0775ZM23.0936 74.0772C37.6839 74.018 49.5009 62.2048 49.5592 47.6099L-2.1891 47.4033C-2.13391 33.5764 9.06122 22.3851 22.8835 22.329L23.0936 74.0772ZM49.5594 47.5066V37.7132H-2.18931V47.5066H49.5594ZM49.5592 37.619C49.506 23.0143 37.6808 11.2008 23.0918 11.1425L22.8853 62.8908C9.06431 62.8356 -2.13874 51.6441 -2.18913 37.8075L49.5592 37.619ZM22.9885 11.1423H15.9573V62.891H22.9885V11.1423ZM13.4381 11.2652C0.457409 12.5351 -10.6028 23.3977 -10.5773 37.7591L41.1713 37.6674C41.1955 51.3136 30.6738 61.5749 18.4765 62.7681L13.4381 11.2652ZM-0.0914383 47.598C-0.0382385 62.2067 11.7909 74.0162 26.376 74.0744L26.5825 22.3261C40.3995 22.3813 51.6065 33.569 51.6569 47.4096L-0.0914383 47.598ZM26.4792 74.0746H33.4716V22.3259H26.4792V74.0746ZM33.3724 74.0744C48.0479 74.1307 59.9885 62.2808 60.0477 47.6083L8.29942 47.3993C8.35554 33.4991 19.6676 22.2728 33.5707 22.3261L33.3724 74.0744ZM60.0479 47.5038V37.7105H8.29921V47.5038H60.0479ZM60.0477 37.6167C59.9945 22.9261 48.0382 11.0836 33.3724 11.1398L33.5707 62.8882C19.6773 62.9414 8.34986 51.7226 8.29938 37.8044L60.0477 37.6167ZM33.4716 11.1397H26.4458V62.8884H33.4716V11.1397ZM24.0783 11.2482C11.0207 12.448 -0.104285 23.3409 -0.0915995 37.7333L51.6571 37.6877C51.6691 51.3611 41.0886 61.6519 28.8133 62.7798L24.0783 11.2482ZM-0.09161 37.7105V47.5038H51.6571V37.7105H-0.09161ZM10.3943 47.6097C10.4529 62.2843 22.3953 74.1333 37.0696 74.0771L36.8713 22.3288C50.7733 22.2755 62.0872 33.5009 62.1426 47.4032L10.3943 47.6097ZM36.9704 74.0773H43.9655V22.3286H36.9704V74.0773ZM44.0688 74.0771C58.6619 74.0188 70.4779 62.2033 70.5362 47.6097L18.7879 47.4032C18.8431 33.5776 30.0372 22.384 43.8622 22.3288L44.0688 74.0771ZM70.5364 47.5064V37.7131H18.7877V47.5064H70.5364ZM70.5362 37.6187C70.4829 23.0101 58.6538 11.2007 44.0688 11.1424L43.8622 62.8907C30.0453 62.8356 18.8383 51.648 18.7878 37.8075L70.5362 37.6187ZM43.9655 11.1422H36.9343V62.8909H43.9655V11.1422ZM34.583 11.2493C21.5705 12.4367 10.3804 23.2843 10.3941 37.7376L62.1428 37.6885C62.1558 51.4229 51.5102 61.6684 39.2856 62.7839L34.583 11.2493ZM10.3941 37.7131V47.5064H62.1428V37.7131H10.3941ZM16.69 64.2908H22.2866V12.5421H16.69V64.2908ZM-3.58778 38.4164V46.8033H48.1609V38.4164H-3.58778ZM22.2866 20.929H16.69V72.6777H22.2866V20.929ZM42.5643 46.8032L42.5643 38.4164L-9.1844 38.4165L-9.18437 46.8034L42.5643 46.8032ZM27.1812 64.2881H32.7756V12.5394H27.1812V64.2881ZM6.90121 38.4138V46.8005H58.6499V38.4138H6.90121ZM32.7756 20.9262H27.1817V72.6749H32.7756V20.9262ZM53.0561 46.7988L53.0555 38.4121L1.30684 38.4155L1.3074 46.8022L53.0561 46.7988ZM37.6669 64.2908H43.2635V12.5421H37.6669V64.2908ZM17.3892 38.4164V46.8033H69.1379V38.4164H17.3892ZM43.2635 20.929H37.667V72.6777H43.2635V20.929ZM63.5413 46.8032L63.5413 38.4164L11.7926 38.4165L11.7926 46.8034L63.5413 46.8032Z" fill="#0C54A0" mask="url(#path-1-inside-1_4423_4117)"/>
<path d="M8.34375 8.8125C8.21943 8.8125 8.1002 8.86189 8.01229 8.94979C7.92439 9.0377 7.875 9.15693 7.875 9.28125V10.2188C7.875 10.3431 7.92439 10.4623 8.01229 10.5502C8.1002 10.6381 8.21943 10.6875 8.34375 10.6875C8.46807 10.6875 8.5873 10.6381 8.67521 10.5502C8.76311 10.4623 8.8125 10.3431 8.8125 10.2188V9.28125C8.8125 9.15693 8.76311 9.0377 8.67521 8.94979C8.5873 8.86189 8.46807 8.8125 8.34375 8.8125Z" fill="#0C54A0"/>
<path d="M8.34375 7.875C8.46807 7.875 8.5873 7.82561 8.67521 7.73771C8.76311 7.6498 8.8125 7.53057 8.8125 7.40625V6.46875C8.8125 6.34443 8.76311 6.2252 8.67521 6.13729C8.5873 6.04939 8.46807 6 8.34375 6C8.21943 6 8.1002 6.04939 8.01229 6.13729C7.92439 6.2252 7.875 6.34443 7.875 6.46875V7.40625C7.875 7.53057 7.92439 7.6498 8.01229 7.73771C8.1002 7.82561 8.21943 7.875 8.34375 7.875Z" fill="#0C54A0"/>
<path d="M6.46875 8.8125H7.40625C7.53057 8.8125 7.6498 8.76311 7.73771 8.67521C7.82561 8.5873 7.875 8.46807 7.875 8.34375C7.875 8.21943 7.82561 8.1002 7.73771 8.01229C7.6498 7.92439 7.53057 7.875 7.40625 7.875H6.46875C6.34443 7.875 6.2252 7.92439 6.13729 8.01229C6.04939 8.1002 6 8.21943 6 8.34375C6 8.46807 6.04939 8.5873 6.13729 8.67521C6.2252 8.76311 6.34443 8.8125 6.46875 8.8125Z" fill="#0C54A0"/>
<path d="M9.28125 8.8125H10.2188C10.3431 8.8125 10.4623 8.76311 10.5502 8.67521C10.6381 8.5873 10.6875 8.46807 10.6875 8.34375C10.6875 8.21943 10.6381 8.1002 10.5502 8.01229C10.4623 7.92439 10.3431 7.875 10.2188 7.875H9.28125C9.15693 7.875 9.0377 7.92439 8.94979 8.01229C8.86189 8.1002 8.8125 8.21943 8.8125 8.34375C8.8125 8.46807 8.86189 8.5873 8.94979 8.67521C9.0377 8.76311 9.15693 8.8125 9.28125 8.8125Z" fill="#0C54A0"/>
<path d="M57.3438 41.8125C57.2194 41.8125 57.1002 41.8619 57.0123 41.9498C56.9244 42.0377 56.875 42.1569 56.875 42.2812V43.2188C56.875 43.3431 56.9244 43.4623 57.0123 43.5502C57.1002 43.6381 57.2194 43.6875 57.3438 43.6875C57.4681 43.6875 57.5873 43.6381 57.6752 43.5502C57.7631 43.4623 57.8125 43.3431 57.8125 43.2188V42.2812C57.8125 42.1569 57.7631 42.0377 57.6752 41.9498C57.5873 41.8619 57.4681 41.8125 57.3438 41.8125Z" fill="#0C54A0"/>
<path d="M57.3438 40.875C57.4681 40.875 57.5873 40.8256 57.6752 40.7377C57.7631 40.6498 57.8125 40.5306 57.8125 40.4062V39.4688C57.8125 39.3444 57.7631 39.2252 57.6752 39.1373C57.5873 39.0494 57.4681 39 57.3438 39C57.2194 39 57.1002 39.0494 57.0123 39.1373C56.9244 39.2252 56.875 39.3444 56.875 39.4688V40.4062C56.875 40.5306 56.9244 40.6498 57.0123 40.7377C57.1002 40.8256 57.2194 40.875 57.3438 40.875Z" fill="#0C54A0"/>
<path d="M55.4688 41.8125H56.4062C56.5306 41.8125 56.6498 41.7631 56.7377 41.6752C56.8256 41.5873 56.875 41.4681 56.875 41.3438C56.875 41.2194 56.8256 41.1002 56.7377 41.0123C56.6498 40.9244 56.5306 40.875 56.4062 40.875H55.4688C55.3444 40.875 55.2252 40.9244 55.1373 41.0123C55.0494 41.1002 55 41.2194 55 41.3438C55 41.4681 55.0494 41.5873 55.1373 41.6752C55.2252 41.7631 55.3444 41.8125 55.4688 41.8125Z" fill="#0C54A0"/>
<path d="M58.2812 41.8125H59.2188C59.3431 41.8125 59.4623 41.7631 59.5502 41.6752C59.6381 41.5873 59.6875 41.4681 59.6875 41.3438C59.6875 41.2194 59.6381 41.1002 59.5502 41.0123C59.4623 40.9244 59.3431 40.875 59.2188 40.875H58.2812C58.1569 40.875 58.0377 40.9244 57.9498 41.0123C57.8619 41.1002 57.8125 41.2194 57.8125 41.3438C57.8125 41.4681 57.8619 41.5873 57.9498 41.6752C58.0377 41.7631 58.1569 41.8125 58.2812 41.8125Z" fill="#0C54A0"/>
</svg>
