<svg width="14" height="14" viewBox="0 0 14 14" fill="none" xmlns="http://www.w3.org/2000/svg">
<path d="M1.31251 11.375C1.31311 11.955 1.54377 12.511 1.95388 12.9211C2.36398 13.3312 2.92003 13.5619 3.50001 13.5625H10.5C11.08 13.5619 11.636 13.3312 12.0461 12.9211C12.4562 12.511 12.6869 11.955 12.6875 11.375V2.625C12.6869 2.04503 12.4562 1.48898 12.0461 1.07887C11.636 0.668765 11.08 0.438104 10.5 0.437502H5.97626C5.66306 0.436258 5.35338 0.503481 5.06888 0.634464C4.82894 0.743587 4.61066 0.895115 4.42453 1.08176L1.95703 3.54926C1.7711 3.73489 1.61977 3.95221 1.51017 4.19099V4.19151L1.50947 4.19274V4.19458C1.37889 4.47896 1.31168 4.78832 1.31251 5.10125V11.375ZM10.5 1.3125C10.848 1.3129 11.1816 1.4513 11.4277 1.69736C11.6737 1.94342 11.8121 2.27703 11.8125 2.625V11.375C11.8121 11.723 11.6737 12.0566 11.4277 12.3026C11.1816 12.5487 10.848 12.6871 10.5 12.6875H3.50001C3.15203 12.6871 2.81842 12.5487 2.57236 12.3026C2.32631 12.0566 2.1879 11.723 2.18751 11.375V5.10125C2.18759 5.00412 2.19836 4.90728 2.21962 4.8125H4.37501C4.72298 4.81211 5.05659 4.6737 5.30265 4.42764C5.54871 4.18159 5.68711 3.84798 5.68751 3.5V1.3447C5.78228 1.32339 5.87912 1.31259 5.97626 1.3125H10.5ZM4.81251 1.93113V3.5C4.81237 3.61599 4.76623 3.72719 4.68421 3.80921C4.6022 3.89122 4.491 3.93736 4.37501 3.9375H2.80613L4.81251 1.93113Z" fill="white" stroke="white" stroke-width="0.2"/>
<path d="M7 9.1875H4.375C4.25897 9.1875 4.14769 9.23359 4.06564 9.31564C3.98359 9.39769 3.9375 9.50897 3.9375 9.625C3.9375 9.74103 3.98359 9.85231 4.06564 9.93436C4.14769 10.0164 4.25897 10.0625 4.375 10.0625H7C7.11603 10.0625 7.22731 10.0164 7.30936 9.93436C7.39141 9.85231 7.4375 9.74103 7.4375 9.625C7.4375 9.50897 7.39141 9.39769 7.30936 9.31564C7.22731 9.23359 7.11603 9.1875 7 9.1875Z" fill="white" stroke="white" stroke-width="0.2"/>
<path d="M3.9375 7C3.9375 7.11603 3.98359 7.22731 4.06564 7.30936C4.14769 7.39141 4.25897 7.4375 4.375 7.4375H9.625C9.74103 7.4375 9.85231 7.39141 9.93436 7.30936C10.0164 7.22731 10.0625 7.11603 10.0625 7C10.0625 6.88397 10.0164 6.77269 9.93436 6.69064C9.85231 6.60859 9.74103 6.5625 9.625 6.5625H4.375C4.25897 6.5625 4.14769 6.60859 4.06564 6.69064C3.98359 6.77269 3.9375 6.88397 3.9375 7Z" fill="white" stroke="white" stroke-width="0.2"/>
</svg>
