<svg width="60" height="60" viewBox="0 0 60 60" fill="none" xmlns="http://www.w3.org/2000/svg">
<circle cx="30" cy="30" r="30" fill="#0C54A0" fill-opacity="0.1"/>
<path d="M36.5797 21.7253C34.8223 19.9679 32.4856 19 30.0002 19C27.5148 19 25.1781 19.9679 23.4207 21.7253C21.6632 23.4829 20.6953 25.8195 20.6953 28.3049C20.6953 33.3327 25.4493 37.5147 28.0033 39.7613C28.3582 40.0735 28.6647 40.3432 28.9089 40.5713C29.2149 40.857 29.6076 41 30.0002 41C30.3929 41 30.7855 40.857 31.0914 40.5713C31.3356 40.3431 31.6421 40.0735 31.9971 39.7613C34.5511 37.5146 39.3051 33.3327 39.3051 28.3049C39.305 25.8195 38.3372 23.4829 36.5797 21.7253ZM31.1458 38.7938C30.7831 39.1128 30.4699 39.3884 30.2117 39.6296C30.0931 39.7403 29.9073 39.7403 29.7886 39.6296C29.5304 39.3883 29.2171 39.1128 28.8544 38.7937C26.4534 36.6816 21.9839 32.75 21.9839 28.3049C21.9839 23.8848 25.58 20.2888 30.0001 20.2888C34.4202 20.2888 38.0163 23.8848 38.0163 28.3049C38.0163 32.75 33.5469 36.6816 31.1458 38.7938Z" fill="#0C54A0"/>
<path d="M30 23.8528C27.7389 23.8528 25.8994 25.6922 25.8994 27.9533C25.8994 30.2144 27.7389 32.0538 30 32.0538C32.261 32.0538 34.1005 30.2144 34.1005 27.9533C34.1005 25.6922 32.261 23.8528 30 23.8528ZM30 30.7651C28.4495 30.7651 27.1881 29.5037 27.1881 27.9533C27.1881 26.4029 28.4495 25.1415 30 25.1415C31.5504 25.1415 32.8118 26.4029 32.8118 27.9533C32.8118 29.5037 31.5504 30.7651 30 30.7651Z" fill="#0C54A0"/>
</svg>
