<svg width="32" height="32" viewBox="0 0 32 32" fill="none" xmlns="http://www.w3.org/2000/svg">
<path d="M3.2248 25.875C1.4748 23.95 0.424805 21.85 0.424805 18.35C0.424805 12.225 4.79981 6.8 10.9248 4L12.4998 6.275C6.7248 9.425 5.4998 13.45 5.14981 16.075C6.02481 15.55 7.2498 15.375 8.4748 15.55C11.6248 15.9 14.0748 18.35 14.0748 21.675C14.0748 23.25 13.3748 24.825 12.3248 26.05C11.0998 27.275 9.69981 27.8 7.94981 27.8C6.02481 27.8 4.2748 26.925 3.2248 25.875ZM20.7248 25.875C18.9748 23.95 17.9248 21.85 17.9248 18.35C17.9248 12.225 22.2998 6.8 28.4248 4L29.9998 6.275C24.2248 9.425 22.9998 13.45 22.6498 16.075C23.5248 15.55 24.7498 15.375 25.9748 15.55C29.1248 15.9 31.5748 18.35 31.5748 21.675C31.5748 23.25 30.8748 24.825 29.8248 26.05C28.7748 27.275 27.1998 27.8 25.4498 27.8C23.5248 27.8 21.7748 26.925 20.7248 25.875Z" fill="white"/>
</svg>
