<svg width="60" height="60" viewBox="0 0 60 60" fill="none" xmlns="http://www.w3.org/2000/svg">
<path d="M4 45.8484H55.9631" stroke="#E30613" stroke-width="1.75781" stroke-miterlimit="10" stroke-linecap="round" stroke-linejoin="round"/>
<path d="M5.67627 45.8483V15.6762C5.67627 14.7505 6.42676 14 7.35247 14H52.6107C53.5364 14 54.2869 14.7505 54.2869 15.6762V45.8484" stroke="#E30613" stroke-width="1.75781" stroke-miterlimit="10" stroke-linecap="round" stroke-linejoin="round"/>
<path d="M38.1517 14C36.3259 16.5378 33.3469 18.1905 29.9818 18.1905C26.6168 18.1905 23.6377 16.5379 21.812 14" stroke="#E30613" stroke-width="1.75781" stroke-miterlimit="10" stroke-linecap="round" stroke-linejoin="round"/>
<path d="M21.707 14C19.6782 17.5071 15.8862 19.8667 11.5431 19.8667C9.40591 19.8667 7.40214 19.2953 5.67627 18.2969" stroke="#E30613" stroke-width="1.75781" stroke-miterlimit="10" stroke-linecap="round" stroke-linejoin="round"/>
<path d="M18.8361 17.374C17.6783 25.1194 12.5954 31.5816 5.67627 34.6721" stroke="#E30613" stroke-width="1.75781" stroke-miterlimit="10" stroke-linecap="round" stroke-linejoin="round"/>
<path d="M10.4604 32.1494C13.8665 36.0893 16.031 40.8551 16.838 45.8481" stroke="#E30613" stroke-width="1.75781" stroke-miterlimit="10" stroke-linecap="round" stroke-linejoin="round"/>
<path d="M5.67627 30.9255C8.9235 29.1496 11.6067 26.4665 13.3825 23.2192" stroke="#E30613" stroke-width="1.75781" stroke-miterlimit="10" stroke-linecap="round" stroke-linejoin="round"/>
<path d="M13.4063 45.6985C12.643 41.2862 10.5973 37.1791 7.49023 33.8208" stroke="#E30613" stroke-width="1.75781" stroke-miterlimit="10" stroke-linecap="round" stroke-linejoin="round"/>
<path d="M38.2563 14C40.2851 17.5071 44.0771 19.8667 48.4202 19.8667C50.5574 19.8667 52.5612 19.2953 54.287 18.2969" stroke="#E30613" stroke-width="1.75781" stroke-miterlimit="10" stroke-linecap="round" stroke-linejoin="round"/>
<path d="M41.1274 17.374C42.2853 25.1194 47.3681 31.5816 54.2873 34.6721" stroke="#E30613" stroke-width="1.75781" stroke-miterlimit="10" stroke-linecap="round" stroke-linejoin="round"/>
<path d="M47.3772 34.9526C45.1845 38.2643 43.7494 41.9884 43.1255 45.8483" stroke="#E30613" stroke-width="1.75781" stroke-miterlimit="10" stroke-linecap="round" stroke-linejoin="round"/>
<path d="M54.2872 30.9256C49.8753 28.5127 46.5045 24.4249 45.0361 19.5232" stroke="#E30613" stroke-width="1.75781" stroke-miterlimit="10" stroke-linecap="round" stroke-linejoin="round"/>
<path d="M46.5566 45.6985C47.32 41.2862 49.3657 37.1791 52.4727 33.8208" stroke="#E30613" stroke-width="1.75781" stroke-miterlimit="10" stroke-linecap="round" stroke-linejoin="round"/>
<path d="M22.3438 32.8125C22.2194 32.8125 22.1002 32.8619 22.0123 32.9498C21.9244 33.0377 21.875 33.1569 21.875 33.2812V34.2188C21.875 34.3431 21.9244 34.4623 22.0123 34.5502C22.1002 34.6381 22.2194 34.6875 22.3438 34.6875C22.4681 34.6875 22.5873 34.6381 22.6752 34.5502C22.7631 34.4623 22.8125 34.3431 22.8125 34.2188V33.2812C22.8125 33.1569 22.7631 33.0377 22.6752 32.9498C22.5873 32.8619 22.4681 32.8125 22.3438 32.8125Z" fill="#E30613"/>
<path d="M22.3438 31.875C22.4681 31.875 22.5873 31.8256 22.6752 31.7377C22.7631 31.6498 22.8125 31.5306 22.8125 31.4062V30.4688C22.8125 30.3444 22.7631 30.2252 22.6752 30.1373C22.5873 30.0494 22.4681 30 22.3438 30C22.2194 30 22.1002 30.0494 22.0123 30.1373C21.9244 30.2252 21.875 30.3444 21.875 30.4688V31.4062C21.875 31.5306 21.9244 31.6498 22.0123 31.7377C22.1002 31.8256 22.2194 31.875 22.3438 31.875Z" fill="#E30613"/>
<path d="M20.4688 32.8125H21.4062C21.5306 32.8125 21.6498 32.7631 21.7377 32.6752C21.8256 32.5873 21.875 32.4681 21.875 32.3438C21.875 32.2194 21.8256 32.1002 21.7377 32.0123C21.6498 31.9244 21.5306 31.875 21.4062 31.875H20.4688C20.3444 31.875 20.2252 31.9244 20.1373 32.0123C20.0494 32.1002 20 32.2194 20 32.3438C20 32.4681 20.0494 32.5873 20.1373 32.6752C20.2252 32.7631 20.3444 32.8125 20.4688 32.8125Z" fill="#E30613"/>
<path d="M23.2812 32.8125H24.2188C24.3431 32.8125 24.4623 32.7631 24.5502 32.6752C24.6381 32.5873 24.6875 32.4681 24.6875 32.3438C24.6875 32.2194 24.6381 32.1002 24.5502 32.0123C24.4623 31.9244 24.3431 31.875 24.2188 31.875H23.2812C23.1569 31.875 23.0377 31.9244 22.9498 32.0123C22.8619 32.1002 22.8125 32.2194 22.8125 32.3438C22.8125 32.4681 22.8619 32.5873 22.9498 32.6752C23.0377 32.7631 23.1569 32.8125 23.2812 32.8125Z" fill="#E30613"/>
<path d="M33.3438 25.8125C33.2194 25.8125 33.1002 25.8619 33.0123 25.9498C32.9244 26.0377 32.875 26.1569 32.875 26.2812V27.2188C32.875 27.3431 32.9244 27.4623 33.0123 27.5502C33.1002 27.6381 33.2194 27.6875 33.3438 27.6875C33.4681 27.6875 33.5873 27.6381 33.6752 27.5502C33.7631 27.4623 33.8125 27.3431 33.8125 27.2188V26.2812C33.8125 26.1569 33.7631 26.0377 33.6752 25.9498C33.5873 25.8619 33.4681 25.8125 33.3438 25.8125Z" fill="#E30613"/>
<path d="M33.3438 24.875C33.4681 24.875 33.5873 24.8256 33.6752 24.7377C33.7631 24.6498 33.8125 24.5306 33.8125 24.4062V23.4688C33.8125 23.3444 33.7631 23.2252 33.6752 23.1373C33.5873 23.0494 33.4681 23 33.3438 23C33.2194 23 33.1002 23.0494 33.0123 23.1373C32.9244 23.2252 32.875 23.3444 32.875 23.4688V24.4062C32.875 24.5306 32.9244 24.6498 33.0123 24.7377C33.1002 24.8256 33.2194 24.875 33.3438 24.875Z" fill="#E30613"/>
<path d="M31.4688 25.8125H32.4062C32.5306 25.8125 32.6498 25.7631 32.7377 25.6752C32.8256 25.5873 32.875 25.4681 32.875 25.3438C32.875 25.2194 32.8256 25.1002 32.7377 25.0123C32.6498 24.9244 32.5306 24.875 32.4062 24.875H31.4688C31.3444 24.875 31.2252 24.9244 31.1373 25.0123C31.0494 25.1002 31 25.2194 31 25.3438C31 25.4681 31.0494 25.5873 31.1373 25.6752C31.2252 25.7631 31.3444 25.8125 31.4688 25.8125Z" fill="#E30613"/>
<path d="M34.2812 25.8125H35.2188C35.3431 25.8125 35.4623 25.7631 35.5502 25.6752C35.6381 25.5873 35.6875 25.4681 35.6875 25.3438C35.6875 25.2194 35.6381 25.1002 35.5502 25.0123C35.4623 24.9244 35.3431 24.875 35.2188 24.875H34.2812C34.1569 24.875 34.0377 24.9244 33.9498 25.0123C33.8619 25.1002 33.8125 25.2194 33.8125 25.3438C33.8125 25.4681 33.8619 25.5873 33.9498 25.6752C34.0377 25.7631 34.1569 25.8125 34.2812 25.8125Z" fill="#E30613"/>
<path d="M38.3438 38.8125C38.2194 38.8125 38.1002 38.8619 38.0123 38.9498C37.9244 39.0377 37.875 39.1569 37.875 39.2812V40.2188C37.875 40.3431 37.9244 40.4623 38.0123 40.5502C38.1002 40.6381 38.2194 40.6875 38.3438 40.6875C38.4681 40.6875 38.5873 40.6381 38.6752 40.5502C38.7631 40.4623 38.8125 40.3431 38.8125 40.2188V39.2812C38.8125 39.1569 38.7631 39.0377 38.6752 38.9498C38.5873 38.8619 38.4681 38.8125 38.3438 38.8125Z" fill="#E30613"/>
<path d="M38.3438 37.875C38.4681 37.875 38.5873 37.8256 38.6752 37.7377C38.7631 37.6498 38.8125 37.5306 38.8125 37.4062V36.4688C38.8125 36.3444 38.7631 36.2252 38.6752 36.1373C38.5873 36.0494 38.4681 36 38.3438 36C38.2194 36 38.1002 36.0494 38.0123 36.1373C37.9244 36.2252 37.875 36.3444 37.875 36.4688V37.4062C37.875 37.5306 37.9244 37.6498 38.0123 37.7377C38.1002 37.8256 38.2194 37.875 38.3438 37.875Z" fill="#E30613"/>
<path d="M36.4688 38.8125H37.4062C37.5306 38.8125 37.6498 38.7631 37.7377 38.6752C37.8256 38.5873 37.875 38.4681 37.875 38.3438C37.875 38.2194 37.8256 38.1002 37.7377 38.0123C37.6498 37.9244 37.5306 37.875 37.4062 37.875H36.4688C36.3444 37.875 36.2252 37.9244 36.1373 38.0123C36.0494 38.1002 36 38.2194 36 38.3438C36 38.4681 36.0494 38.5873 36.1373 38.6752C36.2252 38.7631 36.3444 38.8125 36.4688 38.8125Z" fill="#E30613"/>
<path d="M39.2812 38.8125H40.2188C40.3431 38.8125 40.4623 38.7631 40.5502 38.6752C40.6381 38.5873 40.6875 38.4681 40.6875 38.3438C40.6875 38.2194 40.6381 38.1002 40.5502 38.0123C40.4623 37.9244 40.3431 37.875 40.2188 37.875H39.2812C39.1569 37.875 39.0377 37.9244 38.9498 38.0123C38.8619 38.1002 38.8125 38.2194 38.8125 38.3438C38.8125 38.4681 38.8619 38.5873 38.9498 38.6752C39.0377 38.7631 39.1569 38.8125 39.2812 38.8125Z" fill="#E30613"/>
</svg>
