<svg width="66" height="69" viewBox="0 0 66 69" fill="none" xmlns="http://www.w3.org/2000/svg">
<path d="M36.571 2.15221C38.8991 -0.343944 43.0828 1.03506 43.4703 4.42631L45.3611 20.9729C45.5191 22.355 46.3837 23.5558 47.6445 24.1438L62.7378 31.1834C65.8312 32.6262 65.8125 37.0313 62.707 38.4478L47.5546 45.3592C46.2889 45.9365 45.4141 47.13 45.2444 48.5107L43.2135 65.0406C42.7972 68.4285 38.6019 69.772 36.2951 67.2562L25.0396 54.9811C24.0994 53.9558 22.6941 53.4926 21.3285 53.7579L4.97997 56.9344C1.62931 57.5854 -0.944841 54.0106 0.734974 51.0393L8.93111 36.5414C9.61573 35.3304 9.622 33.8507 8.94767 32.6339L0.874695 18.0672C-0.779875 15.0817 1.82448 11.5289 5.1695 12.2083L21.4905 15.5232C22.8538 15.8001 24.263 15.3488 25.2119 14.3314L36.571 2.15221Z" fill="#0C54A0"/>
</svg>
