<svg width="24" height="24" viewBox="0 0 24 24" fill="none" xmlns="http://www.w3.org/2000/svg">
<g clip-path="url(#clip0_4423_4182)">
<path d="M23.0706 12C23.0706 5.88594 18.1142 0.929525 12.0002 0.929525C5.88611 0.929525 0.929688 5.88594 0.929688 12C0.929688 18.114 5.88611 23.0705 12.0002 23.0705C18.1142 23.0705 23.0706 18.114 23.0706 12Z" fill="#0C54A0"/>
<path d="M24 12C24 18.6163 18.6172 24 12 24C5.38373 24 0 18.6163 0 12C0 5.3828 5.38373 0 12 0C18.6172 0 24 5.3828 24 12ZM1.85902 12C1.85902 17.592 6.40805 22.141 12 22.141C17.592 22.141 22.141 17.592 22.141 12C22.141 6.40805 17.591 1.85902 12 1.85902C6.40805 1.85902 1.85902 6.40805 1.85902 12Z" fill="#0C54A0"/>
<path d="M14.5841 6.69249C14.9448 7.05502 14.9448 7.64058 14.5841 8.00311L10.5965 11.9907L14.5841 15.9783C14.9178 16.3678 14.8722 16.9553 14.4828 17.289C14.1352 17.5873 13.6211 17.5873 13.2735 17.289L8.62596 12.6414C8.2653 12.2789 8.2653 11.6933 8.62596 11.3308L13.2735 6.68321C13.6388 6.32532 14.2244 6.32907 14.5841 6.69249Z" fill="white"/>
</g>
<defs>
<clipPath id="clip0_4423_4182">
<rect width="24" height="24" fill="white" transform="matrix(0 -1 1 0 0 24)"/>
</clipPath>
</defs>
</svg>
