<svg width="32" height="32" viewBox="0 0 32 32" fill="none" xmlns="http://www.w3.org/2000/svg">
<path d="M16.0002 3.20001C8.92819 3.20001 3.2002 8.92801 3.2002 16C3.2002 18.816 4.0962 21.408 5.6322 23.52L3.8722 28.16L8.9602 26.688C10.9762 28.032 13.4082 28.8 16.0002 28.8C23.0722 28.8 28.8002 23.072 28.8002 16C28.8002 8.92801 23.0722 3.20001 16.0002 3.20001ZM22.8162 21.312L21.4402 22.656C20.0002 24.096 16.1922 22.528 12.8322 19.136C9.47219 15.776 7.9682 11.968 9.3122 10.56L10.6882 9.18401C11.2002 8.67201 12.0642 8.67201 12.6082 9.18401L14.6242 11.2C15.3282 11.904 15.0402 13.12 14.1122 13.408C13.4722 13.632 13.0242 14.336 13.2482 14.976C13.6002 16.48 15.5522 18.336 16.9922 18.688C17.6322 18.848 18.3682 18.464 18.5602 17.824C18.8482 16.896 20.0642 16.608 20.7682 17.312L22.7842 19.328C23.2962 19.872 23.2962 20.736 22.8162 21.312Z" fill="#0C54A0"/>
</svg>
