<svg width="18" height="18" viewBox="0 0 18 18" fill="none" xmlns="http://www.w3.org/2000/svg">
<path d="M8.9998 1.7998C5.0218 1.7998 1.7998 5.0218 1.7998 8.9998C1.7998 10.5838 2.3038 12.0418 3.1678 13.2298L2.1778 15.8398L5.0398 15.0118C6.1738 15.7678 7.5418 16.1998 8.9998 16.1998C12.9778 16.1998 16.1998 12.9778 16.1998 8.9998C16.1998 5.0218 12.9778 1.7998 8.9998 1.7998ZM12.8338 11.9878L12.0598 12.7438C11.2498 13.5538 9.1078 12.6718 7.2178 10.7638C5.3278 8.8738 4.4818 6.7318 5.2378 5.9398L6.0118 5.1658C6.2998 4.8778 6.7858 4.8778 7.0918 5.1658L8.2258 6.2998C8.6218 6.6958 8.4598 7.3798 7.9378 7.5418C7.5778 7.6678 7.3258 8.0638 7.4518 8.4238C7.6498 9.2698 8.7478 10.3138 9.5578 10.5118C9.9178 10.6018 10.3318 10.3858 10.4398 10.0258C10.6018 9.5038 11.2858 9.3418 11.6818 9.7378L12.8158 10.8718C13.1038 11.1778 13.1038 11.6638 12.8338 11.9878Z" fill="white"/>
</svg>
